%TF.GenerationSoftware,KiCad,Pcbnew,8.0.6*%
%TF.CreationDate,2025-03-12T20:05:18-06:00*%
%TF.ProjectId,Lightbar,4c696768-7462-4617-922e-6b696361645f,rev?*%
%TF.SameCoordinates,Original*%
%TF.FileFunction,Legend,Top*%
%TF.FilePolarity,Positive*%
%FSLAX46Y46*%
G04 Gerber Fmt 4.6, Leading zero omitted, Abs format (unit mm)*
G04 Created by KiCad (PCBNEW 8.0.6) date 2025-03-12 20:05:18*
%MOMM*%
%LPD*%
G01*
G04 APERTURE LIST*
%ADD10C,0.100000*%
%ADD11C,0.150000*%
%ADD12C,0.093472*%
%ADD13C,0.114300*%
%ADD14C,0.120000*%
%ADD15C,0.200000*%
%ADD16C,0.254000*%
%ADD17C,0.152400*%
G04 APERTURE END LIST*
D10*
X152420038Y-106672306D02*
X152372419Y-106767544D01*
X152372419Y-106767544D02*
X152372419Y-106910401D01*
X152372419Y-106910401D02*
X152420038Y-107053258D01*
X152420038Y-107053258D02*
X152515276Y-107148496D01*
X152515276Y-107148496D02*
X152610514Y-107196115D01*
X152610514Y-107196115D02*
X152800990Y-107243734D01*
X152800990Y-107243734D02*
X152943847Y-107243734D01*
X152943847Y-107243734D02*
X153134323Y-107196115D01*
X153134323Y-107196115D02*
X153229561Y-107148496D01*
X153229561Y-107148496D02*
X153324800Y-107053258D01*
X153324800Y-107053258D02*
X153372419Y-106910401D01*
X153372419Y-106910401D02*
X153372419Y-106815163D01*
X153372419Y-106815163D02*
X153324800Y-106672306D01*
X153324800Y-106672306D02*
X153277180Y-106624687D01*
X153277180Y-106624687D02*
X152943847Y-106624687D01*
X152943847Y-106624687D02*
X152943847Y-106815163D01*
X153372419Y-106196115D02*
X152372419Y-106196115D01*
X152372419Y-106196115D02*
X153372419Y-105624687D01*
X153372419Y-105624687D02*
X152372419Y-105624687D01*
X153372419Y-105148496D02*
X152372419Y-105148496D01*
X152372419Y-105148496D02*
X152372419Y-104910401D01*
X152372419Y-104910401D02*
X152420038Y-104767544D01*
X152420038Y-104767544D02*
X152515276Y-104672306D01*
X152515276Y-104672306D02*
X152610514Y-104624687D01*
X152610514Y-104624687D02*
X152800990Y-104577068D01*
X152800990Y-104577068D02*
X152943847Y-104577068D01*
X152943847Y-104577068D02*
X153134323Y-104624687D01*
X153134323Y-104624687D02*
X153229561Y-104672306D01*
X153229561Y-104672306D02*
X153324800Y-104767544D01*
X153324800Y-104767544D02*
X153372419Y-104910401D01*
X153372419Y-104910401D02*
X153372419Y-105148496D01*
X188303884Y-100491466D02*
X189065789Y-100491466D01*
X150872419Y-106719925D02*
X150872419Y-107196115D01*
X150872419Y-107196115D02*
X149872419Y-107196115D01*
X150586704Y-106434210D02*
X150586704Y-105958020D01*
X150872419Y-106529448D02*
X149872419Y-106196115D01*
X149872419Y-106196115D02*
X150872419Y-105862782D01*
X150824800Y-105577067D02*
X150872419Y-105434210D01*
X150872419Y-105434210D02*
X150872419Y-105196115D01*
X150872419Y-105196115D02*
X150824800Y-105100877D01*
X150824800Y-105100877D02*
X150777180Y-105053258D01*
X150777180Y-105053258D02*
X150681942Y-105005639D01*
X150681942Y-105005639D02*
X150586704Y-105005639D01*
X150586704Y-105005639D02*
X150491466Y-105053258D01*
X150491466Y-105053258D02*
X150443847Y-105100877D01*
X150443847Y-105100877D02*
X150396228Y-105196115D01*
X150396228Y-105196115D02*
X150348609Y-105386591D01*
X150348609Y-105386591D02*
X150300990Y-105481829D01*
X150300990Y-105481829D02*
X150253371Y-105529448D01*
X150253371Y-105529448D02*
X150158133Y-105577067D01*
X150158133Y-105577067D02*
X150062895Y-105577067D01*
X150062895Y-105577067D02*
X149967657Y-105529448D01*
X149967657Y-105529448D02*
X149920038Y-105481829D01*
X149920038Y-105481829D02*
X149872419Y-105386591D01*
X149872419Y-105386591D02*
X149872419Y-105148496D01*
X149872419Y-105148496D02*
X149920038Y-105005639D01*
X150348609Y-104577067D02*
X150348609Y-104243734D01*
X150872419Y-104100877D02*
X150872419Y-104577067D01*
X150872419Y-104577067D02*
X149872419Y-104577067D01*
X149872419Y-104577067D02*
X149872419Y-104100877D01*
X150872419Y-103100877D02*
X150396228Y-103434210D01*
X150872419Y-103672305D02*
X149872419Y-103672305D01*
X149872419Y-103672305D02*
X149872419Y-103291353D01*
X149872419Y-103291353D02*
X149920038Y-103196115D01*
X149920038Y-103196115D02*
X149967657Y-103148496D01*
X149967657Y-103148496D02*
X150062895Y-103100877D01*
X150062895Y-103100877D02*
X150205752Y-103100877D01*
X150205752Y-103100877D02*
X150300990Y-103148496D01*
X150300990Y-103148496D02*
X150348609Y-103196115D01*
X150348609Y-103196115D02*
X150396228Y-103291353D01*
X150396228Y-103291353D02*
X150396228Y-103672305D01*
X108303884Y-100491466D02*
X109065789Y-100491466D01*
X143872419Y-107338972D02*
X144872419Y-107005639D01*
X144872419Y-107005639D02*
X143872419Y-106672306D01*
X144777180Y-105767544D02*
X144824800Y-105815163D01*
X144824800Y-105815163D02*
X144872419Y-105958020D01*
X144872419Y-105958020D02*
X144872419Y-106053258D01*
X144872419Y-106053258D02*
X144824800Y-106196115D01*
X144824800Y-106196115D02*
X144729561Y-106291353D01*
X144729561Y-106291353D02*
X144634323Y-106338972D01*
X144634323Y-106338972D02*
X144443847Y-106386591D01*
X144443847Y-106386591D02*
X144300990Y-106386591D01*
X144300990Y-106386591D02*
X144110514Y-106338972D01*
X144110514Y-106338972D02*
X144015276Y-106291353D01*
X144015276Y-106291353D02*
X143920038Y-106196115D01*
X143920038Y-106196115D02*
X143872419Y-106053258D01*
X143872419Y-106053258D02*
X143872419Y-105958020D01*
X143872419Y-105958020D02*
X143920038Y-105815163D01*
X143920038Y-105815163D02*
X143967657Y-105767544D01*
X144777180Y-104767544D02*
X144824800Y-104815163D01*
X144824800Y-104815163D02*
X144872419Y-104958020D01*
X144872419Y-104958020D02*
X144872419Y-105053258D01*
X144872419Y-105053258D02*
X144824800Y-105196115D01*
X144824800Y-105196115D02*
X144729561Y-105291353D01*
X144729561Y-105291353D02*
X144634323Y-105338972D01*
X144634323Y-105338972D02*
X144443847Y-105386591D01*
X144443847Y-105386591D02*
X144300990Y-105386591D01*
X144300990Y-105386591D02*
X144110514Y-105338972D01*
X144110514Y-105338972D02*
X144015276Y-105291353D01*
X144015276Y-105291353D02*
X143920038Y-105196115D01*
X143920038Y-105196115D02*
X143872419Y-105053258D01*
X143872419Y-105053258D02*
X143872419Y-104958020D01*
X143872419Y-104958020D02*
X143920038Y-104815163D01*
X143920038Y-104815163D02*
X143967657Y-104767544D01*
X147872419Y-107196115D02*
X146872419Y-107196115D01*
X146872419Y-107196115D02*
X146872419Y-106815163D01*
X146872419Y-106815163D02*
X146920038Y-106719925D01*
X146920038Y-106719925D02*
X146967657Y-106672306D01*
X146967657Y-106672306D02*
X147062895Y-106624687D01*
X147062895Y-106624687D02*
X147205752Y-106624687D01*
X147205752Y-106624687D02*
X147300990Y-106672306D01*
X147300990Y-106672306D02*
X147348609Y-106719925D01*
X147348609Y-106719925D02*
X147396228Y-106815163D01*
X147396228Y-106815163D02*
X147396228Y-107196115D01*
X146872419Y-106291353D02*
X147872419Y-106053258D01*
X147872419Y-106053258D02*
X147158133Y-105862782D01*
X147158133Y-105862782D02*
X147872419Y-105672306D01*
X147872419Y-105672306D02*
X146872419Y-105434211D01*
X147872419Y-105053258D02*
X146872419Y-105053258D01*
X146872419Y-105053258D02*
X147586704Y-104719925D01*
X147586704Y-104719925D02*
X146872419Y-104386592D01*
X146872419Y-104386592D02*
X147872419Y-104386592D01*
D11*
X111333333Y-102454819D02*
X111000000Y-101978628D01*
X110761905Y-102454819D02*
X110761905Y-101454819D01*
X110761905Y-101454819D02*
X111142857Y-101454819D01*
X111142857Y-101454819D02*
X111238095Y-101502438D01*
X111238095Y-101502438D02*
X111285714Y-101550057D01*
X111285714Y-101550057D02*
X111333333Y-101645295D01*
X111333333Y-101645295D02*
X111333333Y-101788152D01*
X111333333Y-101788152D02*
X111285714Y-101883390D01*
X111285714Y-101883390D02*
X111238095Y-101931009D01*
X111238095Y-101931009D02*
X111142857Y-101978628D01*
X111142857Y-101978628D02*
X110761905Y-101978628D01*
X112190476Y-101788152D02*
X112190476Y-102454819D01*
X111952381Y-101407200D02*
X111714286Y-102121485D01*
X111714286Y-102121485D02*
X112333333Y-102121485D01*
D12*
X166837734Y-111226807D02*
X166837734Y-110050279D01*
X166837734Y-110050279D02*
X167117860Y-110050279D01*
X167117860Y-110050279D02*
X167285935Y-110106304D01*
X167285935Y-110106304D02*
X167397986Y-110218354D01*
X167397986Y-110218354D02*
X167454011Y-110330404D01*
X167454011Y-110330404D02*
X167510036Y-110554505D01*
X167510036Y-110554505D02*
X167510036Y-110722580D01*
X167510036Y-110722580D02*
X167454011Y-110946681D01*
X167454011Y-110946681D02*
X167397986Y-111058731D01*
X167397986Y-111058731D02*
X167285935Y-111170782D01*
X167285935Y-111170782D02*
X167117860Y-111226807D01*
X167117860Y-111226807D02*
X166837734Y-111226807D01*
X168630539Y-111226807D02*
X167958237Y-111226807D01*
X168294388Y-111226807D02*
X168294388Y-110050279D01*
X168294388Y-110050279D02*
X168182338Y-110218354D01*
X168182338Y-110218354D02*
X168070287Y-110330404D01*
X168070287Y-110330404D02*
X167958237Y-110386430D01*
X154361811Y-101014767D02*
X153969635Y-100454515D01*
X153689509Y-101014767D02*
X153689509Y-99838239D01*
X153689509Y-99838239D02*
X154137710Y-99838239D01*
X154137710Y-99838239D02*
X154249761Y-99894264D01*
X154249761Y-99894264D02*
X154305786Y-99950289D01*
X154305786Y-99950289D02*
X154361811Y-100062339D01*
X154361811Y-100062339D02*
X154361811Y-100230415D01*
X154361811Y-100230415D02*
X154305786Y-100342465D01*
X154305786Y-100342465D02*
X154249761Y-100398490D01*
X154249761Y-100398490D02*
X154137710Y-100454515D01*
X154137710Y-100454515D02*
X153689509Y-100454515D01*
X155482314Y-101014767D02*
X154810012Y-101014767D01*
X155146163Y-101014767D02*
X155146163Y-99838239D01*
X155146163Y-99838239D02*
X155034113Y-100006314D01*
X155034113Y-100006314D02*
X154922062Y-100118364D01*
X154922062Y-100118364D02*
X154810012Y-100174390D01*
X100183409Y-110539424D02*
X99623157Y-110539424D01*
X99623157Y-110539424D02*
X99623157Y-109362896D01*
X100575584Y-109923147D02*
X100967760Y-109923147D01*
X101135836Y-110539424D02*
X100575584Y-110539424D01*
X100575584Y-110539424D02*
X100575584Y-109362896D01*
X100575584Y-109362896D02*
X101135836Y-109362896D01*
X101640062Y-110539424D02*
X101640062Y-109362896D01*
X101640062Y-109362896D02*
X101920188Y-109362896D01*
X101920188Y-109362896D02*
X102088263Y-109418921D01*
X102088263Y-109418921D02*
X102200314Y-109530971D01*
X102200314Y-109530971D02*
X102256339Y-109643021D01*
X102256339Y-109643021D02*
X102312364Y-109867122D01*
X102312364Y-109867122D02*
X102312364Y-110035197D01*
X102312364Y-110035197D02*
X102256339Y-110259298D01*
X102256339Y-110259298D02*
X102200314Y-110371348D01*
X102200314Y-110371348D02*
X102088263Y-110483399D01*
X102088263Y-110483399D02*
X101920188Y-110539424D01*
X101920188Y-110539424D02*
X101640062Y-110539424D01*
X102760565Y-109474946D02*
X102816590Y-109418921D01*
X102816590Y-109418921D02*
X102928641Y-109362896D01*
X102928641Y-109362896D02*
X103208766Y-109362896D01*
X103208766Y-109362896D02*
X103320817Y-109418921D01*
X103320817Y-109418921D02*
X103376842Y-109474946D01*
X103376842Y-109474946D02*
X103432867Y-109586996D01*
X103432867Y-109586996D02*
X103432867Y-109699047D01*
X103432867Y-109699047D02*
X103376842Y-109867122D01*
X103376842Y-109867122D02*
X102704540Y-110539424D01*
X102704540Y-110539424D02*
X103432867Y-110539424D01*
D13*
X99900697Y-100541820D02*
X99350363Y-100541820D01*
X99350363Y-100541820D02*
X99350363Y-99386120D01*
X100230897Y-100486787D02*
X100395997Y-100541820D01*
X100395997Y-100541820D02*
X100671164Y-100541820D01*
X100671164Y-100541820D02*
X100781230Y-100486787D01*
X100781230Y-100486787D02*
X100836264Y-100431753D01*
X100836264Y-100431753D02*
X100891297Y-100321687D01*
X100891297Y-100321687D02*
X100891297Y-100211620D01*
X100891297Y-100211620D02*
X100836264Y-100101553D01*
X100836264Y-100101553D02*
X100781230Y-100046520D01*
X100781230Y-100046520D02*
X100671164Y-99991487D01*
X100671164Y-99991487D02*
X100451030Y-99936453D01*
X100451030Y-99936453D02*
X100340964Y-99881420D01*
X100340964Y-99881420D02*
X100285930Y-99826387D01*
X100285930Y-99826387D02*
X100230897Y-99716320D01*
X100230897Y-99716320D02*
X100230897Y-99606253D01*
X100230897Y-99606253D02*
X100285930Y-99496187D01*
X100285930Y-99496187D02*
X100340964Y-99441153D01*
X100340964Y-99441153D02*
X100451030Y-99386120D01*
X100451030Y-99386120D02*
X100726197Y-99386120D01*
X100726197Y-99386120D02*
X100891297Y-99441153D01*
X102046997Y-100541820D02*
X101661764Y-99991487D01*
X101386597Y-100541820D02*
X101386597Y-99386120D01*
X101386597Y-99386120D02*
X101826864Y-99386120D01*
X101826864Y-99386120D02*
X101936931Y-99441153D01*
X101936931Y-99441153D02*
X101991964Y-99496187D01*
X101991964Y-99496187D02*
X102046997Y-99606253D01*
X102046997Y-99606253D02*
X102046997Y-99771353D01*
X102046997Y-99771353D02*
X101991964Y-99881420D01*
X101991964Y-99881420D02*
X101936931Y-99936453D01*
X101936931Y-99936453D02*
X101826864Y-99991487D01*
X101826864Y-99991487D02*
X101386597Y-99991487D01*
X102487264Y-99496187D02*
X102542297Y-99441153D01*
X102542297Y-99441153D02*
X102652364Y-99386120D01*
X102652364Y-99386120D02*
X102927531Y-99386120D01*
X102927531Y-99386120D02*
X103037597Y-99441153D01*
X103037597Y-99441153D02*
X103092631Y-99496187D01*
X103092631Y-99496187D02*
X103147664Y-99606253D01*
X103147664Y-99606253D02*
X103147664Y-99716320D01*
X103147664Y-99716320D02*
X103092631Y-99881420D01*
X103092631Y-99881420D02*
X102432231Y-100541820D01*
X102432231Y-100541820D02*
X103147664Y-100541820D01*
D12*
X185183817Y-111249479D02*
X185127792Y-111305505D01*
X185127792Y-111305505D02*
X184959716Y-111361530D01*
X184959716Y-111361530D02*
X184847666Y-111361530D01*
X184847666Y-111361530D02*
X184679591Y-111305505D01*
X184679591Y-111305505D02*
X184567540Y-111193454D01*
X184567540Y-111193454D02*
X184511515Y-111081404D01*
X184511515Y-111081404D02*
X184455490Y-110857303D01*
X184455490Y-110857303D02*
X184455490Y-110689228D01*
X184455490Y-110689228D02*
X184511515Y-110465127D01*
X184511515Y-110465127D02*
X184567540Y-110353077D01*
X184567540Y-110353077D02*
X184679591Y-110241027D01*
X184679591Y-110241027D02*
X184847666Y-110185002D01*
X184847666Y-110185002D02*
X184959716Y-110185002D01*
X184959716Y-110185002D02*
X185127792Y-110241027D01*
X185127792Y-110241027D02*
X185183817Y-110297052D01*
X185632018Y-110297052D02*
X185688043Y-110241027D01*
X185688043Y-110241027D02*
X185800094Y-110185002D01*
X185800094Y-110185002D02*
X186080219Y-110185002D01*
X186080219Y-110185002D02*
X186192270Y-110241027D01*
X186192270Y-110241027D02*
X186248295Y-110297052D01*
X186248295Y-110297052D02*
X186304320Y-110409102D01*
X186304320Y-110409102D02*
X186304320Y-110521153D01*
X186304320Y-110521153D02*
X186248295Y-110689228D01*
X186248295Y-110689228D02*
X185575993Y-111361530D01*
X185575993Y-111361530D02*
X186304320Y-111361530D01*
X158513921Y-100739104D02*
X158457896Y-100795130D01*
X158457896Y-100795130D02*
X158289820Y-100851155D01*
X158289820Y-100851155D02*
X158177770Y-100851155D01*
X158177770Y-100851155D02*
X158009695Y-100795130D01*
X158009695Y-100795130D02*
X157897644Y-100683079D01*
X157897644Y-100683079D02*
X157841619Y-100571029D01*
X157841619Y-100571029D02*
X157785594Y-100346928D01*
X157785594Y-100346928D02*
X157785594Y-100178853D01*
X157785594Y-100178853D02*
X157841619Y-99954752D01*
X157841619Y-99954752D02*
X157897644Y-99842702D01*
X157897644Y-99842702D02*
X158009695Y-99730652D01*
X158009695Y-99730652D02*
X158177770Y-99674627D01*
X158177770Y-99674627D02*
X158289820Y-99674627D01*
X158289820Y-99674627D02*
X158457896Y-99730652D01*
X158457896Y-99730652D02*
X158513921Y-99786677D01*
X159634424Y-100851155D02*
X158962122Y-100851155D01*
X159298273Y-100851155D02*
X159298273Y-99674627D01*
X159298273Y-99674627D02*
X159186223Y-99842702D01*
X159186223Y-99842702D02*
X159074172Y-99954752D01*
X159074172Y-99954752D02*
X158962122Y-100010778D01*
X119181317Y-111206431D02*
X118621065Y-111206431D01*
X118621065Y-111206431D02*
X118621065Y-110029903D01*
X119517467Y-110141953D02*
X119573492Y-110085928D01*
X119573492Y-110085928D02*
X119685543Y-110029903D01*
X119685543Y-110029903D02*
X119965668Y-110029903D01*
X119965668Y-110029903D02*
X120077719Y-110085928D01*
X120077719Y-110085928D02*
X120133744Y-110141953D01*
X120133744Y-110141953D02*
X120189769Y-110254003D01*
X120189769Y-110254003D02*
X120189769Y-110366054D01*
X120189769Y-110366054D02*
X120133744Y-110534129D01*
X120133744Y-110534129D02*
X119461442Y-111206431D01*
X119461442Y-111206431D02*
X120189769Y-111206431D01*
X158831774Y-111280301D02*
X158831774Y-110103773D01*
X160064327Y-111168250D02*
X160008302Y-111224276D01*
X160008302Y-111224276D02*
X159840226Y-111280301D01*
X159840226Y-111280301D02*
X159728176Y-111280301D01*
X159728176Y-111280301D02*
X159560101Y-111224276D01*
X159560101Y-111224276D02*
X159448050Y-111112225D01*
X159448050Y-111112225D02*
X159392025Y-111000175D01*
X159392025Y-111000175D02*
X159336000Y-110776074D01*
X159336000Y-110776074D02*
X159336000Y-110607999D01*
X159336000Y-110607999D02*
X159392025Y-110383898D01*
X159392025Y-110383898D02*
X159448050Y-110271848D01*
X159448050Y-110271848D02*
X159560101Y-110159798D01*
X159560101Y-110159798D02*
X159728176Y-110103773D01*
X159728176Y-110103773D02*
X159840226Y-110103773D01*
X159840226Y-110103773D02*
X160008302Y-110159798D01*
X160008302Y-110159798D02*
X160064327Y-110215823D01*
X161184830Y-111280301D02*
X160512528Y-111280301D01*
X160848679Y-111280301D02*
X160848679Y-110103773D01*
X160848679Y-110103773D02*
X160736629Y-110271848D01*
X160736629Y-110271848D02*
X160624578Y-110383898D01*
X160624578Y-110383898D02*
X160512528Y-110439924D01*
X111593676Y-110739104D02*
X111537651Y-110795130D01*
X111537651Y-110795130D02*
X111369575Y-110851155D01*
X111369575Y-110851155D02*
X111257525Y-110851155D01*
X111257525Y-110851155D02*
X111089450Y-110795130D01*
X111089450Y-110795130D02*
X110977399Y-110683079D01*
X110977399Y-110683079D02*
X110921374Y-110571029D01*
X110921374Y-110571029D02*
X110865349Y-110346928D01*
X110865349Y-110346928D02*
X110865349Y-110178853D01*
X110865349Y-110178853D02*
X110921374Y-109954752D01*
X110921374Y-109954752D02*
X110977399Y-109842702D01*
X110977399Y-109842702D02*
X111089450Y-109730652D01*
X111089450Y-109730652D02*
X111257525Y-109674627D01*
X111257525Y-109674627D02*
X111369575Y-109674627D01*
X111369575Y-109674627D02*
X111537651Y-109730652D01*
X111537651Y-109730652D02*
X111593676Y-109786677D01*
X112602129Y-110066803D02*
X112602129Y-110851155D01*
X112322003Y-109618602D02*
X112041877Y-110458979D01*
X112041877Y-110458979D02*
X112770204Y-110458979D01*
X128771755Y-111283220D02*
X128771755Y-110106692D01*
X128771755Y-110106692D02*
X129051881Y-110106692D01*
X129051881Y-110106692D02*
X129219956Y-110162717D01*
X129219956Y-110162717D02*
X129332007Y-110274767D01*
X129332007Y-110274767D02*
X129388032Y-110386817D01*
X129388032Y-110386817D02*
X129444057Y-110610918D01*
X129444057Y-110610918D02*
X129444057Y-110778993D01*
X129444057Y-110778993D02*
X129388032Y-111003094D01*
X129388032Y-111003094D02*
X129332007Y-111115144D01*
X129332007Y-111115144D02*
X129219956Y-111227195D01*
X129219956Y-111227195D02*
X129051881Y-111283220D01*
X129051881Y-111283220D02*
X128771755Y-111283220D01*
X129892258Y-110218742D02*
X129948283Y-110162717D01*
X129948283Y-110162717D02*
X130060334Y-110106692D01*
X130060334Y-110106692D02*
X130340459Y-110106692D01*
X130340459Y-110106692D02*
X130452510Y-110162717D01*
X130452510Y-110162717D02*
X130508535Y-110218742D01*
X130508535Y-110218742D02*
X130564560Y-110330792D01*
X130564560Y-110330792D02*
X130564560Y-110442843D01*
X130564560Y-110442843D02*
X130508535Y-110610918D01*
X130508535Y-110610918D02*
X129836233Y-111283220D01*
X129836233Y-111283220D02*
X130564560Y-111283220D01*
X136141262Y-111237233D02*
X136141262Y-110060705D01*
X137373815Y-111125182D02*
X137317790Y-111181208D01*
X137317790Y-111181208D02*
X137149714Y-111237233D01*
X137149714Y-111237233D02*
X137037664Y-111237233D01*
X137037664Y-111237233D02*
X136869589Y-111181208D01*
X136869589Y-111181208D02*
X136757538Y-111069157D01*
X136757538Y-111069157D02*
X136701513Y-110957107D01*
X136701513Y-110957107D02*
X136645488Y-110733006D01*
X136645488Y-110733006D02*
X136645488Y-110564931D01*
X136645488Y-110564931D02*
X136701513Y-110340830D01*
X136701513Y-110340830D02*
X136757538Y-110228780D01*
X136757538Y-110228780D02*
X136869589Y-110116730D01*
X136869589Y-110116730D02*
X137037664Y-110060705D01*
X137037664Y-110060705D02*
X137149714Y-110060705D01*
X137149714Y-110060705D02*
X137317790Y-110116730D01*
X137317790Y-110116730D02*
X137373815Y-110172755D01*
X137822016Y-110172755D02*
X137878041Y-110116730D01*
X137878041Y-110116730D02*
X137990092Y-110060705D01*
X137990092Y-110060705D02*
X138270217Y-110060705D01*
X138270217Y-110060705D02*
X138382268Y-110116730D01*
X138382268Y-110116730D02*
X138438293Y-110172755D01*
X138438293Y-110172755D02*
X138494318Y-110284805D01*
X138494318Y-110284805D02*
X138494318Y-110396856D01*
X138494318Y-110396856D02*
X138438293Y-110564931D01*
X138438293Y-110564931D02*
X137765991Y-111237233D01*
X137765991Y-111237233D02*
X138494318Y-111237233D01*
D11*
X141954819Y-109833333D02*
X142669104Y-109833333D01*
X142669104Y-109833333D02*
X142811961Y-109880952D01*
X142811961Y-109880952D02*
X142907200Y-109976190D01*
X142907200Y-109976190D02*
X142954819Y-110119047D01*
X142954819Y-110119047D02*
X142954819Y-110214285D01*
X142954819Y-108833333D02*
X142954819Y-109404761D01*
X142954819Y-109119047D02*
X141954819Y-109119047D01*
X141954819Y-109119047D02*
X142097676Y-109214285D01*
X142097676Y-109214285D02*
X142192914Y-109309523D01*
X142192914Y-109309523D02*
X142240533Y-109404761D01*
X185833333Y-102454819D02*
X185500000Y-101978628D01*
X185261905Y-102454819D02*
X185261905Y-101454819D01*
X185261905Y-101454819D02*
X185642857Y-101454819D01*
X185642857Y-101454819D02*
X185738095Y-101502438D01*
X185738095Y-101502438D02*
X185785714Y-101550057D01*
X185785714Y-101550057D02*
X185833333Y-101645295D01*
X185833333Y-101645295D02*
X185833333Y-101788152D01*
X185833333Y-101788152D02*
X185785714Y-101883390D01*
X185785714Y-101883390D02*
X185738095Y-101931009D01*
X185738095Y-101931009D02*
X185642857Y-101978628D01*
X185642857Y-101978628D02*
X185261905Y-101978628D01*
X186166667Y-101454819D02*
X186785714Y-101454819D01*
X186785714Y-101454819D02*
X186452381Y-101835771D01*
X186452381Y-101835771D02*
X186595238Y-101835771D01*
X186595238Y-101835771D02*
X186690476Y-101883390D01*
X186690476Y-101883390D02*
X186738095Y-101931009D01*
X186738095Y-101931009D02*
X186785714Y-102026247D01*
X186785714Y-102026247D02*
X186785714Y-102264342D01*
X186785714Y-102264342D02*
X186738095Y-102359580D01*
X186738095Y-102359580D02*
X186690476Y-102407200D01*
X186690476Y-102407200D02*
X186595238Y-102454819D01*
X186595238Y-102454819D02*
X186309524Y-102454819D01*
X186309524Y-102454819D02*
X186214286Y-102407200D01*
X186214286Y-102407200D02*
X186166667Y-102359580D01*
D12*
X138535021Y-99959042D02*
X138478996Y-100015068D01*
X138478996Y-100015068D02*
X138310920Y-100071093D01*
X138310920Y-100071093D02*
X138198870Y-100071093D01*
X138198870Y-100071093D02*
X138030795Y-100015068D01*
X138030795Y-100015068D02*
X137918744Y-99903017D01*
X137918744Y-99903017D02*
X137862719Y-99790967D01*
X137862719Y-99790967D02*
X137806694Y-99566866D01*
X137806694Y-99566866D02*
X137806694Y-99398791D01*
X137806694Y-99398791D02*
X137862719Y-99174690D01*
X137862719Y-99174690D02*
X137918744Y-99062640D01*
X137918744Y-99062640D02*
X138030795Y-98950590D01*
X138030795Y-98950590D02*
X138198870Y-98894565D01*
X138198870Y-98894565D02*
X138310920Y-98894565D01*
X138310920Y-98894565D02*
X138478996Y-98950590D01*
X138478996Y-98950590D02*
X138535021Y-99006615D01*
X138927197Y-98894565D02*
X139655524Y-98894565D01*
X139655524Y-98894565D02*
X139263348Y-99342766D01*
X139263348Y-99342766D02*
X139431423Y-99342766D01*
X139431423Y-99342766D02*
X139543474Y-99398791D01*
X139543474Y-99398791D02*
X139599499Y-99454816D01*
X139599499Y-99454816D02*
X139655524Y-99566866D01*
X139655524Y-99566866D02*
X139655524Y-99846992D01*
X139655524Y-99846992D02*
X139599499Y-99959042D01*
X139599499Y-99959042D02*
X139543474Y-100015068D01*
X139543474Y-100015068D02*
X139431423Y-100071093D01*
X139431423Y-100071093D02*
X139095272Y-100071093D01*
X139095272Y-100071093D02*
X138983222Y-100015068D01*
X138983222Y-100015068D02*
X138927197Y-99959042D01*
X142706622Y-100851155D02*
X142314446Y-100290903D01*
X142034320Y-100851155D02*
X142034320Y-99674627D01*
X142034320Y-99674627D02*
X142482521Y-99674627D01*
X142482521Y-99674627D02*
X142594572Y-99730652D01*
X142594572Y-99730652D02*
X142650597Y-99786677D01*
X142650597Y-99786677D02*
X142706622Y-99898727D01*
X142706622Y-99898727D02*
X142706622Y-100066803D01*
X142706622Y-100066803D02*
X142650597Y-100178853D01*
X142650597Y-100178853D02*
X142594572Y-100234878D01*
X142594572Y-100234878D02*
X142482521Y-100290903D01*
X142482521Y-100290903D02*
X142034320Y-100290903D01*
X143154823Y-99786677D02*
X143210848Y-99730652D01*
X143210848Y-99730652D02*
X143322899Y-99674627D01*
X143322899Y-99674627D02*
X143603024Y-99674627D01*
X143603024Y-99674627D02*
X143715075Y-99730652D01*
X143715075Y-99730652D02*
X143771100Y-99786677D01*
X143771100Y-99786677D02*
X143827125Y-99898727D01*
X143827125Y-99898727D02*
X143827125Y-100010778D01*
X143827125Y-100010778D02*
X143771100Y-100178853D01*
X143771100Y-100178853D02*
X143098798Y-100851155D01*
X143098798Y-100851155D02*
X143827125Y-100851155D01*
X177616050Y-111306603D02*
X177055798Y-111306603D01*
X177055798Y-111306603D02*
X177055798Y-110130075D01*
X178624502Y-111306603D02*
X177952200Y-111306603D01*
X178288351Y-111306603D02*
X178288351Y-110130075D01*
X178288351Y-110130075D02*
X178176301Y-110298150D01*
X178176301Y-110298150D02*
X178064250Y-110410200D01*
X178064250Y-110410200D02*
X177952200Y-110466226D01*
X194683409Y-110539424D02*
X194123157Y-110539424D01*
X194123157Y-110539424D02*
X194123157Y-109362896D01*
X195075584Y-109923147D02*
X195467760Y-109923147D01*
X195635836Y-110539424D02*
X195075584Y-110539424D01*
X195075584Y-110539424D02*
X195075584Y-109362896D01*
X195075584Y-109362896D02*
X195635836Y-109362896D01*
X196140062Y-110539424D02*
X196140062Y-109362896D01*
X196140062Y-109362896D02*
X196420188Y-109362896D01*
X196420188Y-109362896D02*
X196588263Y-109418921D01*
X196588263Y-109418921D02*
X196700314Y-109530971D01*
X196700314Y-109530971D02*
X196756339Y-109643021D01*
X196756339Y-109643021D02*
X196812364Y-109867122D01*
X196812364Y-109867122D02*
X196812364Y-110035197D01*
X196812364Y-110035197D02*
X196756339Y-110259298D01*
X196756339Y-110259298D02*
X196700314Y-110371348D01*
X196700314Y-110371348D02*
X196588263Y-110483399D01*
X196588263Y-110483399D02*
X196420188Y-110539424D01*
X196420188Y-110539424D02*
X196140062Y-110539424D01*
X197932867Y-110539424D02*
X197260565Y-110539424D01*
X197596716Y-110539424D02*
X197596716Y-109362896D01*
X197596716Y-109362896D02*
X197484666Y-109530971D01*
X197484666Y-109530971D02*
X197372615Y-109643021D01*
X197372615Y-109643021D02*
X197260565Y-109699047D01*
D13*
X194457702Y-100704789D02*
X193907368Y-100704789D01*
X193907368Y-100704789D02*
X193907368Y-99549089D01*
X194787902Y-100649756D02*
X194953002Y-100704789D01*
X194953002Y-100704789D02*
X195228169Y-100704789D01*
X195228169Y-100704789D02*
X195338235Y-100649756D01*
X195338235Y-100649756D02*
X195393269Y-100594722D01*
X195393269Y-100594722D02*
X195448302Y-100484656D01*
X195448302Y-100484656D02*
X195448302Y-100374589D01*
X195448302Y-100374589D02*
X195393269Y-100264522D01*
X195393269Y-100264522D02*
X195338235Y-100209489D01*
X195338235Y-100209489D02*
X195228169Y-100154456D01*
X195228169Y-100154456D02*
X195008035Y-100099422D01*
X195008035Y-100099422D02*
X194897969Y-100044389D01*
X194897969Y-100044389D02*
X194842935Y-99989356D01*
X194842935Y-99989356D02*
X194787902Y-99879289D01*
X194787902Y-99879289D02*
X194787902Y-99769222D01*
X194787902Y-99769222D02*
X194842935Y-99659156D01*
X194842935Y-99659156D02*
X194897969Y-99604122D01*
X194897969Y-99604122D02*
X195008035Y-99549089D01*
X195008035Y-99549089D02*
X195283202Y-99549089D01*
X195283202Y-99549089D02*
X195448302Y-99604122D01*
X196604002Y-100704789D02*
X196218769Y-100154456D01*
X195943602Y-100704789D02*
X195943602Y-99549089D01*
X195943602Y-99549089D02*
X196383869Y-99549089D01*
X196383869Y-99549089D02*
X196493936Y-99604122D01*
X196493936Y-99604122D02*
X196548969Y-99659156D01*
X196548969Y-99659156D02*
X196604002Y-99769222D01*
X196604002Y-99769222D02*
X196604002Y-99934322D01*
X196604002Y-99934322D02*
X196548969Y-100044389D01*
X196548969Y-100044389D02*
X196493936Y-100099422D01*
X196493936Y-100099422D02*
X196383869Y-100154456D01*
X196383869Y-100154456D02*
X195943602Y-100154456D01*
X197704669Y-100704789D02*
X197044269Y-100704789D01*
X197374469Y-100704789D02*
X197374469Y-99549089D01*
X197374469Y-99549089D02*
X197264402Y-99714189D01*
X197264402Y-99714189D02*
X197154336Y-99824256D01*
X197154336Y-99824256D02*
X197044269Y-99879289D01*
D11*
X146404761Y-101550057D02*
X146309523Y-101502438D01*
X146309523Y-101502438D02*
X146214285Y-101407200D01*
X146214285Y-101407200D02*
X146071428Y-101264342D01*
X146071428Y-101264342D02*
X145976190Y-101216723D01*
X145976190Y-101216723D02*
X145880952Y-101216723D01*
X145928571Y-101454819D02*
X145833333Y-101407200D01*
X145833333Y-101407200D02*
X145738095Y-101311961D01*
X145738095Y-101311961D02*
X145690476Y-101121485D01*
X145690476Y-101121485D02*
X145690476Y-100788152D01*
X145690476Y-100788152D02*
X145738095Y-100597676D01*
X145738095Y-100597676D02*
X145833333Y-100502438D01*
X145833333Y-100502438D02*
X145928571Y-100454819D01*
X145928571Y-100454819D02*
X146119047Y-100454819D01*
X146119047Y-100454819D02*
X146214285Y-100502438D01*
X146214285Y-100502438D02*
X146309523Y-100597676D01*
X146309523Y-100597676D02*
X146357142Y-100788152D01*
X146357142Y-100788152D02*
X146357142Y-101121485D01*
X146357142Y-101121485D02*
X146309523Y-101311961D01*
X146309523Y-101311961D02*
X146214285Y-101407200D01*
X146214285Y-101407200D02*
X146119047Y-101454819D01*
X146119047Y-101454819D02*
X145928571Y-101454819D01*
X147309523Y-101454819D02*
X146738095Y-101454819D01*
X147023809Y-101454819D02*
X147023809Y-100454819D01*
X147023809Y-100454819D02*
X146928571Y-100597676D01*
X146928571Y-100597676D02*
X146833333Y-100692914D01*
X146833333Y-100692914D02*
X146738095Y-100740533D01*
D14*
%TO.C,R4*%
X111727064Y-99265000D02*
X111272936Y-99265000D01*
X111727064Y-100735000D02*
X111272936Y-100735000D01*
D15*
%TO.C,D1*%
X170616600Y-108974800D02*
X170616600Y-101034800D01*
X164712600Y-101034800D02*
X164712600Y-109604800D01*
D10*
%TO.C,LED2*%
X106400600Y-109710800D02*
G75*
G02*
X106400600Y-109810800I0J-50000D01*
G01*
X106400600Y-109810800D02*
G75*
G02*
X106400600Y-109710800I0J50000D01*
G01*
D16*
%TO.C,LSR2*%
X104048100Y-100241000D02*
G75*
G02*
X105841000Y-99165200I1792960J-956200D01*
G01*
D17*
X104621800Y-100282800D02*
G75*
G02*
X105841000Y-99673200I1219199J-914398D01*
G01*
D16*
X105841000Y-99165200D02*
G75*
G02*
X107402000Y-99896300I14J-2031997D01*
G01*
D17*
X105841000Y-99673200D02*
G75*
G02*
X107081100Y-100311399I-33J-1523999D01*
G01*
X105841000Y-102721200D02*
G75*
G02*
X104638000Y-102132800I8J1524000D01*
G01*
D16*
X105841000Y-103229200D02*
G75*
G02*
X104076700Y-102205400I-59J2031996D01*
G01*
D17*
X107044000Y-102132800D02*
G75*
G02*
X105841000Y-102721200I-1203008J935600D01*
G01*
D16*
X107392200Y-102509800D02*
G75*
G02*
X105841000Y-103229200I-1551164J1312603D01*
G01*
D10*
%TO.C,L2*%
X115314600Y-100815800D02*
X123494600Y-100815800D01*
X115314600Y-101905800D02*
X115314600Y-100815800D01*
X115314600Y-107905800D02*
X115314600Y-108995800D01*
X115314600Y-108995800D02*
X123494600Y-108995800D01*
X123494600Y-100815800D02*
X123494600Y-101905800D01*
X123494600Y-108995800D02*
X123494600Y-107905800D01*
D15*
%TO.C,IC1*%
X156569600Y-104540800D02*
X158094600Y-104540800D01*
%TO.C,D2*%
X132573043Y-108974800D02*
X132573043Y-101034800D01*
X126669043Y-101034800D02*
X126669043Y-109604800D01*
%TO.C,IC2*%
X133836600Y-104484800D02*
X135361600Y-104484800D01*
D14*
%TO.C,J1*%
X153830000Y-110830000D02*
X153830000Y-108170000D01*
X146150000Y-110830000D02*
X153830000Y-110830000D01*
X146150000Y-110830000D02*
X146150000Y-108170000D01*
X146150000Y-108170000D02*
X153830000Y-108170000D01*
X143550000Y-109500000D02*
X143550000Y-108170000D01*
X143550000Y-108170000D02*
X144880000Y-108170000D01*
%TO.C,R3*%
X185772936Y-100735000D02*
X186227064Y-100735000D01*
X185772936Y-99265000D02*
X186227064Y-99265000D01*
D10*
%TO.C,L1*%
X181914600Y-109071800D02*
X181914600Y-107981800D01*
X181914600Y-100891800D02*
X181914600Y-101981800D01*
X173734600Y-109071800D02*
X181914600Y-109071800D01*
X173734600Y-107981800D02*
X173734600Y-109071800D01*
X173734600Y-101981800D02*
X173734600Y-100891800D01*
X173734600Y-100891800D02*
X181914600Y-100891800D01*
%TO.C,LED1*%
X190808600Y-109456800D02*
G75*
G02*
X190808600Y-109556800I0J-50000D01*
G01*
X190808600Y-109556800D02*
G75*
G02*
X190808600Y-109456800I0J50000D01*
G01*
D16*
%TO.C,LSR1*%
X189817000Y-99884600D02*
G75*
G02*
X191368200Y-99165200I1551164J-1312603D01*
G01*
D17*
X190165200Y-100261600D02*
G75*
G02*
X191368200Y-99673200I1203008J-935600D01*
G01*
D16*
X191368200Y-99165200D02*
G75*
G02*
X193132500Y-100189000I59J-2031996D01*
G01*
D17*
X191368200Y-99673200D02*
G75*
G02*
X192571200Y-100261600I-8J-1524000D01*
G01*
X191368200Y-102721200D02*
G75*
G02*
X190128100Y-102083001I33J1523999D01*
G01*
D16*
X191368200Y-103229200D02*
G75*
G02*
X189807200Y-102498100I-14J2031997D01*
G01*
D17*
X192587400Y-102111600D02*
G75*
G02*
X191368200Y-102721200I-1219199J914398D01*
G01*
D16*
X193161100Y-102153400D02*
G75*
G02*
X191368200Y-103229200I-1792960J956200D01*
G01*
D14*
%TO.C,Q1*%
X149200000Y-99350000D02*
X149200000Y-100400000D01*
X149200000Y-102650000D02*
X149200000Y-101600000D01*
X151000000Y-99350000D02*
X149200000Y-99350000D01*
X151060000Y-102650000D02*
X149200000Y-102650000D01*
X151750000Y-102941676D02*
X151270000Y-102941676D01*
X151510000Y-102611676D01*
X151750000Y-102941676D01*
G36*
X151750000Y-102941676D02*
G01*
X151270000Y-102941676D01*
X151510000Y-102611676D01*
X151750000Y-102941676D01*
G37*
%TD*%
M02*
