%TF.GenerationSoftware,KiCad,Pcbnew,8.0.6*%
%TF.CreationDate,2024-10-30T16:29:04-06:00*%
%TF.ProjectId,Lightbar,4c696768-7462-4617-922e-6b696361645f,rev?*%
%TF.SameCoordinates,Original*%
%TF.FileFunction,Legend,Top*%
%TF.FilePolarity,Positive*%
%FSLAX46Y46*%
G04 Gerber Fmt 4.6, Leading zero omitted, Abs format (unit mm)*
G04 Created by KiCad (PCBNEW 8.0.6) date 2024-10-30 16:29:04*
%MOMM*%
%LPD*%
G01*
G04 APERTURE LIST*
%ADD10C,0.114300*%
%ADD11C,0.093472*%
%ADD12C,0.200000*%
%ADD13C,0.100000*%
%ADD14C,0.254000*%
%ADD15C,0.152400*%
G04 APERTURE END LIST*
D10*
X142195863Y-110196920D02*
X142581097Y-111352620D01*
X142581097Y-111352620D02*
X142966330Y-110196920D01*
X144011963Y-111242553D02*
X143956930Y-111297587D01*
X143956930Y-111297587D02*
X143791830Y-111352620D01*
X143791830Y-111352620D02*
X143681763Y-111352620D01*
X143681763Y-111352620D02*
X143516663Y-111297587D01*
X143516663Y-111297587D02*
X143406597Y-111187520D01*
X143406597Y-111187520D02*
X143351563Y-111077453D01*
X143351563Y-111077453D02*
X143296530Y-110857320D01*
X143296530Y-110857320D02*
X143296530Y-110692220D01*
X143296530Y-110692220D02*
X143351563Y-110472087D01*
X143351563Y-110472087D02*
X143406597Y-110362020D01*
X143406597Y-110362020D02*
X143516663Y-110251953D01*
X143516663Y-110251953D02*
X143681763Y-110196920D01*
X143681763Y-110196920D02*
X143791830Y-110196920D01*
X143791830Y-110196920D02*
X143956930Y-110251953D01*
X143956930Y-110251953D02*
X144011963Y-110306987D01*
X145167663Y-111242553D02*
X145112630Y-111297587D01*
X145112630Y-111297587D02*
X144947530Y-111352620D01*
X144947530Y-111352620D02*
X144837463Y-111352620D01*
X144837463Y-111352620D02*
X144672363Y-111297587D01*
X144672363Y-111297587D02*
X144562297Y-111187520D01*
X144562297Y-111187520D02*
X144507263Y-111077453D01*
X144507263Y-111077453D02*
X144452230Y-110857320D01*
X144452230Y-110857320D02*
X144452230Y-110692220D01*
X144452230Y-110692220D02*
X144507263Y-110472087D01*
X144507263Y-110472087D02*
X144562297Y-110362020D01*
X144562297Y-110362020D02*
X144672363Y-110251953D01*
X144672363Y-110251953D02*
X144837463Y-110196920D01*
X144837463Y-110196920D02*
X144947530Y-110196920D01*
X144947530Y-110196920D02*
X145112630Y-110251953D01*
X145112630Y-110251953D02*
X145167663Y-110306987D01*
X147639276Y-106591153D02*
X146483576Y-106591153D01*
X146483576Y-106591153D02*
X146483576Y-106150886D01*
X146483576Y-106150886D02*
X146538609Y-106040820D01*
X146538609Y-106040820D02*
X146593643Y-105985786D01*
X146593643Y-105985786D02*
X146703709Y-105930753D01*
X146703709Y-105930753D02*
X146868809Y-105930753D01*
X146868809Y-105930753D02*
X146978876Y-105985786D01*
X146978876Y-105985786D02*
X147033909Y-106040820D01*
X147033909Y-106040820D02*
X147088943Y-106150886D01*
X147088943Y-106150886D02*
X147088943Y-106591153D01*
X146483576Y-105545520D02*
X147639276Y-105270353D01*
X147639276Y-105270353D02*
X146813776Y-105050220D01*
X146813776Y-105050220D02*
X147639276Y-104830086D01*
X147639276Y-104830086D02*
X146483576Y-104554920D01*
X147639276Y-104114653D02*
X146483576Y-104114653D01*
X146483576Y-104114653D02*
X147309076Y-103729420D01*
X147309076Y-103729420D02*
X146483576Y-103344186D01*
X146483576Y-103344186D02*
X147639276Y-103344186D01*
X152599434Y-110251953D02*
X152489367Y-110196920D01*
X152489367Y-110196920D02*
X152324267Y-110196920D01*
X152324267Y-110196920D02*
X152159167Y-110251953D01*
X152159167Y-110251953D02*
X152049101Y-110362020D01*
X152049101Y-110362020D02*
X151994067Y-110472087D01*
X151994067Y-110472087D02*
X151939034Y-110692220D01*
X151939034Y-110692220D02*
X151939034Y-110857320D01*
X151939034Y-110857320D02*
X151994067Y-111077453D01*
X151994067Y-111077453D02*
X152049101Y-111187520D01*
X152049101Y-111187520D02*
X152159167Y-111297587D01*
X152159167Y-111297587D02*
X152324267Y-111352620D01*
X152324267Y-111352620D02*
X152434334Y-111352620D01*
X152434334Y-111352620D02*
X152599434Y-111297587D01*
X152599434Y-111297587D02*
X152654467Y-111242553D01*
X152654467Y-111242553D02*
X152654467Y-110857320D01*
X152654467Y-110857320D02*
X152434334Y-110857320D01*
X153149767Y-111352620D02*
X153149767Y-110196920D01*
X153149767Y-110196920D02*
X153810167Y-111352620D01*
X153810167Y-111352620D02*
X153810167Y-110196920D01*
X154360500Y-111352620D02*
X154360500Y-110196920D01*
X154360500Y-110196920D02*
X154635667Y-110196920D01*
X154635667Y-110196920D02*
X154800767Y-110251953D01*
X154800767Y-110251953D02*
X154910834Y-110362020D01*
X154910834Y-110362020D02*
X154965867Y-110472087D01*
X154965867Y-110472087D02*
X155020900Y-110692220D01*
X155020900Y-110692220D02*
X155020900Y-110857320D01*
X155020900Y-110857320D02*
X154965867Y-111077453D01*
X154965867Y-111077453D02*
X154910834Y-111187520D01*
X154910834Y-111187520D02*
X154800767Y-111297587D01*
X154800767Y-111297587D02*
X154635667Y-111352620D01*
X154635667Y-111352620D02*
X154360500Y-111352620D01*
X150852620Y-106099303D02*
X150852620Y-106649636D01*
X150852620Y-106649636D02*
X149696920Y-106649636D01*
X150797587Y-105769102D02*
X150852620Y-105604002D01*
X150852620Y-105604002D02*
X150852620Y-105328836D01*
X150852620Y-105328836D02*
X150797587Y-105218769D01*
X150797587Y-105218769D02*
X150742553Y-105163736D01*
X150742553Y-105163736D02*
X150632487Y-105108702D01*
X150632487Y-105108702D02*
X150522420Y-105108702D01*
X150522420Y-105108702D02*
X150412353Y-105163736D01*
X150412353Y-105163736D02*
X150357320Y-105218769D01*
X150357320Y-105218769D02*
X150302287Y-105328836D01*
X150302287Y-105328836D02*
X150247253Y-105548969D01*
X150247253Y-105548969D02*
X150192220Y-105659036D01*
X150192220Y-105659036D02*
X150137187Y-105714069D01*
X150137187Y-105714069D02*
X150027120Y-105769102D01*
X150027120Y-105769102D02*
X149917053Y-105769102D01*
X149917053Y-105769102D02*
X149806987Y-105714069D01*
X149806987Y-105714069D02*
X149751953Y-105659036D01*
X149751953Y-105659036D02*
X149696920Y-105548969D01*
X149696920Y-105548969D02*
X149696920Y-105273802D01*
X149696920Y-105273802D02*
X149751953Y-105108702D01*
X150852620Y-103953002D02*
X150302287Y-104338235D01*
X150852620Y-104613402D02*
X149696920Y-104613402D01*
X149696920Y-104613402D02*
X149696920Y-104173135D01*
X149696920Y-104173135D02*
X149751953Y-104063069D01*
X149751953Y-104063069D02*
X149806987Y-104008035D01*
X149806987Y-104008035D02*
X149917053Y-103953002D01*
X149917053Y-103953002D02*
X150082153Y-103953002D01*
X150082153Y-103953002D02*
X150192220Y-104008035D01*
X150192220Y-104008035D02*
X150247253Y-104063069D01*
X150247253Y-104063069D02*
X150302287Y-104173135D01*
X150302287Y-104173135D02*
X150302287Y-104613402D01*
D11*
X164131610Y-100539424D02*
X164131610Y-99362896D01*
X164131610Y-99362896D02*
X164411736Y-99362896D01*
X164411736Y-99362896D02*
X164579811Y-99418921D01*
X164579811Y-99418921D02*
X164691862Y-99530971D01*
X164691862Y-99530971D02*
X164747887Y-99643021D01*
X164747887Y-99643021D02*
X164803912Y-99867122D01*
X164803912Y-99867122D02*
X164803912Y-100035197D01*
X164803912Y-100035197D02*
X164747887Y-100259298D01*
X164747887Y-100259298D02*
X164691862Y-100371348D01*
X164691862Y-100371348D02*
X164579811Y-100483399D01*
X164579811Y-100483399D02*
X164411736Y-100539424D01*
X164411736Y-100539424D02*
X164131610Y-100539424D01*
X165924415Y-100539424D02*
X165252113Y-100539424D01*
X165588264Y-100539424D02*
X165588264Y-99362896D01*
X165588264Y-99362896D02*
X165476214Y-99530971D01*
X165476214Y-99530971D02*
X165364163Y-99643021D01*
X165364163Y-99643021D02*
X165252113Y-99699047D01*
X154851155Y-100486078D02*
X154290903Y-100878254D01*
X154851155Y-101158380D02*
X153674627Y-101158380D01*
X153674627Y-101158380D02*
X153674627Y-100710179D01*
X153674627Y-100710179D02*
X153730652Y-100598128D01*
X153730652Y-100598128D02*
X153786677Y-100542103D01*
X153786677Y-100542103D02*
X153898727Y-100486078D01*
X153898727Y-100486078D02*
X154066803Y-100486078D01*
X154066803Y-100486078D02*
X154178853Y-100542103D01*
X154178853Y-100542103D02*
X154234878Y-100598128D01*
X154234878Y-100598128D02*
X154290903Y-100710179D01*
X154290903Y-100710179D02*
X154290903Y-101158380D01*
X154851155Y-99365575D02*
X154851155Y-100037877D01*
X154851155Y-99701726D02*
X153674627Y-99701726D01*
X153674627Y-99701726D02*
X153842702Y-99813776D01*
X153842702Y-99813776D02*
X153954752Y-99925827D01*
X153954752Y-99925827D02*
X154010778Y-100037877D01*
X100183409Y-110539424D02*
X99623157Y-110539424D01*
X99623157Y-110539424D02*
X99623157Y-109362896D01*
X100575584Y-109923147D02*
X100967760Y-109923147D01*
X101135836Y-110539424D02*
X100575584Y-110539424D01*
X100575584Y-110539424D02*
X100575584Y-109362896D01*
X100575584Y-109362896D02*
X101135836Y-109362896D01*
X101640062Y-110539424D02*
X101640062Y-109362896D01*
X101640062Y-109362896D02*
X101920188Y-109362896D01*
X101920188Y-109362896D02*
X102088263Y-109418921D01*
X102088263Y-109418921D02*
X102200314Y-109530971D01*
X102200314Y-109530971D02*
X102256339Y-109643021D01*
X102256339Y-109643021D02*
X102312364Y-109867122D01*
X102312364Y-109867122D02*
X102312364Y-110035197D01*
X102312364Y-110035197D02*
X102256339Y-110259298D01*
X102256339Y-110259298D02*
X102200314Y-110371348D01*
X102200314Y-110371348D02*
X102088263Y-110483399D01*
X102088263Y-110483399D02*
X101920188Y-110539424D01*
X101920188Y-110539424D02*
X101640062Y-110539424D01*
X102760565Y-109474946D02*
X102816590Y-109418921D01*
X102816590Y-109418921D02*
X102928641Y-109362896D01*
X102928641Y-109362896D02*
X103208766Y-109362896D01*
X103208766Y-109362896D02*
X103320817Y-109418921D01*
X103320817Y-109418921D02*
X103376842Y-109474946D01*
X103376842Y-109474946D02*
X103432867Y-109586996D01*
X103432867Y-109586996D02*
X103432867Y-109699047D01*
X103432867Y-109699047D02*
X103376842Y-109867122D01*
X103376842Y-109867122D02*
X102704540Y-110539424D01*
X102704540Y-110539424D02*
X103432867Y-110539424D01*
D10*
X99900697Y-100541820D02*
X99350363Y-100541820D01*
X99350363Y-100541820D02*
X99350363Y-99386120D01*
X100230897Y-100486787D02*
X100395997Y-100541820D01*
X100395997Y-100541820D02*
X100671164Y-100541820D01*
X100671164Y-100541820D02*
X100781230Y-100486787D01*
X100781230Y-100486787D02*
X100836264Y-100431753D01*
X100836264Y-100431753D02*
X100891297Y-100321687D01*
X100891297Y-100321687D02*
X100891297Y-100211620D01*
X100891297Y-100211620D02*
X100836264Y-100101553D01*
X100836264Y-100101553D02*
X100781230Y-100046520D01*
X100781230Y-100046520D02*
X100671164Y-99991487D01*
X100671164Y-99991487D02*
X100451030Y-99936453D01*
X100451030Y-99936453D02*
X100340964Y-99881420D01*
X100340964Y-99881420D02*
X100285930Y-99826387D01*
X100285930Y-99826387D02*
X100230897Y-99716320D01*
X100230897Y-99716320D02*
X100230897Y-99606253D01*
X100230897Y-99606253D02*
X100285930Y-99496187D01*
X100285930Y-99496187D02*
X100340964Y-99441153D01*
X100340964Y-99441153D02*
X100451030Y-99386120D01*
X100451030Y-99386120D02*
X100726197Y-99386120D01*
X100726197Y-99386120D02*
X100891297Y-99441153D01*
X102046997Y-100541820D02*
X101661764Y-99991487D01*
X101386597Y-100541820D02*
X101386597Y-99386120D01*
X101386597Y-99386120D02*
X101826864Y-99386120D01*
X101826864Y-99386120D02*
X101936931Y-99441153D01*
X101936931Y-99441153D02*
X101991964Y-99496187D01*
X101991964Y-99496187D02*
X102046997Y-99606253D01*
X102046997Y-99606253D02*
X102046997Y-99771353D01*
X102046997Y-99771353D02*
X101991964Y-99881420D01*
X101991964Y-99881420D02*
X101936931Y-99936453D01*
X101936931Y-99936453D02*
X101826864Y-99991487D01*
X101826864Y-99991487D02*
X101386597Y-99991487D01*
X102487264Y-99496187D02*
X102542297Y-99441153D01*
X102542297Y-99441153D02*
X102652364Y-99386120D01*
X102652364Y-99386120D02*
X102927531Y-99386120D01*
X102927531Y-99386120D02*
X103037597Y-99441153D01*
X103037597Y-99441153D02*
X103092631Y-99496187D01*
X103092631Y-99496187D02*
X103147664Y-99606253D01*
X103147664Y-99606253D02*
X103147664Y-99716320D01*
X103147664Y-99716320D02*
X103092631Y-99881420D01*
X103092631Y-99881420D02*
X102432231Y-100541820D01*
X102432231Y-100541820D02*
X103147664Y-100541820D01*
D11*
X185181502Y-104583441D02*
X185125477Y-104639467D01*
X185125477Y-104639467D02*
X184957401Y-104695492D01*
X184957401Y-104695492D02*
X184845351Y-104695492D01*
X184845351Y-104695492D02*
X184677276Y-104639467D01*
X184677276Y-104639467D02*
X184565225Y-104527416D01*
X184565225Y-104527416D02*
X184509200Y-104415366D01*
X184509200Y-104415366D02*
X184453175Y-104191265D01*
X184453175Y-104191265D02*
X184453175Y-104023190D01*
X184453175Y-104023190D02*
X184509200Y-103799089D01*
X184509200Y-103799089D02*
X184565225Y-103687039D01*
X184565225Y-103687039D02*
X184677276Y-103574989D01*
X184677276Y-103574989D02*
X184845351Y-103518964D01*
X184845351Y-103518964D02*
X184957401Y-103518964D01*
X184957401Y-103518964D02*
X185125477Y-103574989D01*
X185125477Y-103574989D02*
X185181502Y-103631014D01*
X185629703Y-103631014D02*
X185685728Y-103574989D01*
X185685728Y-103574989D02*
X185797779Y-103518964D01*
X185797779Y-103518964D02*
X186077904Y-103518964D01*
X186077904Y-103518964D02*
X186189955Y-103574989D01*
X186189955Y-103574989D02*
X186245980Y-103631014D01*
X186245980Y-103631014D02*
X186302005Y-103743064D01*
X186302005Y-103743064D02*
X186302005Y-103855115D01*
X186302005Y-103855115D02*
X186245980Y-104023190D01*
X186245980Y-104023190D02*
X185573678Y-104695492D01*
X185573678Y-104695492D02*
X186302005Y-104695492D01*
X158513921Y-100739104D02*
X158457896Y-100795130D01*
X158457896Y-100795130D02*
X158289820Y-100851155D01*
X158289820Y-100851155D02*
X158177770Y-100851155D01*
X158177770Y-100851155D02*
X158009695Y-100795130D01*
X158009695Y-100795130D02*
X157897644Y-100683079D01*
X157897644Y-100683079D02*
X157841619Y-100571029D01*
X157841619Y-100571029D02*
X157785594Y-100346928D01*
X157785594Y-100346928D02*
X157785594Y-100178853D01*
X157785594Y-100178853D02*
X157841619Y-99954752D01*
X157841619Y-99954752D02*
X157897644Y-99842702D01*
X157897644Y-99842702D02*
X158009695Y-99730652D01*
X158009695Y-99730652D02*
X158177770Y-99674627D01*
X158177770Y-99674627D02*
X158289820Y-99674627D01*
X158289820Y-99674627D02*
X158457896Y-99730652D01*
X158457896Y-99730652D02*
X158513921Y-99786677D01*
X159634424Y-100851155D02*
X158962122Y-100851155D01*
X159298273Y-100851155D02*
X159298273Y-99674627D01*
X159298273Y-99674627D02*
X159186223Y-99842702D01*
X159186223Y-99842702D02*
X159074172Y-99954752D01*
X159074172Y-99954752D02*
X158962122Y-100010778D01*
X113803912Y-101539424D02*
X113243660Y-101539424D01*
X113243660Y-101539424D02*
X113243660Y-100362896D01*
X114140062Y-100474946D02*
X114196087Y-100418921D01*
X114196087Y-100418921D02*
X114308138Y-100362896D01*
X114308138Y-100362896D02*
X114588263Y-100362896D01*
X114588263Y-100362896D02*
X114700314Y-100418921D01*
X114700314Y-100418921D02*
X114756339Y-100474946D01*
X114756339Y-100474946D02*
X114812364Y-100586996D01*
X114812364Y-100586996D02*
X114812364Y-100699047D01*
X114812364Y-100699047D02*
X114756339Y-100867122D01*
X114756339Y-100867122D02*
X114084037Y-101539424D01*
X114084037Y-101539424D02*
X114812364Y-101539424D01*
X158823829Y-111073027D02*
X158823829Y-109896499D01*
X160056382Y-110960976D02*
X160000357Y-111017002D01*
X160000357Y-111017002D02*
X159832281Y-111073027D01*
X159832281Y-111073027D02*
X159720231Y-111073027D01*
X159720231Y-111073027D02*
X159552156Y-111017002D01*
X159552156Y-111017002D02*
X159440105Y-110904951D01*
X159440105Y-110904951D02*
X159384080Y-110792901D01*
X159384080Y-110792901D02*
X159328055Y-110568800D01*
X159328055Y-110568800D02*
X159328055Y-110400725D01*
X159328055Y-110400725D02*
X159384080Y-110176624D01*
X159384080Y-110176624D02*
X159440105Y-110064574D01*
X159440105Y-110064574D02*
X159552156Y-109952524D01*
X159552156Y-109952524D02*
X159720231Y-109896499D01*
X159720231Y-109896499D02*
X159832281Y-109896499D01*
X159832281Y-109896499D02*
X160000357Y-109952524D01*
X160000357Y-109952524D02*
X160056382Y-110008549D01*
X161176885Y-111073027D02*
X160504583Y-111073027D01*
X160840734Y-111073027D02*
X160840734Y-109896499D01*
X160840734Y-109896499D02*
X160728684Y-110064574D01*
X160728684Y-110064574D02*
X160616633Y-110176624D01*
X160616633Y-110176624D02*
X160504583Y-110232650D01*
X111593676Y-104057383D02*
X111537651Y-104113409D01*
X111537651Y-104113409D02*
X111369575Y-104169434D01*
X111369575Y-104169434D02*
X111257525Y-104169434D01*
X111257525Y-104169434D02*
X111089450Y-104113409D01*
X111089450Y-104113409D02*
X110977399Y-104001358D01*
X110977399Y-104001358D02*
X110921374Y-103889308D01*
X110921374Y-103889308D02*
X110865349Y-103665207D01*
X110865349Y-103665207D02*
X110865349Y-103497132D01*
X110865349Y-103497132D02*
X110921374Y-103273031D01*
X110921374Y-103273031D02*
X110977399Y-103160981D01*
X110977399Y-103160981D02*
X111089450Y-103048931D01*
X111089450Y-103048931D02*
X111257525Y-102992906D01*
X111257525Y-102992906D02*
X111369575Y-102992906D01*
X111369575Y-102992906D02*
X111537651Y-103048931D01*
X111537651Y-103048931D02*
X111593676Y-103104956D01*
X112602129Y-103385082D02*
X112602129Y-104169434D01*
X112322003Y-102936881D02*
X112041877Y-103777258D01*
X112041877Y-103777258D02*
X112770204Y-103777258D01*
X131631610Y-100689781D02*
X131631610Y-99513253D01*
X131631610Y-99513253D02*
X131911736Y-99513253D01*
X131911736Y-99513253D02*
X132079811Y-99569278D01*
X132079811Y-99569278D02*
X132191862Y-99681328D01*
X132191862Y-99681328D02*
X132247887Y-99793378D01*
X132247887Y-99793378D02*
X132303912Y-100017479D01*
X132303912Y-100017479D02*
X132303912Y-100185554D01*
X132303912Y-100185554D02*
X132247887Y-100409655D01*
X132247887Y-100409655D02*
X132191862Y-100521705D01*
X132191862Y-100521705D02*
X132079811Y-100633756D01*
X132079811Y-100633756D02*
X131911736Y-100689781D01*
X131911736Y-100689781D02*
X131631610Y-100689781D01*
X132752113Y-99625303D02*
X132808138Y-99569278D01*
X132808138Y-99569278D02*
X132920189Y-99513253D01*
X132920189Y-99513253D02*
X133200314Y-99513253D01*
X133200314Y-99513253D02*
X133312365Y-99569278D01*
X133312365Y-99569278D02*
X133368390Y-99625303D01*
X133368390Y-99625303D02*
X133424415Y-99737353D01*
X133424415Y-99737353D02*
X133424415Y-99849404D01*
X133424415Y-99849404D02*
X133368390Y-100017479D01*
X133368390Y-100017479D02*
X132696088Y-100689781D01*
X132696088Y-100689781D02*
X133424415Y-100689781D01*
X136167640Y-110965580D02*
X136167640Y-109789052D01*
X137400193Y-110853529D02*
X137344168Y-110909555D01*
X137344168Y-110909555D02*
X137176092Y-110965580D01*
X137176092Y-110965580D02*
X137064042Y-110965580D01*
X137064042Y-110965580D02*
X136895967Y-110909555D01*
X136895967Y-110909555D02*
X136783916Y-110797504D01*
X136783916Y-110797504D02*
X136727891Y-110685454D01*
X136727891Y-110685454D02*
X136671866Y-110461353D01*
X136671866Y-110461353D02*
X136671866Y-110293278D01*
X136671866Y-110293278D02*
X136727891Y-110069177D01*
X136727891Y-110069177D02*
X136783916Y-109957127D01*
X136783916Y-109957127D02*
X136895967Y-109845077D01*
X136895967Y-109845077D02*
X137064042Y-109789052D01*
X137064042Y-109789052D02*
X137176092Y-109789052D01*
X137176092Y-109789052D02*
X137344168Y-109845077D01*
X137344168Y-109845077D02*
X137400193Y-109901102D01*
X137848394Y-109901102D02*
X137904419Y-109845077D01*
X137904419Y-109845077D02*
X138016470Y-109789052D01*
X138016470Y-109789052D02*
X138296595Y-109789052D01*
X138296595Y-109789052D02*
X138408646Y-109845077D01*
X138408646Y-109845077D02*
X138464671Y-109901102D01*
X138464671Y-109901102D02*
X138520696Y-110013152D01*
X138520696Y-110013152D02*
X138520696Y-110125203D01*
X138520696Y-110125203D02*
X138464671Y-110293278D01*
X138464671Y-110293278D02*
X137792369Y-110965580D01*
X137792369Y-110965580D02*
X138520696Y-110965580D01*
X138535021Y-99959042D02*
X138478996Y-100015068D01*
X138478996Y-100015068D02*
X138310920Y-100071093D01*
X138310920Y-100071093D02*
X138198870Y-100071093D01*
X138198870Y-100071093D02*
X138030795Y-100015068D01*
X138030795Y-100015068D02*
X137918744Y-99903017D01*
X137918744Y-99903017D02*
X137862719Y-99790967D01*
X137862719Y-99790967D02*
X137806694Y-99566866D01*
X137806694Y-99566866D02*
X137806694Y-99398791D01*
X137806694Y-99398791D02*
X137862719Y-99174690D01*
X137862719Y-99174690D02*
X137918744Y-99062640D01*
X137918744Y-99062640D02*
X138030795Y-98950590D01*
X138030795Y-98950590D02*
X138198870Y-98894565D01*
X138198870Y-98894565D02*
X138310920Y-98894565D01*
X138310920Y-98894565D02*
X138478996Y-98950590D01*
X138478996Y-98950590D02*
X138535021Y-99006615D01*
X138927197Y-98894565D02*
X139655524Y-98894565D01*
X139655524Y-98894565D02*
X139263348Y-99342766D01*
X139263348Y-99342766D02*
X139431423Y-99342766D01*
X139431423Y-99342766D02*
X139543474Y-99398791D01*
X139543474Y-99398791D02*
X139599499Y-99454816D01*
X139599499Y-99454816D02*
X139655524Y-99566866D01*
X139655524Y-99566866D02*
X139655524Y-99846992D01*
X139655524Y-99846992D02*
X139599499Y-99959042D01*
X139599499Y-99959042D02*
X139543474Y-100015068D01*
X139543474Y-100015068D02*
X139431423Y-100071093D01*
X139431423Y-100071093D02*
X139095272Y-100071093D01*
X139095272Y-100071093D02*
X138983222Y-100015068D01*
X138983222Y-100015068D02*
X138927197Y-99959042D01*
X143351155Y-100486078D02*
X142790903Y-100878254D01*
X143351155Y-101158380D02*
X142174627Y-101158380D01*
X142174627Y-101158380D02*
X142174627Y-100710179D01*
X142174627Y-100710179D02*
X142230652Y-100598128D01*
X142230652Y-100598128D02*
X142286677Y-100542103D01*
X142286677Y-100542103D02*
X142398727Y-100486078D01*
X142398727Y-100486078D02*
X142566803Y-100486078D01*
X142566803Y-100486078D02*
X142678853Y-100542103D01*
X142678853Y-100542103D02*
X142734878Y-100598128D01*
X142734878Y-100598128D02*
X142790903Y-100710179D01*
X142790903Y-100710179D02*
X142790903Y-101158380D01*
X142286677Y-100037877D02*
X142230652Y-99981852D01*
X142230652Y-99981852D02*
X142174627Y-99869802D01*
X142174627Y-99869802D02*
X142174627Y-99589676D01*
X142174627Y-99589676D02*
X142230652Y-99477626D01*
X142230652Y-99477626D02*
X142286677Y-99421600D01*
X142286677Y-99421600D02*
X142398727Y-99365575D01*
X142398727Y-99365575D02*
X142510778Y-99365575D01*
X142510778Y-99365575D02*
X142678853Y-99421600D01*
X142678853Y-99421600D02*
X143351155Y-100093902D01*
X143351155Y-100093902D02*
X143351155Y-99365575D01*
X182962512Y-101076224D02*
X182402260Y-101076224D01*
X182402260Y-101076224D02*
X182402260Y-99899696D01*
X183970964Y-101076224D02*
X183298662Y-101076224D01*
X183634813Y-101076224D02*
X183634813Y-99899696D01*
X183634813Y-99899696D02*
X183522763Y-100067771D01*
X183522763Y-100067771D02*
X183410712Y-100179821D01*
X183410712Y-100179821D02*
X183298662Y-100235847D01*
X194683409Y-110539424D02*
X194123157Y-110539424D01*
X194123157Y-110539424D02*
X194123157Y-109362896D01*
X195075584Y-109923147D02*
X195467760Y-109923147D01*
X195635836Y-110539424D02*
X195075584Y-110539424D01*
X195075584Y-110539424D02*
X195075584Y-109362896D01*
X195075584Y-109362896D02*
X195635836Y-109362896D01*
X196140062Y-110539424D02*
X196140062Y-109362896D01*
X196140062Y-109362896D02*
X196420188Y-109362896D01*
X196420188Y-109362896D02*
X196588263Y-109418921D01*
X196588263Y-109418921D02*
X196700314Y-109530971D01*
X196700314Y-109530971D02*
X196756339Y-109643021D01*
X196756339Y-109643021D02*
X196812364Y-109867122D01*
X196812364Y-109867122D02*
X196812364Y-110035197D01*
X196812364Y-110035197D02*
X196756339Y-110259298D01*
X196756339Y-110259298D02*
X196700314Y-110371348D01*
X196700314Y-110371348D02*
X196588263Y-110483399D01*
X196588263Y-110483399D02*
X196420188Y-110539424D01*
X196420188Y-110539424D02*
X196140062Y-110539424D01*
X197932867Y-110539424D02*
X197260565Y-110539424D01*
X197596716Y-110539424D02*
X197596716Y-109362896D01*
X197596716Y-109362896D02*
X197484666Y-109530971D01*
X197484666Y-109530971D02*
X197372615Y-109643021D01*
X197372615Y-109643021D02*
X197260565Y-109699047D01*
D10*
X194457702Y-100704789D02*
X193907368Y-100704789D01*
X193907368Y-100704789D02*
X193907368Y-99549089D01*
X194787902Y-100649756D02*
X194953002Y-100704789D01*
X194953002Y-100704789D02*
X195228169Y-100704789D01*
X195228169Y-100704789D02*
X195338235Y-100649756D01*
X195338235Y-100649756D02*
X195393269Y-100594722D01*
X195393269Y-100594722D02*
X195448302Y-100484656D01*
X195448302Y-100484656D02*
X195448302Y-100374589D01*
X195448302Y-100374589D02*
X195393269Y-100264522D01*
X195393269Y-100264522D02*
X195338235Y-100209489D01*
X195338235Y-100209489D02*
X195228169Y-100154456D01*
X195228169Y-100154456D02*
X195008035Y-100099422D01*
X195008035Y-100099422D02*
X194897969Y-100044389D01*
X194897969Y-100044389D02*
X194842935Y-99989356D01*
X194842935Y-99989356D02*
X194787902Y-99879289D01*
X194787902Y-99879289D02*
X194787902Y-99769222D01*
X194787902Y-99769222D02*
X194842935Y-99659156D01*
X194842935Y-99659156D02*
X194897969Y-99604122D01*
X194897969Y-99604122D02*
X195008035Y-99549089D01*
X195008035Y-99549089D02*
X195283202Y-99549089D01*
X195283202Y-99549089D02*
X195448302Y-99604122D01*
X196604002Y-100704789D02*
X196218769Y-100154456D01*
X195943602Y-100704789D02*
X195943602Y-99549089D01*
X195943602Y-99549089D02*
X196383869Y-99549089D01*
X196383869Y-99549089D02*
X196493936Y-99604122D01*
X196493936Y-99604122D02*
X196548969Y-99659156D01*
X196548969Y-99659156D02*
X196604002Y-99769222D01*
X196604002Y-99769222D02*
X196604002Y-99934322D01*
X196604002Y-99934322D02*
X196548969Y-100044389D01*
X196548969Y-100044389D02*
X196493936Y-100099422D01*
X196493936Y-100099422D02*
X196383869Y-100154456D01*
X196383869Y-100154456D02*
X195943602Y-100154456D01*
X197704669Y-100704789D02*
X197044269Y-100704789D01*
X197374469Y-100704789D02*
X197374469Y-99549089D01*
X197374469Y-99549089D02*
X197264402Y-99714189D01*
X197264402Y-99714189D02*
X197154336Y-99824256D01*
X197154336Y-99824256D02*
X197044269Y-99879289D01*
D12*
%TO.C,D1*%
X164712600Y-101034800D02*
X164712600Y-109604800D01*
X170616600Y-108974800D02*
X170616600Y-101034800D01*
D13*
%TO.C,LED2*%
X106400600Y-109710800D02*
G75*
G02*
X106400600Y-109810800I0J-50000D01*
G01*
X106400600Y-109810800D02*
G75*
G02*
X106400600Y-109710800I0J50000D01*
G01*
D14*
%TO.C,LSR2*%
X104048100Y-100241000D02*
G75*
G02*
X105841000Y-99165200I1792960J-956200D01*
G01*
D15*
X104621800Y-100282800D02*
G75*
G02*
X105841000Y-99673200I1219199J-914398D01*
G01*
D14*
X105841000Y-99165200D02*
G75*
G02*
X107402000Y-99896300I14J-2031997D01*
G01*
D15*
X105841000Y-99673200D02*
G75*
G02*
X107081100Y-100311399I-33J-1523999D01*
G01*
X105841000Y-102721200D02*
G75*
G02*
X104638000Y-102132800I8J1524000D01*
G01*
D14*
X105841000Y-103229200D02*
G75*
G02*
X104076700Y-102205400I-59J2031996D01*
G01*
D15*
X107044000Y-102132800D02*
G75*
G02*
X105841000Y-102721200I-1203008J935600D01*
G01*
D14*
X107392200Y-102509800D02*
G75*
G02*
X105841000Y-103229200I-1551164J1312603D01*
G01*
D13*
%TO.C,L2*%
X115314600Y-100815800D02*
X123494600Y-100815800D01*
X115314600Y-101905800D02*
X115314600Y-100815800D01*
X115314600Y-107905800D02*
X115314600Y-108995800D01*
X115314600Y-108995800D02*
X123494600Y-108995800D01*
X123494600Y-100815800D02*
X123494600Y-101905800D01*
X123494600Y-108995800D02*
X123494600Y-107905800D01*
D12*
%TO.C,IC1*%
X156569600Y-104540800D02*
X158094600Y-104540800D01*
%TO.C,D2*%
X126669043Y-101034800D02*
X126669043Y-109604800D01*
X132573043Y-108974800D02*
X132573043Y-101034800D01*
%TO.C,IC2*%
X133836600Y-104484800D02*
X135361600Y-104484800D01*
D13*
%TO.C,L1*%
X173734600Y-100891800D02*
X181914600Y-100891800D01*
X173734600Y-101981800D02*
X173734600Y-100891800D01*
X173734600Y-107981800D02*
X173734600Y-109071800D01*
X173734600Y-109071800D02*
X181914600Y-109071800D01*
X181914600Y-100891800D02*
X181914600Y-101981800D01*
X181914600Y-109071800D02*
X181914600Y-107981800D01*
%TO.C,LED1*%
X190808600Y-109456800D02*
G75*
G02*
X190808600Y-109556800I0J-50000D01*
G01*
X190808600Y-109556800D02*
G75*
G02*
X190808600Y-109456800I0J50000D01*
G01*
D14*
%TO.C,LSR1*%
X189817000Y-99884600D02*
G75*
G02*
X191368200Y-99165200I1551164J-1312603D01*
G01*
D15*
X190165200Y-100261600D02*
G75*
G02*
X191368200Y-99673200I1203008J-935600D01*
G01*
D14*
X191368200Y-99165200D02*
G75*
G02*
X193132500Y-100189000I59J-2031996D01*
G01*
D15*
X191368200Y-99673200D02*
G75*
G02*
X192571200Y-100261600I-8J-1524000D01*
G01*
X191368200Y-102721200D02*
G75*
G02*
X190128100Y-102083001I33J1523999D01*
G01*
D14*
X191368200Y-103229200D02*
G75*
G02*
X189807200Y-102498100I-14J2031997D01*
G01*
D15*
X192587400Y-102111600D02*
G75*
G02*
X191368200Y-102721200I-1219199J914398D01*
G01*
D14*
X193161100Y-102153400D02*
G75*
G02*
X191368200Y-103229200I-1792960J956200D01*
G01*
%TD*%
M02*
