%TF.GenerationSoftware,KiCad,Pcbnew,8.0.6*%
%TF.CreationDate,2024-10-30T16:29:04-06:00*%
%TF.ProjectId,Lightbar,4c696768-7462-4617-922e-6b696361645f,rev?*%
%TF.SameCoordinates,Original*%
%TF.FileFunction,Copper,L1,Top*%
%TF.FilePolarity,Positive*%
%FSLAX46Y46*%
G04 Gerber Fmt 4.6, Leading zero omitted, Abs format (unit mm)*
G04 Created by KiCad (PCBNEW 8.0.6) date 2024-10-30 16:29:04*
%MOMM*%
%LPD*%
G01*
G04 APERTURE LIST*
G04 Aperture macros list*
%AMOutline5P*
0 Free polygon, 5 corners , with rotation*
0 The origin of the aperture is its center*
0 number of corners: always 5*
0 $1 to $10 corner X, Y*
0 $11 Rotation angle, in degrees counterclockwise*
0 create outline with 5 corners*
4,1,5,$1,$2,$3,$4,$5,$6,$7,$8,$9,$10,$1,$2,$11*%
%AMOutline6P*
0 Free polygon, 6 corners , with rotation*
0 The origin of the aperture is its center*
0 number of corners: always 6*
0 $1 to $12 corner X, Y*
0 $13 Rotation angle, in degrees counterclockwise*
0 create outline with 6 corners*
4,1,6,$1,$2,$3,$4,$5,$6,$7,$8,$9,$10,$11,$12,$1,$2,$13*%
%AMOutline7P*
0 Free polygon, 7 corners , with rotation*
0 The origin of the aperture is its center*
0 number of corners: always 7*
0 $1 to $14 corner X, Y*
0 $15 Rotation angle, in degrees counterclockwise*
0 create outline with 7 corners*
4,1,7,$1,$2,$3,$4,$5,$6,$7,$8,$9,$10,$11,$12,$13,$14,$1,$2,$15*%
%AMOutline8P*
0 Free polygon, 8 corners , with rotation*
0 The origin of the aperture is its center*
0 number of corners: always 8*
0 $1 to $16 corner X, Y*
0 $17 Rotation angle, in degrees counterclockwise*
0 create outline with 8 corners*
4,1,8,$1,$2,$3,$4,$5,$6,$7,$8,$9,$10,$11,$12,$13,$14,$15,$16,$1,$2,$17*%
G04 Aperture macros list end*
%TA.AperFunction,ComponentPad*%
%ADD10Outline8P,-1.079500X0.447144X-0.447144X1.079500X0.447144X1.079500X1.079500X0.447144X1.079500X-0.447144X0.447144X-1.079500X-0.447144X-1.079500X-1.079500X-0.447144X0.000000*%
%TD*%
%TA.AperFunction,SMDPad,CuDef*%
%ADD11R,3.150000X2.200000*%
%TD*%
%TA.AperFunction,SMDPad,CuDef*%
%ADD12R,1.500000X1.300000*%
%TD*%
%TA.AperFunction,SMDPad,CuDef*%
%ADD13R,4.980000X0.700000*%
%TD*%
%TA.AperFunction,SMDPad,CuDef*%
%ADD14R,4.980000X2.980000*%
%TD*%
%TA.AperFunction,ComponentPad*%
%ADD15Outline8P,-0.660400X0.273547X-0.273547X0.660400X0.273547X0.660400X0.660400X0.273547X0.660400X-0.273547X0.273547X-0.660400X-0.273547X-0.660400X-0.660400X-0.273547X0.000000*%
%TD*%
%TA.AperFunction,SMDPad,CuDef*%
%ADD16R,2.700000X1.600000*%
%TD*%
%TA.AperFunction,SMDPad,CuDef*%
%ADD17R,1.600000X2.700000*%
%TD*%
%TA.AperFunction,SMDPad,CuDef*%
%ADD18R,2.413000X5.334000*%
%TD*%
%TA.AperFunction,SMDPad,CuDef*%
%ADD19R,1.525000X0.650000*%
%TD*%
%TA.AperFunction,SMDPad,CuDef*%
%ADD20R,3.300000X2.410000*%
%TD*%
%TA.AperFunction,ComponentPad*%
%ADD21Outline8P,-0.660400X0.273547X-0.273547X0.660400X0.273547X0.660400X0.660400X0.273547X0.660400X-0.273547X0.273547X-0.660400X-0.273547X-0.660400X-0.660400X-0.273547X180.000000*%
%TD*%
%TA.AperFunction,ViaPad*%
%ADD22C,0.600000*%
%TD*%
%TA.AperFunction,ViaPad*%
%ADD23C,0.756400*%
%TD*%
%TA.AperFunction,Conductor*%
%ADD24C,0.762000*%
%TD*%
%TA.AperFunction,Conductor*%
%ADD25C,0.254000*%
%TD*%
%TA.AperFunction,Conductor*%
%ADD26C,0.152400*%
%TD*%
G04 APERTURE END LIST*
D10*
%TO.P,VCC,MP*%
%TO.N,N$4*%
X143788600Y-108525300D03*
%TD*%
%TO.P,PWM,MP*%
%TO.N,PWM1*%
X146963600Y-108525300D03*
%TD*%
%TO.P,GND,MP*%
%TO.N,GND*%
X153440600Y-108525300D03*
%TD*%
%TO.P,LSR,MP*%
%TO.N,N$10*%
X150138600Y-108525300D03*
%TD*%
D11*
%TO.P,D1,1*%
%TO.N,N$4*%
X167664600Y-108504800D03*
%TO.P,D1,2*%
%TO.N,N$5*%
X167664600Y-101504800D03*
%TD*%
D12*
%TO.P,R1,1*%
%TO.N,N$3*%
X154456600Y-104356800D03*
%TO.P,R1,2*%
%TO.N,N$4*%
X154456600Y-102456800D03*
%TD*%
D13*
%TO.P,LED2,1*%
%TO.N,N$8*%
X106400600Y-108950800D03*
%TO.P,LED2,2*%
%TO.N,N$9*%
X106400600Y-104670800D03*
D14*
%TO.P,LED2,3*%
%TO.N,GND*%
X106400600Y-106810800D03*
%TD*%
D15*
%TO.P,LSR2,A*%
%TO.N,N$10*%
X104571000Y-101197200D03*
%TO.P,LSR2,K*%
%TO.N,GND*%
X107111000Y-101197200D03*
%TD*%
D16*
%TO.P,C2,1*%
%TO.N,N$1*%
X185444600Y-108804800D03*
%TO.P,C2,2*%
%TO.N,N$3*%
X185444600Y-106004800D03*
%TD*%
D17*
%TO.P,C1,1*%
%TO.N,N$4*%
X157247600Y-102648800D03*
%TO.P,C1,2*%
%TO.N,GND*%
X160047600Y-102648800D03*
%TD*%
D18*
%TO.P,L2,1*%
%TO.N,N$7*%
X115785600Y-104905800D03*
%TO.P,L2,2*%
%TO.N,N$8*%
X123023600Y-104905800D03*
%TD*%
D19*
%TO.P,IC1,1*%
%TO.N,N$4*%
X157332600Y-105215800D03*
%TO.P,IC1,2*%
%TO.N,N$3*%
X157332600Y-106485800D03*
%TO.P,IC1,3*%
%TO.N,GND*%
X157332600Y-107755800D03*
%TO.P,IC1,4*%
%TO.N,PWM1*%
X157332600Y-109025800D03*
%TO.P,IC1,5*%
%TO.N,N$5*%
X162756600Y-109025800D03*
%TO.P,IC1,6*%
X162756600Y-107755800D03*
%TO.P,IC1,7*%
%TO.N,GND*%
X162756600Y-106485800D03*
%TO.P,IC1,8*%
X162756600Y-105215800D03*
D20*
%TO.P,IC1,9*%
X160044600Y-107120800D03*
%TD*%
D16*
%TO.P,C4,1*%
%TO.N,N$8*%
X111784600Y-108210800D03*
%TO.P,C4,2*%
%TO.N,N$9*%
X111784600Y-105410800D03*
%TD*%
D11*
%TO.P,D2,1*%
%TO.N,N$4*%
X129621043Y-108504800D03*
%TO.P,D2,2*%
%TO.N,N$7*%
X129621043Y-101504800D03*
%TD*%
D19*
%TO.P,IC2,1*%
%TO.N,N$4*%
X134599600Y-105159800D03*
%TO.P,IC2,2*%
%TO.N,N$9*%
X134599600Y-106429800D03*
%TO.P,IC2,3*%
%TO.N,GND*%
X134599600Y-107699800D03*
%TO.P,IC2,4*%
%TO.N,PWM1*%
X134599600Y-108969800D03*
%TO.P,IC2,5*%
%TO.N,N$7*%
X140023600Y-108969800D03*
%TO.P,IC2,6*%
X140023600Y-107699800D03*
%TO.P,IC2,7*%
%TO.N,GND*%
X140023600Y-106429800D03*
%TO.P,IC2,8*%
X140023600Y-105159800D03*
D20*
%TO.P,IC2,9*%
X137311600Y-107064800D03*
%TD*%
D17*
%TO.P,C3,1*%
%TO.N,N$4*%
X137308600Y-101759800D03*
%TO.P,C3,2*%
%TO.N,GND*%
X140108600Y-101759800D03*
%TD*%
D12*
%TO.P,R2,1*%
%TO.N,N$9*%
X142899600Y-104102800D03*
%TO.P,R2,2*%
%TO.N,N$4*%
X142899600Y-102202800D03*
%TD*%
D18*
%TO.P,L1,1*%
%TO.N,N$5*%
X174205600Y-104981800D03*
%TO.P,L1,2*%
%TO.N,N$1*%
X181443600Y-104981800D03*
%TD*%
D13*
%TO.P,LED1,1*%
%TO.N,N$1*%
X190808600Y-108696800D03*
%TO.P,LED1,2*%
%TO.N,N$3*%
X190808600Y-104416800D03*
D14*
%TO.P,LED1,3*%
%TO.N,GND*%
X190808600Y-106556800D03*
%TD*%
D21*
%TO.P,LSR1,A*%
%TO.N,N$10*%
X192638200Y-101197200D03*
%TO.P,LSR1,K*%
%TO.N,GND*%
X190098200Y-101197200D03*
%TD*%
D22*
%TO.N,GND*%
X107944220Y-107753447D03*
X106409799Y-107738255D03*
X104708262Y-107783832D03*
X104753839Y-105839219D03*
X106409799Y-105945565D03*
X107929027Y-105960757D03*
X107944220Y-106841910D03*
X104738647Y-106811525D03*
X106400600Y-106810800D03*
X138313041Y-107750670D03*
X136252294Y-107770603D03*
X136201579Y-106523018D03*
X138339436Y-106490210D03*
X137311600Y-107064800D03*
X159017134Y-107740250D03*
X160996682Y-107767367D03*
X159000000Y-106500000D03*
X161000000Y-106500000D03*
X189000000Y-107500000D03*
X190789882Y-107528392D03*
X192500000Y-107500000D03*
X192500000Y-105500000D03*
X190796784Y-105513019D03*
X189000000Y-105500000D03*
X189000000Y-106500000D03*
X192500000Y-106500000D03*
X190808600Y-106556800D03*
D23*
X133222200Y-107572800D03*
X164007000Y-105896400D03*
X142975800Y-105363000D03*
%TO.N,N$3*%
X155929800Y-104474000D03*
X183514200Y-104982000D03*
%TO.N,N$4*%
X167715400Y-103356400D03*
X163549800Y-101832400D03*
X132206200Y-109147600D03*
X145465000Y-104372400D03*
%TO.N,N$7*%
X129590000Y-106531400D03*
X141426400Y-106607600D03*
%TO.N,N$9*%
X141502600Y-104651800D03*
X114019800Y-104982000D03*
X133222200Y-105286800D03*
%TO.N,PWM1*%
X154278800Y-106252000D03*
X152026800Y-104000000D03*
X155421800Y-108233200D03*
X131977600Y-103381800D03*
X145642800Y-105439200D03*
%TO.N,N$10*%
X176046600Y-105591600D03*
X148563800Y-105312200D03*
D22*
%TO.N,GND*%
X160044600Y-107120800D03*
%TD*%
D24*
%TO.N,N$4*%
X145465000Y-104372400D02*
X145211000Y-104626400D01*
X145211000Y-104626400D02*
X144398200Y-104626400D01*
D25*
%TO.N,PWM1*%
X154278800Y-106252000D02*
X152026800Y-104000000D01*
D24*
%TO.N,N$5*%
X172135000Y-104829600D02*
X174065400Y-104829600D01*
X165096600Y-106432400D02*
X163803800Y-107725200D01*
X163803800Y-107725200D02*
X162787800Y-107725200D01*
X167664600Y-101504800D02*
X165096600Y-104072800D01*
D26*
X174065400Y-104829600D02*
X174205600Y-104981800D01*
D24*
X165096600Y-104072800D02*
X165096600Y-106432400D01*
X172135000Y-104829600D02*
X168810200Y-101504800D01*
D26*
X162787800Y-107725200D02*
X162756600Y-107755800D01*
D24*
X162787800Y-107877600D02*
X162787800Y-108944400D01*
D26*
X162787800Y-108944400D02*
X162756600Y-109025800D01*
X162787800Y-107877600D02*
X162756600Y-107755800D01*
D24*
X167664600Y-101504800D02*
X168810200Y-101504800D01*
%TO.N,GND*%
X141140856Y-100740200D02*
X140172781Y-101759800D01*
X153821600Y-107242600D02*
X147319200Y-100740200D01*
X155930400Y-107242600D02*
X153821600Y-107242600D01*
X153948600Y-107369600D02*
X153821600Y-107242600D01*
X162762400Y-103991400D02*
X162762400Y-105210000D01*
X140023600Y-106429800D02*
X140277600Y-106429800D01*
D26*
X162787800Y-105286800D02*
X162756600Y-105215800D01*
X153449837Y-108521838D02*
X153440600Y-108525300D01*
D24*
X140564881Y-105701082D02*
X140023600Y-106429800D01*
X142721800Y-105617000D02*
X141090400Y-105617000D01*
X140564881Y-105701082D02*
X140023600Y-105159800D01*
X133222200Y-107572800D02*
X134593800Y-107572800D01*
X141090400Y-105617000D02*
X140277600Y-106429800D01*
X162787800Y-105896400D02*
X162787800Y-106353600D01*
X162787800Y-105286800D02*
X162787800Y-105896400D01*
X147319200Y-100740200D02*
X141140856Y-100740200D01*
X157332600Y-107755800D02*
X156443600Y-107755800D01*
X161419800Y-102648800D02*
X160047600Y-102648800D01*
X142975800Y-105363000D02*
X142721800Y-105617000D01*
X140172781Y-101759800D02*
X140108600Y-101759800D01*
X153440600Y-108525300D02*
X153948600Y-108017300D01*
X134593800Y-107572800D02*
X134599600Y-107699800D01*
X161419800Y-102648800D02*
X162762400Y-103991400D01*
X153948600Y-108017300D02*
X153948600Y-107369600D01*
X156443600Y-107755800D02*
X155930400Y-107242600D01*
X162756600Y-105215800D02*
X162762400Y-105210000D01*
D26*
X162787800Y-106353600D02*
X162756600Y-106485800D01*
D24*
X164007000Y-105896400D02*
X162787800Y-105896400D01*
%TO.N,N$1*%
X185444600Y-108804800D02*
X190700600Y-108804800D01*
D26*
X190700600Y-108804800D02*
X190808600Y-108696800D01*
D24*
X182815800Y-108804800D02*
X181443600Y-107432600D01*
D26*
X181443600Y-104981800D02*
X181443600Y-107432600D01*
D24*
X182815800Y-108804800D02*
X185444600Y-108804800D01*
%TO.N,N$3*%
X157332600Y-106485800D02*
X157205600Y-106358800D01*
X157205600Y-106358800D02*
X156417600Y-106358800D01*
X184428600Y-104982000D02*
X183514200Y-104982000D01*
X155980600Y-106226600D02*
X154456600Y-104702600D01*
X156417600Y-106358800D02*
X155929800Y-105871000D01*
X185495400Y-105896400D02*
X186276712Y-105896400D01*
X186276712Y-105896400D02*
X187756312Y-104416800D01*
X185495400Y-105896400D02*
X185444600Y-106004800D01*
X155929800Y-105871000D02*
X155929800Y-104474000D01*
X157271428Y-106226600D02*
X155980600Y-106226600D01*
D26*
X157271428Y-106226600D02*
X157332600Y-106485800D01*
D24*
X187756312Y-104416800D02*
X190808600Y-104416800D01*
X154456600Y-104356800D02*
X154456600Y-104702600D01*
X185444600Y-106004800D02*
X185343000Y-105896400D01*
X185343000Y-105896400D02*
X184428600Y-104982000D01*
%TO.N,N$4*%
X132206200Y-109147600D02*
X131563400Y-108504800D01*
X157301400Y-102848400D02*
X157301400Y-105134400D01*
X157937000Y-100689400D02*
X157247600Y-101378800D01*
D26*
X157247600Y-102648800D02*
X157301400Y-102702600D01*
D24*
X134619200Y-104347000D02*
X134619200Y-105156404D01*
X157163296Y-102710297D02*
X154710096Y-102710297D01*
X137184600Y-101781600D02*
X134619200Y-104347000D01*
X134619200Y-105156404D02*
X134599600Y-105159800D01*
X144398200Y-106448850D02*
X144398200Y-104626400D01*
X142899600Y-102202800D02*
X142605400Y-102202800D01*
D26*
X157301400Y-102702600D02*
X157301400Y-102848400D01*
D24*
X143788600Y-106906050D02*
X143788600Y-108525300D01*
X141096200Y-103712000D02*
X137921200Y-103712000D01*
X167715400Y-103356400D02*
X167715400Y-108454000D01*
X142605400Y-102202800D02*
X141096200Y-103712000D01*
X144398200Y-103407200D02*
X143243068Y-102252069D01*
D26*
X157301400Y-105134400D02*
X157332600Y-105215800D01*
D24*
X167715400Y-108454000D02*
X167664600Y-108504800D01*
D26*
X157247600Y-102648800D02*
X157247600Y-101378800D01*
D24*
X143243068Y-102252069D02*
X143166868Y-102216069D01*
X137921200Y-103712000D02*
X137308600Y-103099400D01*
X129621043Y-108504800D02*
X131563400Y-108504800D01*
X137184600Y-101781600D02*
X137308600Y-101759800D01*
X144398200Y-104626400D02*
X144398200Y-103407200D01*
X143153600Y-102202800D02*
X142899600Y-102202800D01*
X143166868Y-102216069D02*
X143153600Y-102202800D01*
X144398200Y-106448850D02*
X143788600Y-106906050D01*
X154456600Y-102456800D02*
X154710096Y-102710297D01*
D26*
X157247600Y-102648800D02*
X157186103Y-102710297D01*
X157186103Y-102710297D02*
X157163296Y-102710297D01*
D24*
X162406800Y-100689400D02*
X157937000Y-100689400D01*
X162406800Y-100689400D02*
X163549800Y-101832400D01*
X137308600Y-101759800D02*
X137308600Y-103099400D01*
D26*
%TO.N,N$7*%
X140080200Y-107725200D02*
X140023600Y-107699800D01*
D24*
X141426400Y-106607600D02*
X141426400Y-106988600D01*
X129564600Y-101629200D02*
X120827000Y-101629200D01*
X129590000Y-101535844D02*
X129590000Y-106531400D01*
D26*
X129564600Y-101629200D02*
X129621043Y-101504800D01*
X115848600Y-104829600D02*
X115785600Y-104905800D01*
X129621043Y-101504800D02*
X129590000Y-101535844D01*
D24*
X120827000Y-101629200D02*
X117626600Y-104829600D01*
X140715200Y-107699800D02*
X140023600Y-107699800D01*
D26*
X140080200Y-108944400D02*
X140023600Y-108969800D01*
D24*
X141426400Y-106988600D02*
X140715200Y-107699800D01*
X117626600Y-104829600D02*
X115848600Y-104829600D01*
X140080200Y-107725200D02*
X140080200Y-108944400D01*
%TO.N,N$8*%
X106552200Y-108944400D02*
X109447800Y-108944400D01*
X117906000Y-108309400D02*
X111883200Y-108309400D01*
D26*
X106552200Y-108944400D02*
X106400600Y-108950800D01*
D24*
X111784600Y-108210800D02*
X111883200Y-108309400D01*
X109447800Y-108944400D02*
X110057400Y-108334800D01*
X110057400Y-108334800D02*
X111733800Y-108334800D01*
D26*
X123011400Y-104982000D02*
X123023600Y-104905800D01*
D24*
X117906000Y-108309400D02*
X121233400Y-104982000D01*
X121233400Y-104982000D02*
X123011400Y-104982000D01*
D26*
X111733800Y-108334800D02*
X111784600Y-108210800D01*
%TO.N,N$9*%
X111733800Y-105286800D02*
X111784600Y-105410800D01*
D24*
X109955800Y-104677200D02*
X110565400Y-105286800D01*
D26*
X134568209Y-106398410D02*
X134599600Y-106429800D01*
D24*
X134564800Y-106353600D02*
X133781000Y-106353600D01*
X112191000Y-104982000D02*
X114019800Y-104982000D01*
X142051600Y-104102800D02*
X141502600Y-104651800D01*
X133222200Y-105794800D02*
X133222200Y-105286800D01*
X106552200Y-104677200D02*
X109955800Y-104677200D01*
X111886200Y-105286800D02*
X111784600Y-105410800D01*
X133781000Y-106353600D02*
X133222200Y-105794800D01*
X142899600Y-104102800D02*
X142051600Y-104102800D01*
D26*
X134568209Y-106398410D02*
X134564800Y-106353600D01*
D24*
X111886200Y-105286800D02*
X112191000Y-104982000D01*
X110565400Y-105286800D02*
X111733800Y-105286800D01*
D26*
X106552200Y-104677200D02*
X106400600Y-104670800D01*
D25*
%TO.N,PWM1*%
X156133000Y-108944400D02*
X157301400Y-108944400D01*
X146963600Y-108030000D02*
X145642800Y-106709200D01*
D26*
X134593800Y-108944400D02*
X134599600Y-108969800D01*
D25*
X155421800Y-108233200D02*
X156133000Y-108944400D01*
X133298400Y-108944400D02*
X134593800Y-108944400D01*
X131977600Y-103381800D02*
X131977600Y-107623600D01*
X145642800Y-105439200D02*
X145642800Y-106709200D01*
X146963600Y-108030000D02*
X146963600Y-108525300D01*
X131977600Y-107623600D02*
X133298400Y-108944400D01*
X157301400Y-108944400D02*
X157332600Y-109025800D01*
%TO.N,N$10*%
X186867000Y-101629200D02*
X187730600Y-102492800D01*
X180009000Y-101629200D02*
X186867000Y-101629200D01*
X191368200Y-102467200D02*
X192638200Y-101197200D01*
X150138600Y-108525300D02*
X148563800Y-106950500D01*
X176046600Y-105591600D02*
X180009000Y-101629200D01*
X148563800Y-105312200D02*
X148563800Y-106950500D01*
X191368200Y-102467200D02*
X191368200Y-102492800D01*
X187730600Y-102492800D02*
X191368200Y-102492800D01*
%TD*%
%TA.AperFunction,Conductor*%
%TO.N,GND*%
G36*
X198437697Y-98083248D02*
G01*
X198472335Y-98097624D01*
X198486663Y-98132282D01*
X198486662Y-98132534D01*
X198464532Y-101927586D01*
X198449979Y-101962150D01*
X198415533Y-101976300D01*
X196479038Y-101976300D01*
X195464100Y-102991236D01*
X195464100Y-102991237D01*
X195464100Y-102991238D01*
X195464100Y-106991237D01*
X195464100Y-107012363D01*
X196471573Y-108019835D01*
X196478907Y-108027245D01*
X196478908Y-108027246D01*
X196479037Y-108027299D01*
X196479038Y-108027300D01*
X196489511Y-108027300D01*
X196489763Y-108027300D01*
X198431527Y-108037316D01*
X198466099Y-108051846D01*
X198480273Y-108086332D01*
X198478925Y-111943505D01*
X198464561Y-111978148D01*
X198429917Y-111992488D01*
X98564092Y-111976310D01*
X98529446Y-111961953D01*
X98515100Y-111927310D01*
X98515100Y-108076300D01*
X98529452Y-108041652D01*
X98564100Y-108027300D01*
X100500162Y-108027300D01*
X100500163Y-108027300D01*
X101515100Y-107012362D01*
X101515100Y-106991237D01*
X101515100Y-105296170D01*
X103660600Y-105296170D01*
X103660600Y-106685800D01*
X109140600Y-106685800D01*
X109140600Y-105307700D01*
X109154952Y-105273052D01*
X109189600Y-105258700D01*
X109694639Y-105258700D01*
X109729287Y-105273052D01*
X110098368Y-105642133D01*
X110098373Y-105642139D01*
X110100084Y-105643850D01*
X110208350Y-105752116D01*
X110209598Y-105752836D01*
X110210040Y-105753413D01*
X110210902Y-105754074D01*
X110210725Y-105754304D01*
X110232430Y-105782588D01*
X110234100Y-105795273D01*
X110234100Y-106230548D01*
X110245733Y-106289031D01*
X110252818Y-106299634D01*
X110290047Y-106355352D01*
X110298201Y-106360800D01*
X110356369Y-106399667D01*
X110414852Y-106411300D01*
X110414855Y-106411300D01*
X113154345Y-106411300D01*
X113154348Y-106411300D01*
X113212831Y-106399667D01*
X113279152Y-106355352D01*
X113323467Y-106289031D01*
X113335100Y-106230548D01*
X113335100Y-105612500D01*
X113349452Y-105577852D01*
X113384100Y-105563500D01*
X113999922Y-105563500D01*
X114006317Y-105563919D01*
X114007311Y-105564049D01*
X114019800Y-105565694D01*
X114032288Y-105564049D01*
X114033283Y-105563919D01*
X114039678Y-105563500D01*
X114096357Y-105563500D01*
X114107667Y-105560468D01*
X114151116Y-105548826D01*
X114157388Y-105547579D01*
X114170871Y-105545805D01*
X114183432Y-105540601D01*
X114189488Y-105538545D01*
X114244251Y-105523872D01*
X114293345Y-105495526D01*
X114299089Y-105492694D01*
X114303149Y-105491013D01*
X114310854Y-105487823D01*
X114348357Y-105487827D01*
X114374872Y-105514349D01*
X114378600Y-105533095D01*
X114378600Y-107592548D01*
X114380904Y-107604130D01*
X114390233Y-107651031D01*
X114390665Y-107651677D01*
X114390817Y-107652442D01*
X114392079Y-107655488D01*
X114391472Y-107655739D01*
X114397981Y-107688460D01*
X114377146Y-107719642D01*
X114349923Y-107727900D01*
X113384100Y-107727900D01*
X113349452Y-107713548D01*
X113335100Y-107678900D01*
X113335100Y-107391055D01*
X113335100Y-107391052D01*
X113323467Y-107332569D01*
X113286508Y-107277257D01*
X113279152Y-107266247D01*
X113227071Y-107231448D01*
X113212831Y-107221933D01*
X113154348Y-107210300D01*
X110414852Y-107210300D01*
X110359556Y-107221299D01*
X110356369Y-107221933D01*
X110290047Y-107266247D01*
X110260173Y-107310958D01*
X110245733Y-107332569D01*
X110234100Y-107391052D01*
X110234100Y-107391055D01*
X110234100Y-107704300D01*
X110219748Y-107738948D01*
X110185100Y-107753300D01*
X110136969Y-107753300D01*
X110136953Y-107753299D01*
X110133956Y-107753299D01*
X109980845Y-107753299D01*
X109980843Y-107753299D01*
X109923479Y-107768670D01*
X109894797Y-107776356D01*
X109832949Y-107792927D01*
X109832946Y-107792928D01*
X109700349Y-107869484D01*
X109700349Y-107869485D01*
X109224248Y-108345586D01*
X109189600Y-108359938D01*
X109154952Y-108345586D01*
X109140600Y-108310938D01*
X109140600Y-106935800D01*
X103660600Y-106935800D01*
X103660600Y-108325429D01*
X103675103Y-108398342D01*
X103721730Y-108468125D01*
X103729046Y-108504908D01*
X103723579Y-108518107D01*
X103723580Y-108518108D01*
X103722685Y-108520270D01*
X103721762Y-108522499D01*
X103721735Y-108522563D01*
X103721734Y-108522567D01*
X103721733Y-108522569D01*
X103710100Y-108581052D01*
X103710100Y-109320548D01*
X103721733Y-109379031D01*
X103726591Y-109386301D01*
X103766047Y-109445352D01*
X103777169Y-109452783D01*
X103832369Y-109489667D01*
X103890852Y-109501300D01*
X106377385Y-109501300D01*
X106390067Y-109502970D01*
X106475641Y-109525900D01*
X106475644Y-109525900D01*
X109368231Y-109525900D01*
X109368247Y-109525901D01*
X109371244Y-109525901D01*
X109524358Y-109525901D01*
X109575960Y-109512073D01*
X109672251Y-109486272D01*
X109676763Y-109483667D01*
X109804850Y-109409716D01*
X109913116Y-109301450D01*
X109913116Y-109301448D01*
X109917145Y-109297420D01*
X109917148Y-109297415D01*
X110160969Y-109053595D01*
X110195616Y-109039244D01*
X110230264Y-109053596D01*
X110243674Y-109078683D01*
X110245732Y-109089029D01*
X110245732Y-109089030D01*
X110245733Y-109089031D01*
X110253232Y-109100254D01*
X110290047Y-109155352D01*
X110308194Y-109167477D01*
X110356369Y-109199667D01*
X110414852Y-109211300D01*
X110414855Y-109211300D01*
X113154345Y-109211300D01*
X113154348Y-109211300D01*
X113212831Y-109199667D01*
X113279152Y-109155352D01*
X113323467Y-109089031D01*
X113335100Y-109030548D01*
X113335100Y-108939900D01*
X113349452Y-108905252D01*
X113384100Y-108890900D01*
X117826431Y-108890900D01*
X117826447Y-108890901D01*
X117829444Y-108890901D01*
X117982558Y-108890901D01*
X118130447Y-108851273D01*
X118130445Y-108851273D01*
X118130451Y-108851272D01*
X118189995Y-108816894D01*
X118263050Y-108774716D01*
X118371316Y-108666450D01*
X118371316Y-108666448D01*
X118375345Y-108662420D01*
X118375348Y-108662415D01*
X121459913Y-105577852D01*
X121494561Y-105563500D01*
X121567600Y-105563500D01*
X121602248Y-105577852D01*
X121616600Y-105612500D01*
X121616600Y-107592548D01*
X121628233Y-107651031D01*
X121631274Y-107655582D01*
X121672547Y-107717352D01*
X121688334Y-107727900D01*
X121738869Y-107761667D01*
X121797352Y-107773300D01*
X121797355Y-107773300D01*
X124249845Y-107773300D01*
X124249848Y-107773300D01*
X124308331Y-107761667D01*
X124374652Y-107717352D01*
X124418967Y-107651031D01*
X124430600Y-107592548D01*
X124430600Y-102259700D01*
X124444952Y-102225052D01*
X124479600Y-102210700D01*
X127796543Y-102210700D01*
X127831191Y-102225052D01*
X127845543Y-102259700D01*
X127845543Y-102624548D01*
X127857176Y-102683031D01*
X127874487Y-102708939D01*
X127901490Y-102749352D01*
X127914342Y-102757939D01*
X127967812Y-102793667D01*
X128026295Y-102805300D01*
X128959500Y-102805300D01*
X128994148Y-102819652D01*
X129008500Y-102854300D01*
X129008500Y-106511521D01*
X129008081Y-106517916D01*
X129006306Y-106531399D01*
X129008081Y-106544881D01*
X129008500Y-106551277D01*
X129008500Y-106607959D01*
X129023168Y-106662700D01*
X129024419Y-106668985D01*
X129026194Y-106682466D01*
X129026195Y-106682472D01*
X129031399Y-106695036D01*
X129033458Y-106701103D01*
X129048126Y-106755847D01*
X129048128Y-106755853D01*
X129076467Y-106804935D01*
X129079302Y-106810684D01*
X129084176Y-106822452D01*
X129084506Y-106823247D01*
X129090108Y-106830548D01*
X129092783Y-106834033D01*
X129096342Y-106839360D01*
X129112941Y-106868110D01*
X129124684Y-106888450D01*
X129164761Y-106928527D01*
X129168987Y-106933345D01*
X129177263Y-106944131D01*
X129177264Y-106944132D01*
X129177266Y-106944134D01*
X129188058Y-106952415D01*
X129192867Y-106956633D01*
X129232950Y-106996716D01*
X129232951Y-106996717D01*
X129232953Y-106996718D01*
X129238061Y-106999667D01*
X129282046Y-107025061D01*
X129287361Y-107028612D01*
X129298153Y-107036894D01*
X129310129Y-107041854D01*
X129310715Y-107042097D01*
X129316453Y-107044926D01*
X129351490Y-107065155D01*
X129365545Y-107073270D01*
X129365549Y-107073272D01*
X129420315Y-107087946D01*
X129426350Y-107089994D01*
X129438929Y-107095205D01*
X129452410Y-107096979D01*
X129458682Y-107098226D01*
X129489335Y-107106439D01*
X129495045Y-107107970D01*
X129524797Y-107130802D01*
X129529691Y-107167984D01*
X129506859Y-107197736D01*
X129482361Y-107204300D01*
X128026295Y-107204300D01*
X127982291Y-107213053D01*
X127967812Y-107215933D01*
X127901490Y-107260247D01*
X127867607Y-107310958D01*
X127857176Y-107326569D01*
X127845543Y-107385052D01*
X127845543Y-109624548D01*
X127857176Y-109683031D01*
X127872657Y-109706200D01*
X127901490Y-109749352D01*
X127928055Y-109767101D01*
X127967812Y-109793667D01*
X128026295Y-109805300D01*
X128026298Y-109805300D01*
X131215788Y-109805300D01*
X131215791Y-109805300D01*
X131274274Y-109793667D01*
X131340595Y-109749352D01*
X131384910Y-109683031D01*
X131396543Y-109624548D01*
X131396543Y-109278604D01*
X131410895Y-109243956D01*
X131445543Y-109229604D01*
X131480190Y-109243955D01*
X131636886Y-109400652D01*
X131780961Y-109544727D01*
X131785187Y-109549545D01*
X131793463Y-109560331D01*
X131793464Y-109560332D01*
X131793466Y-109560334D01*
X131804258Y-109568615D01*
X131809068Y-109572834D01*
X131849150Y-109612916D01*
X131898246Y-109641261D01*
X131903561Y-109644812D01*
X131914353Y-109653094D01*
X131926329Y-109658054D01*
X131926915Y-109658297D01*
X131932653Y-109661126D01*
X131981749Y-109689472D01*
X132036515Y-109704146D01*
X132042550Y-109706194D01*
X132055129Y-109711405D01*
X132068610Y-109713179D01*
X132074882Y-109714426D01*
X132118205Y-109726034D01*
X132129643Y-109729100D01*
X132129644Y-109729100D01*
X132186322Y-109729100D01*
X132192717Y-109729519D01*
X132193711Y-109729649D01*
X132206200Y-109731294D01*
X132218688Y-109729649D01*
X132219683Y-109729519D01*
X132226078Y-109729100D01*
X132282756Y-109729100D01*
X132294066Y-109726068D01*
X132337515Y-109714426D01*
X132343774Y-109713180D01*
X132357271Y-109711405D01*
X132369839Y-109706198D01*
X132375888Y-109704144D01*
X132430650Y-109689472D01*
X132479742Y-109661127D01*
X132485479Y-109658298D01*
X132498047Y-109653094D01*
X132508848Y-109644804D01*
X132514148Y-109641263D01*
X132563249Y-109612916D01*
X132603335Y-109572828D01*
X132608138Y-109568617D01*
X132618934Y-109560334D01*
X132627217Y-109549538D01*
X132631428Y-109544735D01*
X132671516Y-109504649D01*
X132699863Y-109455548D01*
X132703404Y-109450248D01*
X132711694Y-109439447D01*
X132716898Y-109426879D01*
X132719727Y-109421142D01*
X132748072Y-109372050D01*
X132762744Y-109317288D01*
X132764798Y-109311239D01*
X132770005Y-109298671D01*
X132771780Y-109285174D01*
X132773026Y-109278915D01*
X132787700Y-109224155D01*
X132787700Y-109167477D01*
X132788119Y-109161081D01*
X132788873Y-109155352D01*
X132789894Y-109147600D01*
X132788119Y-109134116D01*
X132787700Y-109127721D01*
X132787700Y-109071043D01*
X132784634Y-109059605D01*
X132773026Y-109016282D01*
X132771779Y-109010013D01*
X132771050Y-109004469D01*
X132780763Y-108968247D01*
X132813245Y-108949501D01*
X132849468Y-108959214D01*
X132854280Y-108963435D01*
X133097310Y-109206465D01*
X133097313Y-109206466D01*
X133097316Y-109206469D01*
X133162247Y-109243956D01*
X133171990Y-109249581D01*
X133210644Y-109259938D01*
X133255282Y-109271900D01*
X133255284Y-109271900D01*
X133341516Y-109271900D01*
X133587989Y-109271900D01*
X133622637Y-109286252D01*
X133635003Y-109312411D01*
X133636131Y-109312187D01*
X133636600Y-109314544D01*
X133636600Y-109314548D01*
X133648233Y-109373031D01*
X133657100Y-109386301D01*
X133692547Y-109439352D01*
X133719112Y-109457101D01*
X133758869Y-109483667D01*
X133817352Y-109495300D01*
X133817355Y-109495300D01*
X135381845Y-109495300D01*
X135381848Y-109495300D01*
X135440331Y-109483667D01*
X135506652Y-109439352D01*
X135550967Y-109373031D01*
X135562600Y-109314548D01*
X135562600Y-108625052D01*
X135552044Y-108571984D01*
X135559360Y-108535202D01*
X135590542Y-108514367D01*
X135609662Y-108514367D01*
X135636972Y-108519799D01*
X135636976Y-108519800D01*
X137186600Y-108519800D01*
X137186600Y-107189800D01*
X137436600Y-107189800D01*
X137436600Y-108519800D01*
X138986224Y-108519800D01*
X138986227Y-108519799D01*
X139013537Y-108514367D01*
X139050319Y-108521683D01*
X139071155Y-108552865D01*
X139071155Y-108571983D01*
X139060600Y-108625052D01*
X139060600Y-109314548D01*
X139072233Y-109373031D01*
X139081100Y-109386301D01*
X139116547Y-109439352D01*
X139143112Y-109457101D01*
X139182869Y-109483667D01*
X139241352Y-109495300D01*
X139882992Y-109495300D01*
X139895674Y-109496970D01*
X140003640Y-109525899D01*
X140003641Y-109525900D01*
X140003644Y-109525900D01*
X140156759Y-109525900D01*
X140156759Y-109525899D01*
X140242333Y-109502970D01*
X140264726Y-109496970D01*
X140277408Y-109495300D01*
X140805845Y-109495300D01*
X140805848Y-109495300D01*
X140864331Y-109483667D01*
X140930652Y-109439352D01*
X140974967Y-109373031D01*
X140986600Y-109314548D01*
X140986600Y-108625052D01*
X140974967Y-108566569D01*
X140944975Y-108521683D01*
X140930652Y-108500247D01*
X140882577Y-108468125D01*
X140864331Y-108455933D01*
X140805848Y-108444300D01*
X140805845Y-108444300D01*
X140710700Y-108444300D01*
X140676052Y-108429948D01*
X140661700Y-108395300D01*
X140661700Y-108330301D01*
X140676052Y-108295653D01*
X140710700Y-108281301D01*
X140791758Y-108281301D01*
X140890352Y-108254881D01*
X140939651Y-108241672D01*
X140954325Y-108233200D01*
X141072250Y-108165116D01*
X141180516Y-108056850D01*
X141180516Y-108056848D01*
X141184545Y-108052820D01*
X141184549Y-108052815D01*
X141779415Y-107457949D01*
X141779420Y-107457945D01*
X141783448Y-107453916D01*
X141783450Y-107453916D01*
X141891716Y-107345650D01*
X141968272Y-107213051D01*
X141984740Y-107151590D01*
X141993660Y-107118300D01*
X142007901Y-107065156D01*
X142007901Y-106909048D01*
X142007900Y-106909030D01*
X142007900Y-106627477D01*
X142008319Y-106621081D01*
X142010094Y-106607600D01*
X142008319Y-106594116D01*
X142007900Y-106587721D01*
X142007900Y-106531043D01*
X142003530Y-106514735D01*
X141993226Y-106476282D01*
X141991978Y-106470004D01*
X141991405Y-106465648D01*
X141990205Y-106456529D01*
X141984994Y-106443950D01*
X141982946Y-106437915D01*
X141968272Y-106383149D01*
X141939926Y-106334053D01*
X141937097Y-106328315D01*
X141936854Y-106327729D01*
X141931894Y-106315753D01*
X141923612Y-106304961D01*
X141920061Y-106299646D01*
X141891716Y-106250550D01*
X141851634Y-106210468D01*
X141847415Y-106205658D01*
X141839134Y-106194866D01*
X141839132Y-106194864D01*
X141839131Y-106194863D01*
X141828345Y-106186587D01*
X141823527Y-106182361D01*
X141783450Y-106142284D01*
X141781316Y-106141052D01*
X141734360Y-106113942D01*
X141729037Y-106110385D01*
X141718247Y-106102106D01*
X141718243Y-106102104D01*
X141705684Y-106096902D01*
X141699939Y-106094069D01*
X141684321Y-106085052D01*
X141650853Y-106065728D01*
X141650847Y-106065726D01*
X141596103Y-106051058D01*
X141590036Y-106048999D01*
X141577472Y-106043795D01*
X141577466Y-106043794D01*
X141563985Y-106042019D01*
X141557700Y-106040768D01*
X141502959Y-106026100D01*
X141502956Y-106026100D01*
X141446278Y-106026100D01*
X141439883Y-106025681D01*
X141426400Y-106023906D01*
X141412917Y-106025681D01*
X141406522Y-106026100D01*
X141349841Y-106026100D01*
X141295099Y-106040768D01*
X141288815Y-106042019D01*
X141275330Y-106043794D01*
X141275323Y-106043796D01*
X141262763Y-106048998D01*
X141256699Y-106051056D01*
X141201953Y-106065726D01*
X141201949Y-106065728D01*
X141152864Y-106094066D01*
X141147121Y-106096898D01*
X141134556Y-106102103D01*
X141134550Y-106102107D01*
X141123764Y-106110383D01*
X141118439Y-106113941D01*
X141109494Y-106119106D01*
X141072312Y-106124003D01*
X141042558Y-106101174D01*
X141036228Y-106081476D01*
X141036099Y-106080169D01*
X141021596Y-106007257D01*
X140966340Y-105924559D01*
X140883642Y-105869303D01*
X140810729Y-105854800D01*
X140148600Y-105854800D01*
X140148600Y-107004800D01*
X140469539Y-107004800D01*
X140504187Y-107019152D01*
X140518539Y-107053800D01*
X140504187Y-107088448D01*
X140488687Y-107103948D01*
X140454039Y-107118300D01*
X139947041Y-107118300D01*
X139799150Y-107157927D01*
X139792511Y-107161760D01*
X139782161Y-107167735D01*
X139757663Y-107174300D01*
X139241352Y-107174300D01*
X139182869Y-107185933D01*
X139182864Y-107185934D01*
X139182537Y-107186070D01*
X139163786Y-107189800D01*
X137436600Y-107189800D01*
X137186600Y-107189800D01*
X135417600Y-107189800D01*
X135382952Y-107175448D01*
X135368600Y-107140800D01*
X135368600Y-107124800D01*
X134724600Y-107124800D01*
X134724600Y-108274800D01*
X135367483Y-108274800D01*
X135402131Y-108289152D01*
X135415541Y-108314240D01*
X135426104Y-108367343D01*
X135426706Y-108368244D01*
X135426917Y-108369307D01*
X135427951Y-108371802D01*
X135427454Y-108372007D01*
X135434024Y-108405026D01*
X135413189Y-108436209D01*
X135384255Y-108443460D01*
X135384255Y-108444300D01*
X135381848Y-108444300D01*
X133817352Y-108444300D01*
X133758869Y-108455933D01*
X133692547Y-108500247D01*
X133648232Y-108566570D01*
X133646066Y-108577460D01*
X133625230Y-108608642D01*
X133598008Y-108616900D01*
X133454351Y-108616900D01*
X133419703Y-108602548D01*
X132866584Y-108049429D01*
X133587100Y-108049429D01*
X133601603Y-108122342D01*
X133656859Y-108205040D01*
X133739557Y-108260296D01*
X133812470Y-108274799D01*
X133812476Y-108274800D01*
X134474600Y-108274800D01*
X134474600Y-107824800D01*
X133587100Y-107824800D01*
X133587100Y-108049429D01*
X132866584Y-108049429D01*
X132319452Y-107502297D01*
X132305100Y-107467649D01*
X132305100Y-107350170D01*
X133587100Y-107350170D01*
X133587100Y-107574800D01*
X134474600Y-107574800D01*
X134474600Y-107124800D01*
X133812470Y-107124800D01*
X133739557Y-107139303D01*
X133656859Y-107194559D01*
X133601603Y-107277257D01*
X133587100Y-107350170D01*
X132305100Y-107350170D01*
X132305100Y-105286800D01*
X132638506Y-105286800D01*
X132639575Y-105294916D01*
X132640281Y-105300281D01*
X132640700Y-105306677D01*
X132640700Y-105715230D01*
X132640699Y-105715248D01*
X132640699Y-105871357D01*
X132654955Y-105924559D01*
X132675975Y-106003005D01*
X132680328Y-106019251D01*
X132680329Y-106019254D01*
X132756884Y-106151850D01*
X132867940Y-106262906D01*
X132867946Y-106262911D01*
X133313968Y-106708933D01*
X133313973Y-106708939D01*
X133315684Y-106710650D01*
X133423950Y-106818916D01*
X133456444Y-106837676D01*
X133479693Y-106851099D01*
X133550037Y-106891713D01*
X133556550Y-106895473D01*
X133626314Y-106914166D01*
X133704441Y-106935100D01*
X133704442Y-106935101D01*
X133704445Y-106935101D01*
X133731185Y-106935101D01*
X133754292Y-106942109D01*
X133754412Y-106941821D01*
X133757340Y-106943034D01*
X133758405Y-106943357D01*
X133758869Y-106943667D01*
X133817352Y-106955300D01*
X133817355Y-106955300D01*
X135381845Y-106955300D01*
X135381848Y-106955300D01*
X135440331Y-106943667D01*
X135440333Y-106943665D01*
X135440335Y-106943665D01*
X135440663Y-106943530D01*
X135459414Y-106939800D01*
X137186600Y-106939800D01*
X137186600Y-105609800D01*
X137436600Y-105609800D01*
X137436600Y-106939800D01*
X139205600Y-106939800D01*
X139240248Y-106954152D01*
X139254600Y-106988800D01*
X139254600Y-107004800D01*
X139898600Y-107004800D01*
X139898600Y-105854800D01*
X139255717Y-105854800D01*
X139221069Y-105840448D01*
X139207658Y-105815359D01*
X139203282Y-105793359D01*
X139210599Y-105756577D01*
X139241782Y-105735741D01*
X139251341Y-105734800D01*
X139898600Y-105734800D01*
X140148600Y-105734800D01*
X140810724Y-105734800D01*
X140810729Y-105734799D01*
X140883642Y-105720296D01*
X140966340Y-105665040D01*
X141021596Y-105582342D01*
X141036099Y-105509429D01*
X141036100Y-105509424D01*
X141036100Y-105284800D01*
X140148600Y-105284800D01*
X140148600Y-105734800D01*
X139898600Y-105734800D01*
X139898600Y-105284800D01*
X139011100Y-105284800D01*
X139011100Y-105509421D01*
X139019418Y-105551241D01*
X139012101Y-105588023D01*
X138980918Y-105608859D01*
X138971359Y-105609800D01*
X137436600Y-105609800D01*
X137186600Y-105609800D01*
X135636977Y-105609800D01*
X135609660Y-105615233D01*
X135572878Y-105607915D01*
X135552043Y-105576732D01*
X135552043Y-105557616D01*
X135562600Y-105504548D01*
X135562600Y-104815052D01*
X135561629Y-104810170D01*
X139011100Y-104810170D01*
X139011100Y-105034800D01*
X139898600Y-105034800D01*
X139898600Y-104584800D01*
X139236470Y-104584800D01*
X139163557Y-104599303D01*
X139080859Y-104654559D01*
X139025603Y-104737257D01*
X139011100Y-104810170D01*
X135561629Y-104810170D01*
X135550967Y-104756569D01*
X135515244Y-104703106D01*
X135506652Y-104690247D01*
X135466895Y-104663682D01*
X135440331Y-104645933D01*
X135381848Y-104634300D01*
X135381845Y-104634300D01*
X135272561Y-104634300D01*
X135237913Y-104619948D01*
X135223561Y-104585300D01*
X135237913Y-104550652D01*
X136463912Y-103324652D01*
X136498560Y-103310300D01*
X136730614Y-103310300D01*
X136765262Y-103324652D01*
X136773049Y-103334800D01*
X136843284Y-103456450D01*
X136954340Y-103567506D01*
X136954346Y-103567511D01*
X137454168Y-104067333D01*
X137454173Y-104067339D01*
X137455884Y-104069050D01*
X137564150Y-104177316D01*
X137677172Y-104242569D01*
X137696749Y-104253872D01*
X137813390Y-104285125D01*
X137844640Y-104293499D01*
X137844641Y-104293500D01*
X137844644Y-104293500D01*
X137997755Y-104293500D01*
X140951298Y-104293500D01*
X140985946Y-104307852D01*
X141000298Y-104342500D01*
X140996566Y-104361256D01*
X140991901Y-104372515D01*
X140989069Y-104378258D01*
X140960728Y-104427349D01*
X140960726Y-104427353D01*
X140946056Y-104482100D01*
X140943998Y-104488164D01*
X140938797Y-104500722D01*
X140938793Y-104500736D01*
X140937021Y-104514197D01*
X140935772Y-104520479D01*
X140924961Y-104560829D01*
X140902131Y-104590583D01*
X140868071Y-104596207D01*
X140810722Y-104584800D01*
X140148600Y-104584800D01*
X140148600Y-105034800D01*
X141042886Y-105034800D01*
X141077534Y-105049152D01*
X141081757Y-105053967D01*
X141089866Y-105064534D01*
X141100662Y-105072818D01*
X141105471Y-105077036D01*
X141145551Y-105117116D01*
X141177791Y-105135730D01*
X141194637Y-105145456D01*
X141199956Y-105149009D01*
X141210753Y-105157294D01*
X141223326Y-105162502D01*
X141229049Y-105165324D01*
X141265987Y-105186650D01*
X141278145Y-105193670D01*
X141278149Y-105193672D01*
X141332913Y-105208345D01*
X141338968Y-105210402D01*
X141338973Y-105210404D01*
X141351529Y-105215605D01*
X141365006Y-105217379D01*
X141371286Y-105218628D01*
X141398575Y-105225940D01*
X141426042Y-105233301D01*
X141426044Y-105233301D01*
X141482730Y-105233301D01*
X141489125Y-105233719D01*
X141502600Y-105235494D01*
X141516074Y-105233719D01*
X141522470Y-105233301D01*
X141579158Y-105233301D01*
X141633907Y-105218630D01*
X141640196Y-105217379D01*
X141644949Y-105216753D01*
X141653671Y-105215605D01*
X141666238Y-105210398D01*
X141672280Y-105208347D01*
X141727051Y-105193672D01*
X141727053Y-105193670D01*
X141727055Y-105193670D01*
X141746193Y-105182620D01*
X141776144Y-105165327D01*
X141781877Y-105162500D01*
X141794447Y-105157294D01*
X141805236Y-105149014D01*
X141810565Y-105145454D01*
X141859649Y-105117116D01*
X141899728Y-105077035D01*
X141904538Y-105072817D01*
X141915334Y-105064534D01*
X141923619Y-105053735D01*
X141927830Y-105048933D01*
X142022595Y-104954168D01*
X142057243Y-104939817D01*
X142066802Y-104940759D01*
X142129846Y-104953299D01*
X142129849Y-104953299D01*
X142129852Y-104953300D01*
X142129853Y-104953300D01*
X143669345Y-104953300D01*
X143669348Y-104953300D01*
X143727831Y-104941667D01*
X143740477Y-104933216D01*
X143777258Y-104925899D01*
X143808441Y-104946734D01*
X143816700Y-104973958D01*
X143816700Y-106133598D01*
X143802348Y-106168246D01*
X143797100Y-106172798D01*
X143469974Y-106418142D01*
X143465076Y-106421376D01*
X143431555Y-106440730D01*
X143431544Y-106440738D01*
X143409092Y-106463189D01*
X143403847Y-106467738D01*
X143378458Y-106486780D01*
X143378451Y-106486787D01*
X143354556Y-106517228D01*
X143350663Y-106521618D01*
X143323288Y-106548995D01*
X143323282Y-106549003D01*
X143307410Y-106576494D01*
X143303520Y-106582247D01*
X143283915Y-106607222D01*
X143283915Y-106607223D01*
X143268707Y-106642824D01*
X143266083Y-106648072D01*
X143246729Y-106681595D01*
X143246727Y-106681602D01*
X143238511Y-106712260D01*
X143236243Y-106718822D01*
X143223771Y-106748023D01*
X143223769Y-106748029D01*
X143218294Y-106786350D01*
X143217118Y-106792099D01*
X143207100Y-106829493D01*
X143207100Y-106861233D01*
X143206608Y-106868162D01*
X143202117Y-106899600D01*
X143206748Y-106938036D01*
X143207100Y-106943897D01*
X143207100Y-107276310D01*
X143192748Y-107310958D01*
X142553359Y-107950346D01*
X142553356Y-107950350D01*
X142520233Y-107999923D01*
X142520233Y-107999925D01*
X142508600Y-108058408D01*
X142508600Y-108992196D01*
X142516776Y-109033300D01*
X142520232Y-109050676D01*
X142553355Y-109100249D01*
X143213646Y-109760540D01*
X143213650Y-109760543D01*
X143263223Y-109793666D01*
X143263225Y-109793667D01*
X143321708Y-109805300D01*
X143321711Y-109805300D01*
X144255493Y-109805300D01*
X144255496Y-109805300D01*
X144313976Y-109793668D01*
X144363552Y-109760542D01*
X145023840Y-109100254D01*
X145056967Y-109050675D01*
X145068600Y-108992192D01*
X145068600Y-108058404D01*
X145056968Y-107999924D01*
X145032248Y-107962928D01*
X145023844Y-107950350D01*
X144384452Y-107310958D01*
X144370100Y-107276310D01*
X144370100Y-107221299D01*
X144384452Y-107186651D01*
X144389691Y-107182106D01*
X144716832Y-106936750D01*
X144721705Y-106933532D01*
X144755250Y-106914166D01*
X144777709Y-106891705D01*
X144782942Y-106887166D01*
X144808345Y-106868116D01*
X144832247Y-106837664D01*
X144836135Y-106833280D01*
X144863512Y-106805904D01*
X144863512Y-106805903D01*
X144863516Y-106805900D01*
X144873580Y-106788466D01*
X144879390Y-106778404D01*
X144883275Y-106772656D01*
X144902884Y-106747677D01*
X144918096Y-106712062D01*
X144920708Y-106706838D01*
X144940072Y-106673301D01*
X144948289Y-106642629D01*
X144950558Y-106636069D01*
X144955601Y-106624264D01*
X144963030Y-106606873D01*
X144968507Y-106568530D01*
X144969680Y-106562798D01*
X144979700Y-106525406D01*
X144979700Y-106493666D01*
X144980192Y-106486737D01*
X144982582Y-106470004D01*
X144984683Y-106455300D01*
X144980052Y-106416862D01*
X144979700Y-106411001D01*
X144979700Y-105583649D01*
X144994052Y-105549001D01*
X145028700Y-105534649D01*
X145063348Y-105549001D01*
X145077281Y-105577253D01*
X145078994Y-105590270D01*
X145137303Y-105731042D01*
X145137306Y-105731047D01*
X145230063Y-105851931D01*
X145230064Y-105851932D01*
X145230066Y-105851934D01*
X145296130Y-105902626D01*
X145314881Y-105935103D01*
X145315300Y-105941499D01*
X145315300Y-106752317D01*
X145337619Y-106835610D01*
X145337619Y-106835612D01*
X145380730Y-106910283D01*
X145380737Y-106910292D01*
X146039927Y-107569482D01*
X146054279Y-107604130D01*
X146039927Y-107638778D01*
X145728358Y-107950347D01*
X145695233Y-107999923D01*
X145695233Y-107999925D01*
X145683600Y-108058408D01*
X145683600Y-108992196D01*
X145691776Y-109033300D01*
X145695232Y-109050676D01*
X145728355Y-109100249D01*
X146388646Y-109760540D01*
X146388650Y-109760543D01*
X146438223Y-109793666D01*
X146438225Y-109793667D01*
X146496708Y-109805300D01*
X146496711Y-109805300D01*
X147430493Y-109805300D01*
X147430496Y-109805300D01*
X147488976Y-109793668D01*
X147538552Y-109760542D01*
X148198840Y-109100254D01*
X148231967Y-109050675D01*
X148243600Y-108992192D01*
X148243600Y-108058404D01*
X148231968Y-107999924D01*
X148207248Y-107962928D01*
X148198844Y-107950350D01*
X147538553Y-107290059D01*
X147538549Y-107290056D01*
X147488976Y-107256933D01*
X147474354Y-107254024D01*
X147430492Y-107245300D01*
X147430489Y-107245300D01*
X146662351Y-107245300D01*
X146627703Y-107230948D01*
X145984652Y-106587897D01*
X145970300Y-106553249D01*
X145970300Y-105941499D01*
X145984652Y-105906851D01*
X145989455Y-105902637D01*
X146055534Y-105851934D01*
X146148294Y-105731047D01*
X146206605Y-105590271D01*
X146226494Y-105439200D01*
X146209774Y-105312200D01*
X147980106Y-105312200D01*
X147999994Y-105463270D01*
X148058303Y-105604042D01*
X148058306Y-105604047D01*
X148151063Y-105724931D01*
X148151064Y-105724932D01*
X148151066Y-105724934D01*
X148217130Y-105775626D01*
X148235881Y-105808103D01*
X148236300Y-105814499D01*
X148236300Y-106993617D01*
X148258619Y-107076910D01*
X148258619Y-107076912D01*
X148301730Y-107151583D01*
X148301736Y-107151591D01*
X148967277Y-107817132D01*
X148981629Y-107851780D01*
X148967277Y-107886428D01*
X148903358Y-107950347D01*
X148870233Y-107999923D01*
X148870233Y-107999925D01*
X148858600Y-108058408D01*
X148858600Y-108992196D01*
X148866776Y-109033300D01*
X148870232Y-109050676D01*
X148903355Y-109100249D01*
X149563646Y-109760540D01*
X149563650Y-109760543D01*
X149613223Y-109793666D01*
X149613225Y-109793667D01*
X149671708Y-109805300D01*
X149671711Y-109805300D01*
X150605493Y-109805300D01*
X150605496Y-109805300D01*
X150663976Y-109793668D01*
X150713552Y-109760542D01*
X151373840Y-109100254D01*
X151406967Y-109050675D01*
X151418600Y-108992192D01*
X151418600Y-108650300D01*
X152111099Y-108650300D01*
X152111099Y-108997070D01*
X152125604Y-109069987D01*
X152166912Y-109131810D01*
X152834089Y-109798985D01*
X152895912Y-109840295D01*
X152895914Y-109840296D01*
X152968826Y-109854799D01*
X152968832Y-109854800D01*
X153315600Y-109854800D01*
X153315600Y-109017726D01*
X153373720Y-109033300D01*
X153507480Y-109033300D01*
X153565600Y-109017726D01*
X153565600Y-109854800D01*
X153912370Y-109854800D01*
X153985287Y-109840295D01*
X154047110Y-109798987D01*
X154714285Y-109131810D01*
X154755595Y-109069987D01*
X154755596Y-109069985D01*
X154770099Y-108997073D01*
X154770100Y-108997068D01*
X154770100Y-108650300D01*
X153933027Y-108650300D01*
X153948600Y-108592180D01*
X153948600Y-108458420D01*
X153933027Y-108400300D01*
X154770101Y-108400300D01*
X154782910Y-108387490D01*
X154784453Y-108383767D01*
X154819101Y-108369415D01*
X154853749Y-108383767D01*
X154864371Y-108399664D01*
X154916303Y-108525042D01*
X154916306Y-108525047D01*
X154993042Y-108625052D01*
X155009066Y-108645934D01*
X155129953Y-108738694D01*
X155129955Y-108738694D01*
X155129957Y-108738696D01*
X155216911Y-108774713D01*
X155270729Y-108797005D01*
X155421800Y-108816894D01*
X155504358Y-108806024D01*
X155540583Y-108815730D01*
X155545402Y-108819957D01*
X155931910Y-109206465D01*
X155931913Y-109206466D01*
X155931916Y-109206469D01*
X155996847Y-109243956D01*
X156006590Y-109249581D01*
X156045244Y-109259938D01*
X156089882Y-109271900D01*
X156089884Y-109271900D01*
X156176116Y-109271900D01*
X156320600Y-109271900D01*
X156355248Y-109286252D01*
X156369600Y-109320900D01*
X156369600Y-109370548D01*
X156381233Y-109429031D01*
X156388192Y-109439445D01*
X156425547Y-109495352D01*
X156452112Y-109513101D01*
X156491869Y-109539667D01*
X156550352Y-109551300D01*
X156550355Y-109551300D01*
X158114845Y-109551300D01*
X158114848Y-109551300D01*
X158173331Y-109539667D01*
X158239652Y-109495352D01*
X158283967Y-109429031D01*
X158295600Y-109370548D01*
X158295600Y-108681052D01*
X158285044Y-108627984D01*
X158292360Y-108591202D01*
X158323542Y-108570367D01*
X158342662Y-108570367D01*
X158369972Y-108575799D01*
X158369976Y-108575800D01*
X159919600Y-108575800D01*
X159919600Y-107245800D01*
X158150600Y-107245800D01*
X158115952Y-107231448D01*
X158101600Y-107196800D01*
X158101600Y-107180800D01*
X157457600Y-107180800D01*
X157457600Y-108330800D01*
X158100483Y-108330800D01*
X158135131Y-108345152D01*
X158148541Y-108370240D01*
X158159104Y-108423343D01*
X158159706Y-108424244D01*
X158159917Y-108425307D01*
X158160951Y-108427802D01*
X158160454Y-108428007D01*
X158167024Y-108461026D01*
X158146189Y-108492209D01*
X158117255Y-108499460D01*
X158117255Y-108500300D01*
X158114848Y-108500300D01*
X156550352Y-108500300D01*
X156491869Y-108511933D01*
X156425547Y-108556247D01*
X156399572Y-108595123D01*
X156368389Y-108615959D01*
X156358830Y-108616900D01*
X156288951Y-108616900D01*
X156254303Y-108602548D01*
X156008557Y-108356802D01*
X155994205Y-108322154D01*
X155994624Y-108315758D01*
X155995259Y-108310938D01*
X156005494Y-108233200D01*
X155988673Y-108105429D01*
X156320100Y-108105429D01*
X156334603Y-108178342D01*
X156389859Y-108261040D01*
X156472557Y-108316296D01*
X156545470Y-108330799D01*
X156545476Y-108330800D01*
X157207600Y-108330800D01*
X157207600Y-107880800D01*
X156320100Y-107880800D01*
X156320100Y-108105429D01*
X155988673Y-108105429D01*
X155985605Y-108082129D01*
X155975781Y-108058411D01*
X155927296Y-107941357D01*
X155927293Y-107941352D01*
X155916313Y-107927043D01*
X155834534Y-107820466D01*
X155828626Y-107815933D01*
X155713647Y-107727706D01*
X155713642Y-107727703D01*
X155572870Y-107669394D01*
X155421800Y-107649506D01*
X155270729Y-107669394D01*
X155129957Y-107727703D01*
X155129952Y-107727706D01*
X155009066Y-107820465D01*
X155009065Y-107820466D01*
X154916306Y-107941352D01*
X154916303Y-107941357D01*
X154864121Y-108067339D01*
X154837603Y-108093858D01*
X154800100Y-108093858D01*
X154773581Y-108067340D01*
X154770707Y-108055866D01*
X154770571Y-108055894D01*
X154755595Y-107980612D01*
X154714287Y-107918789D01*
X154201666Y-107406170D01*
X156320100Y-107406170D01*
X156320100Y-107630800D01*
X157207600Y-107630800D01*
X157207600Y-107180800D01*
X156545470Y-107180800D01*
X156472557Y-107195303D01*
X156389859Y-107250559D01*
X156334603Y-107333257D01*
X156320100Y-107406170D01*
X154201666Y-107406170D01*
X154047110Y-107251614D01*
X153985287Y-107210304D01*
X153985285Y-107210303D01*
X153912373Y-107195800D01*
X153912367Y-107195799D01*
X153565600Y-107195799D01*
X153565600Y-108032873D01*
X153507480Y-108017300D01*
X153373720Y-108017300D01*
X153315600Y-108032873D01*
X153315600Y-107195799D01*
X152968829Y-107195799D01*
X152895912Y-107210304D01*
X152834089Y-107251612D01*
X152166914Y-107918789D01*
X152125604Y-107980612D01*
X152125603Y-107980614D01*
X152111100Y-108053526D01*
X152111100Y-108400300D01*
X152948173Y-108400300D01*
X152932600Y-108458420D01*
X152932600Y-108592180D01*
X152948173Y-108650300D01*
X152111099Y-108650300D01*
X151418600Y-108650300D01*
X151418600Y-108058404D01*
X151406968Y-107999924D01*
X151382248Y-107962928D01*
X151373844Y-107950350D01*
X150713553Y-107290059D01*
X150713549Y-107290056D01*
X150663976Y-107256933D01*
X150649354Y-107254024D01*
X150605492Y-107245300D01*
X149671704Y-107245300D01*
X149627844Y-107254024D01*
X149613223Y-107256932D01*
X149563650Y-107290055D01*
X149499728Y-107353977D01*
X149465080Y-107368329D01*
X149430432Y-107353977D01*
X148905652Y-106829197D01*
X148891300Y-106794549D01*
X148891300Y-105814499D01*
X148905652Y-105779851D01*
X148910455Y-105775637D01*
X148976534Y-105724934D01*
X149069294Y-105604047D01*
X149127605Y-105463271D01*
X149147494Y-105312200D01*
X149127605Y-105161129D01*
X149069296Y-105020357D01*
X149069293Y-105020352D01*
X149068404Y-105019194D01*
X148976534Y-104899466D01*
X148957487Y-104884851D01*
X148855647Y-104806706D01*
X148855642Y-104806703D01*
X148714870Y-104748394D01*
X148563800Y-104728506D01*
X148412729Y-104748394D01*
X148271957Y-104806703D01*
X148271952Y-104806706D01*
X148151066Y-104899465D01*
X148151065Y-104899466D01*
X148058306Y-105020352D01*
X148058303Y-105020357D01*
X147999994Y-105161129D01*
X147980106Y-105312200D01*
X146209774Y-105312200D01*
X146206605Y-105288129D01*
X146197820Y-105266921D01*
X146148296Y-105147357D01*
X146148293Y-105147352D01*
X146139374Y-105135729D01*
X146055534Y-105026466D01*
X146049621Y-105021929D01*
X145934647Y-104933706D01*
X145934642Y-104933703D01*
X145854903Y-104900675D01*
X145828384Y-104874157D01*
X145828384Y-104836654D01*
X145839003Y-104820760D01*
X145862132Y-104797631D01*
X145866933Y-104793420D01*
X145877734Y-104785134D01*
X145886017Y-104774338D01*
X145890237Y-104769527D01*
X145930313Y-104729452D01*
X145930313Y-104729451D01*
X145930316Y-104729449D01*
X145958655Y-104680362D01*
X145962216Y-104675034D01*
X145970494Y-104664247D01*
X145975700Y-104651677D01*
X145978527Y-104645944D01*
X146006872Y-104596851D01*
X146021545Y-104542088D01*
X146023603Y-104536028D01*
X146028805Y-104523471D01*
X146030579Y-104509988D01*
X146031826Y-104503716D01*
X146046500Y-104448956D01*
X146046500Y-104392277D01*
X146046919Y-104385881D01*
X146048694Y-104372400D01*
X146046919Y-104358916D01*
X146046500Y-104352521D01*
X146046500Y-104295843D01*
X146038750Y-104266925D01*
X146031827Y-104241089D01*
X146030578Y-104234804D01*
X146028805Y-104221331D01*
X146028805Y-104221329D01*
X146023598Y-104208760D01*
X146021544Y-104202710D01*
X146006872Y-104147950D01*
X145978524Y-104098850D01*
X145975703Y-104093130D01*
X145970494Y-104080553D01*
X145962211Y-104069758D01*
X145958659Y-104064443D01*
X145932162Y-104018548D01*
X145930318Y-104015354D01*
X145930313Y-104015348D01*
X145914965Y-104000000D01*
X151443106Y-104000000D01*
X151462994Y-104151070D01*
X151521303Y-104291842D01*
X151521306Y-104291847D01*
X151604678Y-104400500D01*
X151614066Y-104412734D01*
X151734953Y-104505494D01*
X151734955Y-104505494D01*
X151734957Y-104505496D01*
X151875729Y-104563805D01*
X152026800Y-104583694D01*
X152109358Y-104572824D01*
X152145583Y-104582530D01*
X152150402Y-104586757D01*
X153692042Y-106128397D01*
X153706394Y-106163045D01*
X153705974Y-106169441D01*
X153695106Y-106252000D01*
X153697724Y-106271888D01*
X153714994Y-106403070D01*
X153773303Y-106543842D01*
X153773306Y-106543847D01*
X153860018Y-106656853D01*
X153866066Y-106664734D01*
X153986953Y-106757494D01*
X153986955Y-106757494D01*
X153986957Y-106757496D01*
X154109125Y-106808099D01*
X154127729Y-106815805D01*
X154278800Y-106835694D01*
X154429871Y-106815805D01*
X154570647Y-106757494D01*
X154691534Y-106664734D01*
X154784294Y-106543847D01*
X154842605Y-106403071D01*
X154862494Y-106252000D01*
X154842605Y-106100929D01*
X154841017Y-106097095D01*
X154802554Y-106004236D01*
X154802554Y-105966733D01*
X154829073Y-105940215D01*
X154866576Y-105940215D01*
X154882470Y-105950835D01*
X155515283Y-106583649D01*
X155515284Y-106583650D01*
X155623550Y-106691916D01*
X155658472Y-106712078D01*
X155756146Y-106768471D01*
X155756148Y-106768471D01*
X155756149Y-106768472D01*
X155833758Y-106789267D01*
X155904040Y-106808099D01*
X155904041Y-106808100D01*
X155904044Y-106808100D01*
X156024238Y-106808100D01*
X156058886Y-106822452D01*
X156060550Y-106824116D01*
X156084037Y-106837676D01*
X156193146Y-106900671D01*
X156193148Y-106900671D01*
X156193149Y-106900672D01*
X156243510Y-106914166D01*
X156341040Y-106940299D01*
X156341041Y-106940300D01*
X156341044Y-106940300D01*
X156390200Y-106940300D01*
X156421216Y-106953147D01*
X156421535Y-106952671D01*
X156423931Y-106954272D01*
X156424848Y-106954652D01*
X156425548Y-106955352D01*
X156491869Y-106999667D01*
X156550352Y-107011300D01*
X157066663Y-107011300D01*
X157091161Y-107017864D01*
X157108149Y-107027672D01*
X157172565Y-107044932D01*
X157256040Y-107067299D01*
X157256041Y-107067300D01*
X157256044Y-107067300D01*
X157409159Y-107067300D01*
X157409159Y-107067299D01*
X157557050Y-107027672D01*
X157574037Y-107017864D01*
X157598536Y-107011300D01*
X158114845Y-107011300D01*
X158114848Y-107011300D01*
X158173331Y-106999667D01*
X158173333Y-106999665D01*
X158173335Y-106999665D01*
X158173663Y-106999530D01*
X158192414Y-106995800D01*
X159919600Y-106995800D01*
X159919600Y-105665800D01*
X160169600Y-105665800D01*
X160169600Y-106995800D01*
X161938600Y-106995800D01*
X161973248Y-107010152D01*
X161987600Y-107044800D01*
X161987600Y-107060800D01*
X162648438Y-107060800D01*
X162683086Y-107075152D01*
X162697438Y-107109800D01*
X162683086Y-107144448D01*
X162661120Y-107157130D01*
X162563350Y-107183327D01*
X162563346Y-107183328D01*
X162493362Y-107223735D01*
X162468862Y-107230300D01*
X161974352Y-107230300D01*
X161915869Y-107241933D01*
X161915864Y-107241934D01*
X161915537Y-107242070D01*
X161896786Y-107245800D01*
X160169600Y-107245800D01*
X160169600Y-108575800D01*
X161719224Y-108575800D01*
X161719227Y-108575799D01*
X161746537Y-108570367D01*
X161783319Y-108577683D01*
X161804155Y-108608865D01*
X161804155Y-108627983D01*
X161793600Y-108681052D01*
X161793600Y-109370548D01*
X161805233Y-109429031D01*
X161812192Y-109439445D01*
X161849547Y-109495352D01*
X161876112Y-109513101D01*
X161915869Y-109539667D01*
X161974352Y-109551300D01*
X161974355Y-109551300D01*
X163538845Y-109551300D01*
X163538848Y-109551300D01*
X163597331Y-109539667D01*
X163663652Y-109495352D01*
X163707967Y-109429031D01*
X163719600Y-109370548D01*
X163719600Y-108681052D01*
X163707967Y-108622569D01*
X163677826Y-108577460D01*
X163663652Y-108556247D01*
X163616957Y-108525047D01*
X163597331Y-108511933D01*
X163538848Y-108500300D01*
X163538845Y-108500300D01*
X163418300Y-108500300D01*
X163383652Y-108485948D01*
X163369300Y-108451300D01*
X163369300Y-108355700D01*
X163383652Y-108321052D01*
X163418300Y-108306700D01*
X163724231Y-108306700D01*
X163724247Y-108306701D01*
X163727244Y-108306701D01*
X163880358Y-108306701D01*
X163939514Y-108290849D01*
X164028251Y-108267072D01*
X164029920Y-108266108D01*
X164035434Y-108262926D01*
X164100602Y-108225300D01*
X164160850Y-108190516D01*
X164269116Y-108082250D01*
X164269116Y-108082248D01*
X164273145Y-108078220D01*
X164273148Y-108078215D01*
X165561916Y-106789450D01*
X165638472Y-106656851D01*
X165678099Y-106508959D01*
X165678100Y-106508959D01*
X165678100Y-104333961D01*
X165692452Y-104299313D01*
X167172114Y-102819652D01*
X167206762Y-102805300D01*
X167325838Y-102805300D01*
X167360486Y-102819652D01*
X167374838Y-102854300D01*
X167360486Y-102888948D01*
X167360485Y-102888949D01*
X167318264Y-102931167D01*
X167313451Y-102935389D01*
X167302666Y-102943666D01*
X167294389Y-102954451D01*
X167290167Y-102959264D01*
X167250086Y-102999347D01*
X167250084Y-102999349D01*
X167250084Y-102999350D01*
X167242571Y-103012362D01*
X167221742Y-103048438D01*
X167218183Y-103053764D01*
X167209907Y-103064550D01*
X167209903Y-103064556D01*
X167204698Y-103077121D01*
X167201866Y-103082864D01*
X167173528Y-103131949D01*
X167173526Y-103131953D01*
X167158856Y-103186699D01*
X167156798Y-103192763D01*
X167151596Y-103205323D01*
X167151594Y-103205330D01*
X167149819Y-103218815D01*
X167148568Y-103225099D01*
X167133900Y-103279840D01*
X167133900Y-103336521D01*
X167133481Y-103342916D01*
X167131706Y-103356399D01*
X167133481Y-103369881D01*
X167133900Y-103376277D01*
X167133900Y-107155300D01*
X167119548Y-107189948D01*
X167084900Y-107204300D01*
X166069852Y-107204300D01*
X166025848Y-107213053D01*
X166011369Y-107215933D01*
X165945047Y-107260247D01*
X165911164Y-107310958D01*
X165900733Y-107326569D01*
X165889100Y-107385052D01*
X165889100Y-109624548D01*
X165900733Y-109683031D01*
X165916214Y-109706200D01*
X165945047Y-109749352D01*
X165971612Y-109767101D01*
X166011369Y-109793667D01*
X166069852Y-109805300D01*
X166069855Y-109805300D01*
X169259345Y-109805300D01*
X169259348Y-109805300D01*
X169317831Y-109793667D01*
X169384152Y-109749352D01*
X169428467Y-109683031D01*
X169440100Y-109624548D01*
X169440100Y-107385052D01*
X169428467Y-107326569D01*
X169395517Y-107277257D01*
X169384152Y-107260247D01*
X169339332Y-107230300D01*
X169317831Y-107215933D01*
X169259348Y-107204300D01*
X169259345Y-107204300D01*
X168345900Y-107204300D01*
X168311252Y-107189948D01*
X168296900Y-107155300D01*
X168296900Y-103376277D01*
X168297319Y-103369881D01*
X168299094Y-103356400D01*
X168297319Y-103342916D01*
X168296900Y-103336521D01*
X168296900Y-103279843D01*
X168289265Y-103251352D01*
X168282226Y-103225082D01*
X168280978Y-103218804D01*
X168279205Y-103205329D01*
X168273994Y-103192750D01*
X168271946Y-103186715D01*
X168257272Y-103131949D01*
X168256435Y-103130500D01*
X168248149Y-103116148D01*
X168228926Y-103082853D01*
X168226097Y-103077115D01*
X168225854Y-103076529D01*
X168220894Y-103064553D01*
X168212612Y-103053761D01*
X168209056Y-103048438D01*
X168180716Y-102999350D01*
X168140630Y-102959264D01*
X168136415Y-102954458D01*
X168128134Y-102943666D01*
X168128132Y-102943664D01*
X168128131Y-102943663D01*
X168117345Y-102935387D01*
X168112527Y-102931161D01*
X168070314Y-102888948D01*
X168055962Y-102854300D01*
X168070314Y-102819652D01*
X168104962Y-102805300D01*
X169259349Y-102805300D01*
X169261745Y-102805064D01*
X169261878Y-102806422D01*
X169294568Y-102812881D01*
X169302044Y-102819009D01*
X171777950Y-105294916D01*
X171792756Y-105303464D01*
X171910546Y-105371471D01*
X171910548Y-105371471D01*
X171910549Y-105371472D01*
X171997354Y-105394731D01*
X172058440Y-105411099D01*
X172058441Y-105411100D01*
X172058444Y-105411100D01*
X172211555Y-105411100D01*
X172749600Y-105411100D01*
X172784248Y-105425452D01*
X172798600Y-105460100D01*
X172798600Y-107668548D01*
X172810233Y-107727031D01*
X172810814Y-107727900D01*
X172854547Y-107793352D01*
X172881112Y-107811101D01*
X172920869Y-107837667D01*
X172979352Y-107849300D01*
X172979355Y-107849300D01*
X175431845Y-107849300D01*
X175431848Y-107849300D01*
X175490331Y-107837667D01*
X175556652Y-107793352D01*
X175600967Y-107727031D01*
X175612600Y-107668548D01*
X175612600Y-106087377D01*
X175626952Y-106052729D01*
X175661600Y-106038377D01*
X175691426Y-106048501D01*
X175754753Y-106097094D01*
X175754756Y-106097095D01*
X175754757Y-106097096D01*
X175863852Y-106142284D01*
X175895529Y-106155405D01*
X176046600Y-106175294D01*
X176197671Y-106155405D01*
X176338447Y-106097094D01*
X176459334Y-106004334D01*
X176552094Y-105883447D01*
X176610405Y-105742671D01*
X176630294Y-105591600D01*
X176619424Y-105509039D01*
X176629130Y-105472815D01*
X176633349Y-105468004D01*
X179806303Y-102295052D01*
X180036600Y-102295052D01*
X180036600Y-107668548D01*
X180048233Y-107727031D01*
X180048814Y-107727900D01*
X180092547Y-107793352D01*
X180119112Y-107811101D01*
X180158869Y-107837667D01*
X180217352Y-107849300D01*
X181017639Y-107849300D01*
X181052287Y-107863652D01*
X182348768Y-109160133D01*
X182348773Y-109160139D01*
X182350484Y-109161850D01*
X182458750Y-109270116D01*
X182591349Y-109346672D01*
X182591353Y-109346673D01*
X182622595Y-109355044D01*
X182622597Y-109355044D01*
X182622603Y-109355046D01*
X182680440Y-109370544D01*
X182739242Y-109386301D01*
X182739244Y-109386301D01*
X182895353Y-109386301D01*
X182895369Y-109386300D01*
X183845100Y-109386300D01*
X183879748Y-109400652D01*
X183894100Y-109435300D01*
X183894100Y-109624548D01*
X183905733Y-109683031D01*
X183921214Y-109706200D01*
X183950047Y-109749352D01*
X183976612Y-109767101D01*
X184016369Y-109793667D01*
X184074852Y-109805300D01*
X184074855Y-109805300D01*
X186814345Y-109805300D01*
X186814348Y-109805300D01*
X186872831Y-109793667D01*
X186939152Y-109749352D01*
X186983467Y-109683031D01*
X186995100Y-109624548D01*
X186995100Y-109435300D01*
X187009452Y-109400652D01*
X187044100Y-109386300D01*
X190777159Y-109386300D01*
X190777159Y-109386299D01*
X190925051Y-109346672D01*
X191057650Y-109270116D01*
X191066114Y-109261652D01*
X191100762Y-109247300D01*
X193318345Y-109247300D01*
X193318348Y-109247300D01*
X193376831Y-109235667D01*
X193443152Y-109191352D01*
X193487467Y-109125031D01*
X193499100Y-109066548D01*
X193499100Y-108327052D01*
X193487467Y-108268569D01*
X193487465Y-108268566D01*
X193487465Y-108268565D01*
X193485621Y-108264112D01*
X193486509Y-108263743D01*
X193480151Y-108231795D01*
X193487468Y-108214126D01*
X193534096Y-108144342D01*
X193548599Y-108071429D01*
X193548600Y-108071424D01*
X193548600Y-106681800D01*
X188068600Y-106681800D01*
X188068600Y-108071429D01*
X188083103Y-108144341D01*
X188084931Y-108147076D01*
X188092248Y-108183859D01*
X188071413Y-108215042D01*
X188044189Y-108223300D01*
X187044100Y-108223300D01*
X187009452Y-108208948D01*
X186995100Y-108174300D01*
X186995100Y-107985055D01*
X186995100Y-107985052D01*
X186983467Y-107926569D01*
X186952885Y-107880800D01*
X186939152Y-107860247D01*
X186886101Y-107824800D01*
X186872831Y-107815933D01*
X186814348Y-107804300D01*
X184074852Y-107804300D01*
X184016369Y-107815933D01*
X183950047Y-107860247D01*
X183907918Y-107923299D01*
X183905733Y-107926569D01*
X183894100Y-107985052D01*
X183894100Y-107985055D01*
X183894100Y-108174300D01*
X183879748Y-108208948D01*
X183845100Y-108223300D01*
X183076961Y-108223300D01*
X183042313Y-108208948D01*
X182736201Y-107902836D01*
X182721849Y-107868188D01*
X182736201Y-107833540D01*
X182743624Y-107827448D01*
X182770611Y-107809415D01*
X182794651Y-107793353D01*
X182794936Y-107792927D01*
X182838967Y-107727031D01*
X182850600Y-107668548D01*
X182850600Y-105124345D01*
X182864952Y-105089697D01*
X182899600Y-105075345D01*
X182934248Y-105089697D01*
X182946933Y-105111678D01*
X182947342Y-105113202D01*
X182947373Y-105113317D01*
X182948619Y-105119585D01*
X182950394Y-105133066D01*
X182950395Y-105133072D01*
X182955599Y-105145636D01*
X182957658Y-105151703D01*
X182972326Y-105206447D01*
X182972328Y-105206453D01*
X183000667Y-105255535D01*
X183003502Y-105261284D01*
X183008704Y-105273843D01*
X183008706Y-105273847D01*
X183016983Y-105284633D01*
X183020542Y-105289960D01*
X183026501Y-105300281D01*
X183048884Y-105339050D01*
X183088961Y-105379127D01*
X183093187Y-105383945D01*
X183101463Y-105394731D01*
X183101464Y-105394732D01*
X183101466Y-105394734D01*
X183112258Y-105403015D01*
X183117068Y-105407234D01*
X183157150Y-105447316D01*
X183206246Y-105475661D01*
X183211561Y-105479212D01*
X183222353Y-105487494D01*
X183234329Y-105492454D01*
X183234915Y-105492697D01*
X183240653Y-105495526D01*
X183273255Y-105514349D01*
X183289745Y-105523870D01*
X183289749Y-105523872D01*
X183344515Y-105538546D01*
X183350550Y-105540594D01*
X183363129Y-105545805D01*
X183376610Y-105547579D01*
X183382882Y-105548826D01*
X183426205Y-105560434D01*
X183437643Y-105563500D01*
X183437644Y-105563500D01*
X183494322Y-105563500D01*
X183500717Y-105563919D01*
X183501711Y-105564049D01*
X183514200Y-105565694D01*
X183526688Y-105564049D01*
X183527683Y-105563919D01*
X183534078Y-105563500D01*
X183845100Y-105563500D01*
X183879748Y-105577852D01*
X183894100Y-105612500D01*
X183894100Y-106824548D01*
X183905733Y-106883031D01*
X183914046Y-106895472D01*
X183950047Y-106949352D01*
X183960946Y-106956634D01*
X184016369Y-106993667D01*
X184074852Y-107005300D01*
X184074855Y-107005300D01*
X186814345Y-107005300D01*
X186814348Y-107005300D01*
X186872831Y-106993667D01*
X186939152Y-106949352D01*
X186983467Y-106883031D01*
X186995100Y-106824548D01*
X186995100Y-106020673D01*
X187009452Y-105986025D01*
X187982826Y-105012652D01*
X188017474Y-104998300D01*
X188019600Y-104998300D01*
X188054248Y-105012652D01*
X188068600Y-105047300D01*
X188068600Y-106431800D01*
X193548600Y-106431800D01*
X193548600Y-105042176D01*
X193548599Y-105042170D01*
X193534096Y-104969257D01*
X193487468Y-104899474D01*
X193480151Y-104862692D01*
X193485621Y-104849490D01*
X193485620Y-104849490D01*
X193487466Y-104845032D01*
X193487465Y-104845032D01*
X193487467Y-104845031D01*
X193499100Y-104786548D01*
X193499100Y-104047052D01*
X193487467Y-103988569D01*
X193457218Y-103943299D01*
X193443152Y-103922247D01*
X193398632Y-103892500D01*
X193376831Y-103877933D01*
X193318348Y-103866300D01*
X193318345Y-103866300D01*
X191007301Y-103866300D01*
X190994619Y-103864630D01*
X190885159Y-103835300D01*
X190885156Y-103835300D01*
X187832867Y-103835300D01*
X187679756Y-103835300D01*
X187679753Y-103835300D01*
X187531862Y-103874927D01*
X187531858Y-103874928D01*
X187399261Y-103951484D01*
X186360799Y-104989948D01*
X186326151Y-105004300D01*
X185293561Y-105004300D01*
X185258913Y-104989948D01*
X184896711Y-104627746D01*
X184896709Y-104627743D01*
X184785650Y-104516684D01*
X184653052Y-104440128D01*
X184505158Y-104400499D01*
X184505156Y-104400499D01*
X184352044Y-104400499D01*
X184349047Y-104400499D01*
X184349031Y-104400500D01*
X183534078Y-104400500D01*
X183527683Y-104400081D01*
X183514200Y-104398306D01*
X183500717Y-104400081D01*
X183494322Y-104400500D01*
X183437641Y-104400500D01*
X183382899Y-104415168D01*
X183376615Y-104416419D01*
X183363130Y-104418194D01*
X183363123Y-104418196D01*
X183350563Y-104423398D01*
X183344499Y-104425456D01*
X183289753Y-104440126D01*
X183289749Y-104440128D01*
X183240664Y-104468466D01*
X183234921Y-104471298D01*
X183222356Y-104476503D01*
X183222350Y-104476507D01*
X183211564Y-104484783D01*
X183206238Y-104488342D01*
X183157147Y-104516686D01*
X183117064Y-104556767D01*
X183112251Y-104560989D01*
X183101466Y-104569266D01*
X183093189Y-104580051D01*
X183088967Y-104584864D01*
X183048886Y-104624947D01*
X183048884Y-104624949D01*
X183048884Y-104624950D01*
X183047270Y-104627746D01*
X183020542Y-104674038D01*
X183016983Y-104679364D01*
X183008707Y-104690150D01*
X183008703Y-104690156D01*
X183003498Y-104702721D01*
X183000666Y-104708464D01*
X182972328Y-104757549D01*
X182972326Y-104757553D01*
X182957656Y-104812299D01*
X182955598Y-104818363D01*
X182950396Y-104830923D01*
X182950394Y-104830930D01*
X182948619Y-104844415D01*
X182947371Y-104850689D01*
X182946933Y-104852325D01*
X182924109Y-104882083D01*
X182886928Y-104886986D01*
X182857170Y-104864162D01*
X182850600Y-104839653D01*
X182850600Y-102295055D01*
X182850600Y-102295052D01*
X182838967Y-102236569D01*
X182807479Y-102189445D01*
X182794652Y-102170247D01*
X182745766Y-102137583D01*
X182728331Y-102125933D01*
X182669848Y-102114300D01*
X180217352Y-102114300D01*
X180158869Y-102125933D01*
X180092547Y-102170247D01*
X180049721Y-102234342D01*
X180048233Y-102236569D01*
X180036600Y-102295052D01*
X179806303Y-102295052D01*
X180130303Y-101971052D01*
X180164951Y-101956700D01*
X186711049Y-101956700D01*
X186745697Y-101971052D01*
X187468535Y-102693890D01*
X187529510Y-102754865D01*
X187529513Y-102754866D01*
X187529516Y-102754869D01*
X187596716Y-102793666D01*
X187604190Y-102797981D01*
X187635692Y-102806422D01*
X187687482Y-102820300D01*
X187687484Y-102820300D01*
X191411318Y-102820300D01*
X191440380Y-102812512D01*
X191494610Y-102797981D01*
X191569290Y-102754865D01*
X191630265Y-102693890D01*
X191662011Y-102638901D01*
X191669793Y-102628760D01*
X192239264Y-102059289D01*
X192273911Y-102044938D01*
X192283471Y-102045880D01*
X192286421Y-102046466D01*
X192286422Y-102046467D01*
X192344905Y-102058100D01*
X192344906Y-102058100D01*
X192931496Y-102058100D01*
X192931499Y-102058100D01*
X192989979Y-102046468D01*
X193039555Y-102013342D01*
X193454340Y-101598557D01*
X193487467Y-101548978D01*
X193499100Y-101490495D01*
X193499100Y-100903901D01*
X193487468Y-100845421D01*
X193474564Y-100826109D01*
X193454344Y-100795847D01*
X193039556Y-100381059D01*
X193039552Y-100381056D01*
X192989979Y-100347933D01*
X192975357Y-100345024D01*
X192931495Y-100336300D01*
X192344901Y-100336300D01*
X192301041Y-100345024D01*
X192286420Y-100347932D01*
X192236847Y-100381055D01*
X191822059Y-100795843D01*
X191822056Y-100795847D01*
X191788933Y-100845420D01*
X191788933Y-100845422D01*
X191777300Y-100903905D01*
X191777300Y-101490499D01*
X191788932Y-101548978D01*
X191789519Y-101551928D01*
X191782202Y-101588710D01*
X191776108Y-101596135D01*
X191221297Y-102150948D01*
X191186649Y-102165300D01*
X190522761Y-102165300D01*
X190488113Y-102150948D01*
X190473761Y-102116300D01*
X190488113Y-102081652D01*
X190495538Y-102075558D01*
X190531113Y-102051787D01*
X190952785Y-101630113D01*
X190994095Y-101568290D01*
X190994096Y-101568288D01*
X191008599Y-101495376D01*
X191008600Y-101495371D01*
X191008600Y-101322200D01*
X190485443Y-101322200D01*
X190504600Y-101250704D01*
X190504600Y-101143696D01*
X190485443Y-101072200D01*
X191008601Y-101072200D01*
X191008601Y-100899030D01*
X191008600Y-100899026D01*
X190994095Y-100826109D01*
X190952787Y-100764286D01*
X190531113Y-100342614D01*
X190469290Y-100301304D01*
X190469288Y-100301303D01*
X190396376Y-100286800D01*
X190396370Y-100286799D01*
X190223200Y-100286799D01*
X190223200Y-100809956D01*
X190151704Y-100790800D01*
X190044696Y-100790800D01*
X189973200Y-100809956D01*
X189973200Y-100286799D01*
X189800026Y-100286799D01*
X189727109Y-100301304D01*
X189665286Y-100342612D01*
X189243614Y-100764286D01*
X189202304Y-100826109D01*
X189202303Y-100826111D01*
X189187800Y-100899023D01*
X189187800Y-101072200D01*
X189710957Y-101072200D01*
X189691800Y-101143696D01*
X189691800Y-101250704D01*
X189710957Y-101322200D01*
X189187799Y-101322200D01*
X189187799Y-101495373D01*
X189202304Y-101568290D01*
X189243612Y-101630113D01*
X189665287Y-102051786D01*
X189665288Y-102051787D01*
X189700863Y-102075558D01*
X189721699Y-102106741D01*
X189714382Y-102143523D01*
X189683199Y-102164359D01*
X189673640Y-102165300D01*
X187886551Y-102165300D01*
X187851903Y-102150948D01*
X187068092Y-101367137D01*
X187068090Y-101367135D01*
X187068087Y-101367133D01*
X187068083Y-101367130D01*
X186993411Y-101324019D01*
X186910118Y-101301700D01*
X186910116Y-101301700D01*
X180052116Y-101301700D01*
X179965884Y-101301700D01*
X179965882Y-101301700D01*
X179882589Y-101324019D01*
X179882587Y-101324019D01*
X179807916Y-101367130D01*
X179807907Y-101367137D01*
X176170201Y-105004842D01*
X176135553Y-105019194D01*
X176129159Y-105018775D01*
X176046600Y-105007906D01*
X176046599Y-105007906D01*
X175895529Y-105027794D01*
X175754757Y-105086103D01*
X175754752Y-105086106D01*
X175691429Y-105134696D01*
X175655204Y-105144403D01*
X175622726Y-105125651D01*
X175612600Y-105095822D01*
X175612600Y-102295055D01*
X175612600Y-102295052D01*
X175600967Y-102236569D01*
X175569479Y-102189445D01*
X175556652Y-102170247D01*
X175507766Y-102137583D01*
X175490331Y-102125933D01*
X175431848Y-102114300D01*
X172979352Y-102114300D01*
X172920869Y-102125933D01*
X172854547Y-102170247D01*
X172811721Y-102234342D01*
X172810233Y-102236569D01*
X172798600Y-102295052D01*
X172798600Y-102295055D01*
X172798600Y-104199100D01*
X172784248Y-104233748D01*
X172749600Y-104248100D01*
X172396162Y-104248100D01*
X172361514Y-104233748D01*
X169454452Y-101326686D01*
X169440100Y-101292038D01*
X169440100Y-100385055D01*
X169440100Y-100385052D01*
X169428467Y-100326569D01*
X169387493Y-100265248D01*
X169384152Y-100260247D01*
X169330031Y-100224085D01*
X169317831Y-100215933D01*
X169259348Y-100204300D01*
X166069852Y-100204300D01*
X166011369Y-100215933D01*
X165945047Y-100260247D01*
X165910296Y-100312257D01*
X165900733Y-100326569D01*
X165889100Y-100385052D01*
X165889100Y-100385055D01*
X165889100Y-102437638D01*
X165874748Y-102472286D01*
X164631286Y-103715747D01*
X164631279Y-103715756D01*
X164589163Y-103788706D01*
X164574024Y-103814928D01*
X164565018Y-103830527D01*
X164554727Y-103848350D01*
X164554726Y-103848352D01*
X164515099Y-103996241D01*
X164515099Y-104153299D01*
X164515100Y-104153312D01*
X164515100Y-106171238D01*
X164500748Y-106205886D01*
X163852748Y-106853886D01*
X163818100Y-106868238D01*
X163783452Y-106853886D01*
X163769100Y-106819238D01*
X163769100Y-106610800D01*
X162680600Y-106610800D01*
X162645952Y-106596448D01*
X162631600Y-106561800D01*
X162631600Y-106360800D01*
X162881600Y-106360800D01*
X163769100Y-106360800D01*
X163769100Y-106136176D01*
X163769099Y-106136170D01*
X163754596Y-106063257D01*
X163699340Y-105980559D01*
X163616642Y-105925303D01*
X163543729Y-105910800D01*
X162881600Y-105910800D01*
X162881600Y-106360800D01*
X162631600Y-106360800D01*
X162631600Y-105910800D01*
X161988717Y-105910800D01*
X161954069Y-105896448D01*
X161940658Y-105871359D01*
X161936282Y-105849359D01*
X161943599Y-105812577D01*
X161974782Y-105791741D01*
X161984341Y-105790800D01*
X162631600Y-105790800D01*
X162881600Y-105790800D01*
X163543724Y-105790800D01*
X163543729Y-105790799D01*
X163616642Y-105776296D01*
X163699340Y-105721040D01*
X163754596Y-105638342D01*
X163769099Y-105565429D01*
X163769100Y-105565424D01*
X163769100Y-105340800D01*
X162881600Y-105340800D01*
X162881600Y-105790800D01*
X162631600Y-105790800D01*
X162631600Y-105340800D01*
X161744100Y-105340800D01*
X161744100Y-105565421D01*
X161752418Y-105607241D01*
X161745101Y-105644023D01*
X161713918Y-105664859D01*
X161704359Y-105665800D01*
X160169600Y-105665800D01*
X159919600Y-105665800D01*
X158369977Y-105665800D01*
X158342660Y-105671233D01*
X158305878Y-105663915D01*
X158285043Y-105632732D01*
X158285043Y-105613616D01*
X158295600Y-105560548D01*
X158295600Y-104871052D01*
X158294629Y-104866170D01*
X161744100Y-104866170D01*
X161744100Y-105090800D01*
X162631600Y-105090800D01*
X162881600Y-105090800D01*
X163769100Y-105090800D01*
X163769100Y-104866176D01*
X163769099Y-104866170D01*
X163754596Y-104793257D01*
X163699340Y-104710559D01*
X163616642Y-104655303D01*
X163543729Y-104640800D01*
X162881600Y-104640800D01*
X162881600Y-105090800D01*
X162631600Y-105090800D01*
X162631600Y-104640800D01*
X161969470Y-104640800D01*
X161896557Y-104655303D01*
X161813859Y-104710559D01*
X161758603Y-104793257D01*
X161744100Y-104866170D01*
X158294629Y-104866170D01*
X158283967Y-104812569D01*
X158247206Y-104757553D01*
X158239652Y-104746247D01*
X158199895Y-104719682D01*
X158173331Y-104701933D01*
X158114848Y-104690300D01*
X158114845Y-104690300D01*
X157931900Y-104690300D01*
X157897252Y-104675948D01*
X157882900Y-104641300D01*
X157882900Y-104248300D01*
X157897252Y-104213652D01*
X157931900Y-104199300D01*
X158067345Y-104199300D01*
X158067348Y-104199300D01*
X158125831Y-104187667D01*
X158192152Y-104143352D01*
X158236467Y-104077031D01*
X158247129Y-104023429D01*
X158997600Y-104023429D01*
X159012103Y-104096342D01*
X159067359Y-104179040D01*
X159150057Y-104234296D01*
X159222970Y-104248799D01*
X159222976Y-104248800D01*
X159922600Y-104248800D01*
X160172600Y-104248800D01*
X160872224Y-104248800D01*
X160872229Y-104248799D01*
X160945142Y-104234296D01*
X161027840Y-104179040D01*
X161083096Y-104096342D01*
X161097599Y-104023429D01*
X161097600Y-104023424D01*
X161097600Y-102773800D01*
X160172600Y-102773800D01*
X160172600Y-104248800D01*
X159922600Y-104248800D01*
X159922600Y-102773800D01*
X158997600Y-102773800D01*
X158997600Y-104023429D01*
X158247129Y-104023429D01*
X158248100Y-104018548D01*
X158248100Y-101319900D01*
X158262452Y-101285252D01*
X158297100Y-101270900D01*
X158948600Y-101270900D01*
X158983248Y-101285252D01*
X158997600Y-101319900D01*
X158997600Y-102523800D01*
X161097600Y-102523800D01*
X161097600Y-101319900D01*
X161111952Y-101285252D01*
X161146600Y-101270900D01*
X162145639Y-101270900D01*
X162180287Y-101285252D01*
X163124558Y-102229523D01*
X163128784Y-102234342D01*
X163137062Y-102245130D01*
X163137064Y-102245131D01*
X163137066Y-102245134D01*
X163147862Y-102253418D01*
X163152671Y-102257636D01*
X163192751Y-102297716D01*
X163192753Y-102297717D01*
X163241837Y-102326056D01*
X163247156Y-102329609D01*
X163257953Y-102337894D01*
X163270526Y-102343102D01*
X163276249Y-102345924D01*
X163325349Y-102374272D01*
X163380113Y-102388945D01*
X163386168Y-102391002D01*
X163398724Y-102396203D01*
X163398729Y-102396205D01*
X163412206Y-102397979D01*
X163418486Y-102399228D01*
X163445775Y-102406540D01*
X163473242Y-102413901D01*
X163473244Y-102413901D01*
X163529930Y-102413901D01*
X163536325Y-102414319D01*
X163549800Y-102416094D01*
X163563274Y-102414319D01*
X163569670Y-102413901D01*
X163626358Y-102413901D01*
X163681106Y-102399230D01*
X163687395Y-102397979D01*
X163693775Y-102397139D01*
X163700871Y-102396205D01*
X163713438Y-102390999D01*
X163719482Y-102388947D01*
X163774250Y-102374272D01*
X163823342Y-102345927D01*
X163829079Y-102343098D01*
X163841647Y-102337894D01*
X163852448Y-102329604D01*
X163857748Y-102326063D01*
X163906849Y-102297716D01*
X163946935Y-102257628D01*
X163951738Y-102253417D01*
X163962534Y-102245134D01*
X163970817Y-102234338D01*
X163975028Y-102229535D01*
X164015116Y-102189449D01*
X164043463Y-102140348D01*
X164047004Y-102135048D01*
X164055294Y-102124247D01*
X164060498Y-102111679D01*
X164063327Y-102105942D01*
X164091672Y-102056850D01*
X164106347Y-102002082D01*
X164108399Y-101996038D01*
X164113605Y-101983471D01*
X164115379Y-101969995D01*
X164116630Y-101963706D01*
X164131301Y-101908957D01*
X164131301Y-101852270D01*
X164131720Y-101845874D01*
X164133494Y-101832400D01*
X164131720Y-101818924D01*
X164131301Y-101812529D01*
X164131301Y-101755842D01*
X164123940Y-101728375D01*
X164116628Y-101701086D01*
X164115379Y-101694805D01*
X164113605Y-101681332D01*
X164113605Y-101681329D01*
X164108402Y-101668768D01*
X164106345Y-101662713D01*
X164091672Y-101607949D01*
X164063324Y-101558849D01*
X164060502Y-101553126D01*
X164055294Y-101540553D01*
X164047009Y-101529756D01*
X164043456Y-101524437D01*
X164026676Y-101495373D01*
X164015116Y-101475351D01*
X163975037Y-101435272D01*
X163970818Y-101430462D01*
X163962534Y-101419666D01*
X163962531Y-101419664D01*
X163962530Y-101419662D01*
X163951742Y-101411384D01*
X163946923Y-101407158D01*
X162874911Y-100335146D01*
X162874909Y-100335143D01*
X162763850Y-100224084D01*
X162631252Y-100147528D01*
X162483358Y-100107899D01*
X162483356Y-100107899D01*
X162330244Y-100107899D01*
X162327247Y-100107899D01*
X162327231Y-100107900D01*
X158016569Y-100107900D01*
X158016553Y-100107899D01*
X158013556Y-100107899D01*
X157860444Y-100107899D01*
X157860441Y-100107899D01*
X157743802Y-100139152D01*
X157743803Y-100139153D01*
X157712550Y-100147527D01*
X157712546Y-100147528D01*
X157579949Y-100224084D01*
X157579949Y-100224085D01*
X156782286Y-101021748D01*
X156782284Y-101021750D01*
X156782284Y-101021751D01*
X156767303Y-101047700D01*
X156752233Y-101073801D01*
X156722480Y-101096631D01*
X156709798Y-101098300D01*
X156427852Y-101098300D01*
X156369369Y-101109933D01*
X156303047Y-101154247D01*
X156258733Y-101220569D01*
X156247100Y-101279052D01*
X156247100Y-101279055D01*
X156247100Y-102079797D01*
X156232748Y-102114445D01*
X156198100Y-102128797D01*
X155456100Y-102128797D01*
X155421452Y-102114445D01*
X155407100Y-102079797D01*
X155407100Y-101787055D01*
X155407100Y-101787052D01*
X155395467Y-101728569D01*
X155363902Y-101681329D01*
X155351152Y-101662247D01*
X155303059Y-101630113D01*
X155284831Y-101617933D01*
X155226348Y-101606300D01*
X153686852Y-101606300D01*
X153628369Y-101617933D01*
X153562047Y-101662247D01*
X153517733Y-101728569D01*
X153506100Y-101787052D01*
X153506100Y-103126548D01*
X153517733Y-103185031D01*
X153529940Y-103203300D01*
X153562047Y-103251352D01*
X153588612Y-103269101D01*
X153628369Y-103295667D01*
X153686852Y-103307300D01*
X153686855Y-103307300D01*
X155226345Y-103307300D01*
X155226348Y-103307300D01*
X155284831Y-103295667D01*
X155284838Y-103295662D01*
X155285165Y-103295528D01*
X155303920Y-103291797D01*
X156198100Y-103291797D01*
X156232748Y-103306149D01*
X156247100Y-103340797D01*
X156247100Y-103900863D01*
X156232748Y-103935511D01*
X156198100Y-103949863D01*
X156173601Y-103943299D01*
X156154251Y-103932128D01*
X156154247Y-103932126D01*
X156099503Y-103917458D01*
X156093436Y-103915399D01*
X156080872Y-103910195D01*
X156080866Y-103910194D01*
X156067385Y-103908419D01*
X156061100Y-103907168D01*
X156006359Y-103892500D01*
X156006356Y-103892500D01*
X155949678Y-103892500D01*
X155943283Y-103892081D01*
X155929800Y-103890306D01*
X155916317Y-103892081D01*
X155909922Y-103892500D01*
X155853241Y-103892500D01*
X155798499Y-103907168D01*
X155792215Y-103908419D01*
X155778730Y-103910194D01*
X155778723Y-103910196D01*
X155766163Y-103915398D01*
X155760099Y-103917456D01*
X155705353Y-103932126D01*
X155705349Y-103932128D01*
X155656264Y-103960466D01*
X155650521Y-103963298D01*
X155637956Y-103968503D01*
X155637950Y-103968507D01*
X155627164Y-103976783D01*
X155621838Y-103980342D01*
X155572747Y-104008686D01*
X155532664Y-104048767D01*
X155527851Y-104052989D01*
X155517066Y-104061266D01*
X155508789Y-104072051D01*
X155504567Y-104076864D01*
X155490749Y-104090683D01*
X155456102Y-104105036D01*
X155421453Y-104090685D01*
X155407100Y-104056038D01*
X155407100Y-103687055D01*
X155407100Y-103687052D01*
X155395467Y-103628569D01*
X155354669Y-103567511D01*
X155351152Y-103562247D01*
X155307185Y-103532870D01*
X155284831Y-103517933D01*
X155226348Y-103506300D01*
X153686852Y-103506300D01*
X153628369Y-103517933D01*
X153562047Y-103562247D01*
X153517733Y-103628569D01*
X153506100Y-103687052D01*
X153506100Y-103687055D01*
X153506100Y-104897849D01*
X153491748Y-104932497D01*
X153457100Y-104946849D01*
X153422452Y-104932497D01*
X152613557Y-104123602D01*
X152599205Y-104088954D01*
X152599624Y-104082558D01*
X152600672Y-104074598D01*
X152610494Y-104000000D01*
X152590605Y-103848929D01*
X152573163Y-103806819D01*
X152532296Y-103708157D01*
X152532293Y-103708152D01*
X152516102Y-103687052D01*
X152439534Y-103587266D01*
X152413782Y-103567506D01*
X152318647Y-103494506D01*
X152318642Y-103494503D01*
X152177870Y-103436194D01*
X152026800Y-103416306D01*
X151875729Y-103436194D01*
X151734957Y-103494503D01*
X151734952Y-103494506D01*
X151614066Y-103587265D01*
X151614065Y-103587266D01*
X151521306Y-103708152D01*
X151521303Y-103708157D01*
X151462994Y-103848929D01*
X151443106Y-104000000D01*
X145914965Y-104000000D01*
X145890237Y-103975272D01*
X145886018Y-103970462D01*
X145877734Y-103959666D01*
X145877731Y-103959664D01*
X145877730Y-103959662D01*
X145866942Y-103951384D01*
X145862123Y-103947158D01*
X145822049Y-103907084D01*
X145772963Y-103878744D01*
X145767636Y-103875184D01*
X145756847Y-103866906D01*
X145744282Y-103861701D01*
X145738535Y-103858867D01*
X145689452Y-103830528D01*
X145689449Y-103830527D01*
X145634704Y-103815859D01*
X145628634Y-103813799D01*
X145616072Y-103808595D01*
X145616068Y-103808594D01*
X145602584Y-103806819D01*
X145596299Y-103805568D01*
X145541558Y-103790900D01*
X145541555Y-103790900D01*
X145484878Y-103790900D01*
X145478483Y-103790481D01*
X145465000Y-103788706D01*
X145451517Y-103790481D01*
X145445122Y-103790900D01*
X145388441Y-103790900D01*
X145333699Y-103805568D01*
X145327415Y-103806819D01*
X145313930Y-103808594D01*
X145313923Y-103808596D01*
X145301363Y-103813798D01*
X145295300Y-103815856D01*
X145240550Y-103830527D01*
X145240549Y-103830528D01*
X145191458Y-103858869D01*
X145185715Y-103861701D01*
X145173154Y-103866905D01*
X145162363Y-103875184D01*
X145157039Y-103878740D01*
X145107959Y-103907078D01*
X145107946Y-103907088D01*
X145067868Y-103947164D01*
X145063055Y-103951386D01*
X145058534Y-103954856D01*
X145022310Y-103964567D01*
X144989829Y-103945819D01*
X144979700Y-103915985D01*
X144979700Y-103487712D01*
X144979701Y-103487699D01*
X144979701Y-103330641D01*
X144940073Y-103182752D01*
X144940071Y-103182746D01*
X144932788Y-103170132D01*
X144932784Y-103170127D01*
X144931933Y-103168652D01*
X144863516Y-103050150D01*
X144755250Y-102941884D01*
X144753544Y-102940178D01*
X144753533Y-102940168D01*
X143864452Y-102051087D01*
X143850100Y-102016439D01*
X143850100Y-101533055D01*
X143850100Y-101533052D01*
X143838467Y-101474569D01*
X143808989Y-101430453D01*
X143794152Y-101408247D01*
X143754395Y-101381682D01*
X143727831Y-101363933D01*
X143669348Y-101352300D01*
X142129852Y-101352300D01*
X142071369Y-101363933D01*
X142005047Y-101408247D01*
X141960733Y-101474569D01*
X141949100Y-101533052D01*
X141949100Y-101533055D01*
X141949100Y-102016439D01*
X141934748Y-102051087D01*
X141242248Y-102743587D01*
X141207600Y-102757939D01*
X141172952Y-102743587D01*
X141158600Y-102708939D01*
X141158600Y-101884800D01*
X139058600Y-101884800D01*
X139058600Y-103081500D01*
X139044248Y-103116148D01*
X139009600Y-103130500D01*
X138358100Y-103130500D01*
X138323452Y-103116148D01*
X138309100Y-103081500D01*
X138309100Y-100390055D01*
X138309100Y-100390052D01*
X138308129Y-100385170D01*
X139058600Y-100385170D01*
X139058600Y-101634800D01*
X139983600Y-101634800D01*
X140233600Y-101634800D01*
X141158600Y-101634800D01*
X141158600Y-100385176D01*
X141158599Y-100385170D01*
X141144096Y-100312257D01*
X141088840Y-100229559D01*
X141006142Y-100174303D01*
X140933229Y-100159800D01*
X140233600Y-100159800D01*
X140233600Y-101634800D01*
X139983600Y-101634800D01*
X139983600Y-100159800D01*
X139283970Y-100159800D01*
X139211057Y-100174303D01*
X139128359Y-100229559D01*
X139073103Y-100312257D01*
X139058600Y-100385170D01*
X138308129Y-100385170D01*
X138297467Y-100331569D01*
X138267552Y-100286799D01*
X138253152Y-100265247D01*
X138213395Y-100238682D01*
X138186831Y-100220933D01*
X138128348Y-100209300D01*
X136488852Y-100209300D01*
X136430369Y-100220933D01*
X136364047Y-100265247D01*
X136332637Y-100312257D01*
X136319733Y-100331569D01*
X136308100Y-100390052D01*
X136308100Y-100390055D01*
X136308100Y-101815438D01*
X136293748Y-101850086D01*
X134153885Y-103989949D01*
X134153884Y-103989949D01*
X134108216Y-104069050D01*
X134097278Y-104087995D01*
X134092459Y-104096342D01*
X134077327Y-104122550D01*
X134077326Y-104122552D01*
X134037699Y-104270441D01*
X134037699Y-104427499D01*
X134037700Y-104427512D01*
X134037700Y-104585300D01*
X134023348Y-104619948D01*
X133988700Y-104634300D01*
X133817352Y-104634300D01*
X133758869Y-104645933D01*
X133692547Y-104690247D01*
X133648232Y-104756570D01*
X133642884Y-104783457D01*
X133622049Y-104814639D01*
X133585266Y-104821955D01*
X133570326Y-104816332D01*
X133568713Y-104815401D01*
X133530160Y-104793142D01*
X133524837Y-104789585D01*
X133514047Y-104781306D01*
X133514043Y-104781304D01*
X133501484Y-104776102D01*
X133495739Y-104773269D01*
X133484495Y-104766777D01*
X133446653Y-104744928D01*
X133446647Y-104744926D01*
X133391903Y-104730258D01*
X133385836Y-104728199D01*
X133373272Y-104722995D01*
X133373266Y-104722994D01*
X133359785Y-104721219D01*
X133353500Y-104719968D01*
X133298759Y-104705300D01*
X133298756Y-104705300D01*
X133242078Y-104705300D01*
X133235683Y-104704881D01*
X133222200Y-104703106D01*
X133208717Y-104704881D01*
X133202322Y-104705300D01*
X133145641Y-104705300D01*
X133090899Y-104719968D01*
X133084615Y-104721219D01*
X133071130Y-104722994D01*
X133071123Y-104722996D01*
X133058563Y-104728198D01*
X133052499Y-104730256D01*
X132997753Y-104744926D01*
X132997749Y-104744928D01*
X132948664Y-104773266D01*
X132942921Y-104776098D01*
X132930356Y-104781303D01*
X132930350Y-104781307D01*
X132919564Y-104789583D01*
X132914238Y-104793142D01*
X132897388Y-104802871D01*
X132866410Y-104820757D01*
X132865147Y-104821486D01*
X132825064Y-104861567D01*
X132820251Y-104865789D01*
X132809466Y-104874066D01*
X132801189Y-104884851D01*
X132796967Y-104889664D01*
X132756886Y-104929747D01*
X132756884Y-104929749D01*
X132756884Y-104929750D01*
X132754602Y-104933703D01*
X132728542Y-104978838D01*
X132724983Y-104984164D01*
X132716707Y-104994950D01*
X132716703Y-104994956D01*
X132711498Y-105007521D01*
X132708666Y-105013264D01*
X132680328Y-105062349D01*
X132680326Y-105062353D01*
X132665656Y-105117099D01*
X132663598Y-105123163D01*
X132658396Y-105135723D01*
X132658394Y-105135730D01*
X132656619Y-105149215D01*
X132655368Y-105155499D01*
X132640700Y-105210240D01*
X132640700Y-105266921D01*
X132640281Y-105273316D01*
X132638506Y-105286800D01*
X132305100Y-105286800D01*
X132305100Y-103884099D01*
X132319452Y-103849451D01*
X132324255Y-103845237D01*
X132390334Y-103794534D01*
X132483094Y-103673647D01*
X132541405Y-103532871D01*
X132561294Y-103381800D01*
X132541405Y-103230729D01*
X132530886Y-103205333D01*
X132483096Y-103089957D01*
X132483093Y-103089952D01*
X132473247Y-103077121D01*
X132390334Y-102969066D01*
X132371287Y-102954451D01*
X132269447Y-102876306D01*
X132269442Y-102876303D01*
X132128670Y-102817994D01*
X131977600Y-102798106D01*
X131826529Y-102817994D01*
X131685757Y-102876303D01*
X131685752Y-102876306D01*
X131564866Y-102969065D01*
X131564865Y-102969066D01*
X131472106Y-103089952D01*
X131472103Y-103089957D01*
X131413794Y-103230729D01*
X131393906Y-103381800D01*
X131413794Y-103532870D01*
X131472103Y-103673642D01*
X131472106Y-103673647D01*
X131564863Y-103794531D01*
X131564864Y-103794532D01*
X131564866Y-103794534D01*
X131630930Y-103845226D01*
X131649681Y-103877703D01*
X131650100Y-103884099D01*
X131650100Y-107666717D01*
X131672419Y-107750010D01*
X131672419Y-107750012D01*
X131715530Y-107824683D01*
X131715537Y-107824692D01*
X131748592Y-107857747D01*
X131762944Y-107892395D01*
X131748592Y-107927043D01*
X131713944Y-107941395D01*
X131701262Y-107939725D01*
X131639959Y-107923299D01*
X131639956Y-107923299D01*
X131486844Y-107923299D01*
X131483847Y-107923299D01*
X131483831Y-107923300D01*
X131445543Y-107923300D01*
X131410895Y-107908948D01*
X131396543Y-107874300D01*
X131396543Y-107385055D01*
X131396543Y-107385052D01*
X131384910Y-107326569D01*
X131351960Y-107277257D01*
X131340595Y-107260247D01*
X131295775Y-107230300D01*
X131274274Y-107215933D01*
X131215791Y-107204300D01*
X129697638Y-107204300D01*
X129662990Y-107189948D01*
X129648638Y-107155300D01*
X129662990Y-107120652D01*
X129684954Y-107107970D01*
X129685176Y-107107910D01*
X129721316Y-107098226D01*
X129727588Y-107096979D01*
X129741071Y-107095205D01*
X129753632Y-107090001D01*
X129759688Y-107087945D01*
X129814451Y-107073272D01*
X129863545Y-107044926D01*
X129869289Y-107042094D01*
X129881847Y-107036894D01*
X129892634Y-107028616D01*
X129897959Y-107025057D01*
X129947050Y-106996716D01*
X129987139Y-106956625D01*
X129991951Y-106952407D01*
X130002734Y-106944134D01*
X130011007Y-106933351D01*
X130015225Y-106928539D01*
X130055316Y-106888450D01*
X130083657Y-106839359D01*
X130087217Y-106834033D01*
X130095494Y-106823247D01*
X130100693Y-106810693D01*
X130103526Y-106804945D01*
X130131872Y-106755851D01*
X130146545Y-106701088D01*
X130148603Y-106695028D01*
X130149892Y-106691916D01*
X130153805Y-106682471D01*
X130155580Y-106668985D01*
X130156826Y-106662716D01*
X130171500Y-106607956D01*
X130171500Y-106551277D01*
X130171919Y-106544881D01*
X130172056Y-106543842D01*
X130173694Y-106531400D01*
X130171919Y-106517916D01*
X130171500Y-106511521D01*
X130171500Y-102854300D01*
X130185852Y-102819652D01*
X130220500Y-102805300D01*
X131215788Y-102805300D01*
X131215791Y-102805300D01*
X131274274Y-102793667D01*
X131340595Y-102749352D01*
X131384910Y-102683031D01*
X131396543Y-102624548D01*
X131396543Y-100385052D01*
X131384910Y-100326569D01*
X131343936Y-100265248D01*
X131340595Y-100260247D01*
X131286474Y-100224085D01*
X131274274Y-100215933D01*
X131215791Y-100204300D01*
X128026295Y-100204300D01*
X127967812Y-100215933D01*
X127901490Y-100260247D01*
X127866739Y-100312257D01*
X127857176Y-100326569D01*
X127845543Y-100385052D01*
X127845543Y-100385055D01*
X127845543Y-100998700D01*
X127831191Y-101033348D01*
X127796543Y-101047700D01*
X120906569Y-101047700D01*
X120906553Y-101047699D01*
X120903556Y-101047699D01*
X120750444Y-101047699D01*
X120750442Y-101047699D01*
X120602548Y-101087328D01*
X120602546Y-101087328D01*
X120469949Y-101163884D01*
X120469949Y-101163885D01*
X120361684Y-101272150D01*
X120361682Y-101272152D01*
X118875896Y-102757939D01*
X117400087Y-104233748D01*
X117365439Y-104248100D01*
X117241600Y-104248100D01*
X117206952Y-104233748D01*
X117192600Y-104199100D01*
X117192600Y-102219055D01*
X117192600Y-102219052D01*
X117180967Y-102160569D01*
X117151387Y-102116300D01*
X117136652Y-102094247D01*
X117096895Y-102067682D01*
X117070331Y-102049933D01*
X117011848Y-102038300D01*
X114559352Y-102038300D01*
X114500869Y-102049933D01*
X114434547Y-102094247D01*
X114390233Y-102160569D01*
X114378600Y-102219052D01*
X114378600Y-102219055D01*
X114378600Y-104430905D01*
X114364248Y-104465553D01*
X114329600Y-104479905D01*
X114310849Y-104476175D01*
X114299084Y-104471302D01*
X114293339Y-104468469D01*
X114279564Y-104460516D01*
X114244253Y-104440128D01*
X114244247Y-104440126D01*
X114189503Y-104425458D01*
X114183436Y-104423399D01*
X114170872Y-104418195D01*
X114170866Y-104418194D01*
X114157385Y-104416419D01*
X114151100Y-104415168D01*
X114096359Y-104400500D01*
X114096356Y-104400500D01*
X114039678Y-104400500D01*
X114033283Y-104400081D01*
X114019800Y-104398306D01*
X114006317Y-104400081D01*
X113999922Y-104400500D01*
X112114442Y-104400500D01*
X112084103Y-104408630D01*
X112071420Y-104410300D01*
X110531561Y-104410300D01*
X110496913Y-104395948D01*
X110423911Y-104322946D01*
X110423909Y-104322943D01*
X110312850Y-104211884D01*
X110180253Y-104135328D01*
X110174897Y-104133893D01*
X110167581Y-104131933D01*
X110111665Y-104116950D01*
X110032358Y-104095699D01*
X110032356Y-104095699D01*
X109879244Y-104095699D01*
X109876247Y-104095699D01*
X109876231Y-104095700D01*
X106475641Y-104095700D01*
X106390067Y-104118630D01*
X106377385Y-104120300D01*
X103890852Y-104120300D01*
X103832369Y-104131933D01*
X103766047Y-104176247D01*
X103727627Y-104233748D01*
X103721733Y-104242569D01*
X103710100Y-104301052D01*
X103710100Y-105040548D01*
X103719162Y-105086106D01*
X103721733Y-105099031D01*
X103723579Y-105103488D01*
X103722692Y-105103855D01*
X103729047Y-105135814D01*
X103721731Y-105153474D01*
X103675103Y-105223257D01*
X103660600Y-105296170D01*
X101515100Y-105296170D01*
X101515100Y-102991238D01*
X101500162Y-102976300D01*
X100500163Y-101976300D01*
X98564282Y-101976300D01*
X98529634Y-101961948D01*
X98515282Y-101927300D01*
X98515282Y-101927180D01*
X98516196Y-101553114D01*
X98517781Y-100903905D01*
X103710100Y-100903905D01*
X103710100Y-101490499D01*
X103721732Y-101548978D01*
X103721732Y-101548979D01*
X103754855Y-101598552D01*
X104169643Y-102013340D01*
X104169647Y-102013343D01*
X104219220Y-102046466D01*
X104219222Y-102046467D01*
X104277705Y-102058100D01*
X104277708Y-102058100D01*
X104864296Y-102058100D01*
X104864299Y-102058100D01*
X104922779Y-102046468D01*
X104972355Y-102013342D01*
X105387140Y-101598557D01*
X105420267Y-101548978D01*
X105431900Y-101490495D01*
X105431900Y-101322200D01*
X106200599Y-101322200D01*
X106200599Y-101495373D01*
X106215104Y-101568290D01*
X106256412Y-101630113D01*
X106678086Y-102051785D01*
X106739909Y-102093095D01*
X106739911Y-102093096D01*
X106812823Y-102107599D01*
X106812829Y-102107600D01*
X106986000Y-102107600D01*
X106986000Y-101584443D01*
X107057496Y-101603600D01*
X107164504Y-101603600D01*
X107236000Y-101584443D01*
X107236000Y-102107600D01*
X107409173Y-102107600D01*
X107482090Y-102093095D01*
X107543913Y-102051787D01*
X107965585Y-101630113D01*
X108006895Y-101568290D01*
X108006896Y-101568288D01*
X108021399Y-101495376D01*
X108021400Y-101495371D01*
X108021400Y-101322200D01*
X107498243Y-101322200D01*
X107517400Y-101250704D01*
X107517400Y-101143696D01*
X107498243Y-101072200D01*
X108021401Y-101072200D01*
X108021401Y-100899030D01*
X108021400Y-100899026D01*
X108006895Y-100826109D01*
X107965587Y-100764286D01*
X107543913Y-100342614D01*
X107482090Y-100301304D01*
X107482088Y-100301303D01*
X107409176Y-100286800D01*
X107409170Y-100286799D01*
X107236000Y-100286799D01*
X107236000Y-100809956D01*
X107164504Y-100790800D01*
X107057496Y-100790800D01*
X106986000Y-100809956D01*
X106986000Y-100286799D01*
X106812826Y-100286799D01*
X106739909Y-100301304D01*
X106678086Y-100342612D01*
X106256414Y-100764286D01*
X106215104Y-100826109D01*
X106215103Y-100826111D01*
X106200600Y-100899023D01*
X106200600Y-101072200D01*
X106723757Y-101072200D01*
X106704600Y-101143696D01*
X106704600Y-101250704D01*
X106723757Y-101322200D01*
X106200599Y-101322200D01*
X105431900Y-101322200D01*
X105431900Y-100903901D01*
X105420268Y-100845421D01*
X105407364Y-100826109D01*
X105387144Y-100795847D01*
X104972356Y-100381059D01*
X104972352Y-100381056D01*
X104922779Y-100347933D01*
X104908157Y-100345024D01*
X104864295Y-100336300D01*
X104277701Y-100336300D01*
X104233841Y-100345024D01*
X104219220Y-100347932D01*
X104169647Y-100381055D01*
X103754859Y-100795843D01*
X103754856Y-100795847D01*
X103721733Y-100845420D01*
X103721733Y-100845422D01*
X103710100Y-100903905D01*
X98517781Y-100903905D01*
X98524718Y-98063628D01*
X98539154Y-98029017D01*
X98573750Y-98014750D01*
X198437697Y-98083248D01*
G37*
%TD.AperFunction*%
%TD*%
M02*
