%TF.GenerationSoftware,KiCad,Pcbnew,8.0.6*%
%TF.CreationDate,2024-10-30T16:29:04-06:00*%
%TF.ProjectId,Lightbar,4c696768-7462-4617-922e-6b696361645f,rev?*%
%TF.SameCoordinates,Original*%
%TF.FileFunction,Copper,L2,Bot*%
%TF.FilePolarity,Positive*%
%FSLAX46Y46*%
G04 Gerber Fmt 4.6, Leading zero omitted, Abs format (unit mm)*
G04 Created by KiCad (PCBNEW 8.0.6) date 2024-10-30 16:29:04*
%MOMM*%
%LPD*%
G01*
G04 APERTURE LIST*
G04 Aperture macros list*
%AMOutline5P*
0 Free polygon, 5 corners , with rotation*
0 The origin of the aperture is its center*
0 number of corners: always 5*
0 $1 to $10 corner X, Y*
0 $11 Rotation angle, in degrees counterclockwise*
0 create outline with 5 corners*
4,1,5,$1,$2,$3,$4,$5,$6,$7,$8,$9,$10,$1,$2,$11*%
%AMOutline6P*
0 Free polygon, 6 corners , with rotation*
0 The origin of the aperture is its center*
0 number of corners: always 6*
0 $1 to $12 corner X, Y*
0 $13 Rotation angle, in degrees counterclockwise*
0 create outline with 6 corners*
4,1,6,$1,$2,$3,$4,$5,$6,$7,$8,$9,$10,$11,$12,$1,$2,$13*%
%AMOutline7P*
0 Free polygon, 7 corners , with rotation*
0 The origin of the aperture is its center*
0 number of corners: always 7*
0 $1 to $14 corner X, Y*
0 $15 Rotation angle, in degrees counterclockwise*
0 create outline with 7 corners*
4,1,7,$1,$2,$3,$4,$5,$6,$7,$8,$9,$10,$11,$12,$13,$14,$1,$2,$15*%
%AMOutline8P*
0 Free polygon, 8 corners , with rotation*
0 The origin of the aperture is its center*
0 number of corners: always 8*
0 $1 to $16 corner X, Y*
0 $17 Rotation angle, in degrees counterclockwise*
0 create outline with 8 corners*
4,1,8,$1,$2,$3,$4,$5,$6,$7,$8,$9,$10,$11,$12,$13,$14,$15,$16,$1,$2,$17*%
G04 Aperture macros list end*
%TA.AperFunction,ComponentPad*%
%ADD10Outline8P,-1.079500X0.447144X-0.447144X1.079500X0.447144X1.079500X1.079500X0.447144X1.079500X-0.447144X0.447144X-1.079500X-0.447144X-1.079500X-1.079500X-0.447144X0.000000*%
%TD*%
%TA.AperFunction,ComponentPad*%
%ADD11Outline8P,-0.660400X0.273547X-0.273547X0.660400X0.273547X0.660400X0.660400X0.273547X0.660400X-0.273547X0.273547X-0.660400X-0.273547X-0.660400X-0.660400X-0.273547X0.000000*%
%TD*%
%TA.AperFunction,ComponentPad*%
%ADD12Outline8P,-0.660400X0.273547X-0.273547X0.660400X0.273547X0.660400X0.660400X0.273547X0.660400X-0.273547X0.273547X-0.660400X-0.273547X-0.660400X-0.660400X-0.273547X180.000000*%
%TD*%
%TA.AperFunction,ViaPad*%
%ADD13C,0.600000*%
%TD*%
%TA.AperFunction,ViaPad*%
%ADD14C,0.756400*%
%TD*%
%TA.AperFunction,Conductor*%
%ADD15C,0.200000*%
%TD*%
%TA.AperFunction,Conductor*%
%ADD16C,0.254000*%
%TD*%
%TA.AperFunction,Conductor*%
%ADD17C,0.762000*%
%TD*%
%TA.AperFunction,Conductor*%
%ADD18C,0.152400*%
%TD*%
G04 APERTURE END LIST*
D10*
%TO.P,VCC,MP*%
%TO.N,N$4*%
X143788600Y-108525300D03*
%TD*%
%TO.P,PWM,MP*%
%TO.N,PWM1*%
X146963600Y-108525300D03*
%TD*%
%TO.P,GND,MP*%
%TO.N,GND*%
X153440600Y-108525300D03*
%TD*%
%TO.P,LSR,MP*%
%TO.N,N$10*%
X150138600Y-108525300D03*
%TD*%
D11*
%TO.P,LSR2,A*%
%TO.N,N$10*%
X104571000Y-101197200D03*
%TO.P,LSR2,K*%
%TO.N,GND*%
X107111000Y-101197200D03*
%TD*%
D12*
%TO.P,LSR1,A*%
%TO.N,N$10*%
X192638200Y-101197200D03*
%TO.P,LSR1,K*%
%TO.N,GND*%
X190098200Y-101197200D03*
%TD*%
D13*
%TO.N,GND*%
X107944220Y-107753447D03*
X106409799Y-107738255D03*
X104708262Y-107783832D03*
X104753839Y-105839219D03*
X106409799Y-105945565D03*
X107929027Y-105960757D03*
X107944220Y-106841910D03*
X104738647Y-106811525D03*
X106400600Y-106810800D03*
X138313041Y-107750670D03*
X136252294Y-107770603D03*
X136201579Y-106523018D03*
X138339436Y-106490210D03*
X137311600Y-107064800D03*
X159017134Y-107740250D03*
X160996682Y-107767367D03*
X159000000Y-106500000D03*
X161000000Y-106500000D03*
X189000000Y-107500000D03*
X190789882Y-107528392D03*
X192500000Y-107500000D03*
X192500000Y-105500000D03*
X190796784Y-105513019D03*
X189000000Y-105500000D03*
X189000000Y-106500000D03*
X192500000Y-106500000D03*
X190808600Y-106556800D03*
D14*
X133222200Y-107572800D03*
X164007000Y-105896400D03*
X142975800Y-105363000D03*
%TO.N,N$3*%
X155929800Y-104474000D03*
X183514200Y-104982000D03*
%TO.N,N$4*%
X167715400Y-103356400D03*
X163549800Y-101832400D03*
X132206200Y-109147600D03*
X145465000Y-104372400D03*
%TO.N,N$7*%
X129590000Y-106531400D03*
X141426400Y-106607600D03*
%TO.N,N$9*%
X141502600Y-104651800D03*
X114019800Y-104982000D03*
X133222200Y-105286800D03*
%TO.N,PWM1*%
X154278800Y-106252000D03*
X152026800Y-104000000D03*
X155421800Y-108233200D03*
X131977600Y-103381800D03*
X145642800Y-105439200D03*
%TO.N,N$10*%
X176046600Y-105591600D03*
X148563800Y-105312200D03*
D13*
%TO.N,GND*%
X160044600Y-107120800D03*
%TD*%
D15*
%TO.N,GND*%
X104753839Y-105839219D02*
X103308672Y-104394052D01*
X105913800Y-100000000D02*
X107111000Y-101197200D01*
X103308672Y-104394052D02*
X103308672Y-100691328D01*
X103308672Y-100691328D02*
X104000000Y-100000000D01*
X104000000Y-100000000D02*
X105913800Y-100000000D01*
X104708262Y-107783832D02*
X104708262Y-106841910D01*
X104708262Y-106841910D02*
X104738647Y-106811525D01*
X106409799Y-107090201D02*
X106500000Y-107000000D01*
X106409799Y-107738255D02*
X106409799Y-107090201D01*
X106400600Y-106900600D02*
X106400600Y-106810800D01*
X106500000Y-107000000D02*
X106400600Y-106900600D01*
X107944220Y-107753447D02*
X107944220Y-106841910D01*
X107944220Y-106055780D02*
X108000000Y-106000000D01*
X108000000Y-106000000D02*
X107968270Y-106000000D01*
X107944220Y-106841910D02*
X107944220Y-106055780D01*
X107968270Y-106000000D02*
X107929027Y-105960757D01*
X106400600Y-106810800D02*
X106400600Y-105954764D01*
X106400600Y-105954764D02*
X106409799Y-105945565D01*
X104738647Y-106811525D02*
X104738647Y-105854411D01*
X104738647Y-105854411D02*
X104753839Y-105839219D01*
X106409799Y-105945565D02*
X104860185Y-105945565D01*
X104860185Y-105945565D02*
X104753839Y-105839219D01*
X104738647Y-106811525D02*
X106399875Y-106811525D01*
X106399875Y-106811525D02*
X106400600Y-106810800D01*
X106409799Y-107738255D02*
X104753839Y-107738255D01*
X104753839Y-107738255D02*
X104708262Y-107783832D01*
X107929027Y-105960757D02*
X106424991Y-105960757D01*
X106424991Y-105960757D02*
X106409799Y-105945565D01*
X107944220Y-106841910D02*
X106431710Y-106841910D01*
X106431710Y-106841910D02*
X106400600Y-106810800D01*
X107944220Y-107753447D02*
X106424991Y-107753447D01*
X106424991Y-107753447D02*
X106409799Y-107738255D01*
D16*
X190098200Y-101401800D02*
X187500000Y-104000000D01*
X187500000Y-104000000D02*
X182301600Y-109198400D01*
D15*
X189000000Y-105500000D02*
X187500000Y-104000000D01*
X190808600Y-106556800D02*
X192443200Y-106556800D01*
X192443200Y-106556800D02*
X192500000Y-106500000D01*
X190808600Y-106556800D02*
X190808600Y-107509674D01*
X190808600Y-107509674D02*
X190789882Y-107528392D01*
X189000000Y-106500000D02*
X190751800Y-106500000D01*
X190751800Y-106500000D02*
X190808600Y-106556800D01*
X189000000Y-106500000D02*
X189000000Y-105500000D01*
X190796784Y-105513019D02*
X189013019Y-105513019D01*
X189013019Y-105513019D02*
X189000000Y-105500000D01*
X190808600Y-106556800D02*
X190808600Y-105524835D01*
X190808600Y-105524835D02*
X190796784Y-105513019D01*
X192500000Y-105500000D02*
X190809803Y-105500000D01*
X190809803Y-105500000D02*
X190796784Y-105513019D01*
X192500000Y-106500000D02*
X192500000Y-105500000D01*
X192500000Y-107500000D02*
X192500000Y-106500000D01*
X189000000Y-107500000D02*
X189000000Y-106500000D01*
X190789882Y-107528392D02*
X190761490Y-107500000D01*
X190761490Y-107500000D02*
X189000000Y-107500000D01*
X192500000Y-107500000D02*
X190818274Y-107500000D01*
X190818274Y-107500000D02*
X190789882Y-107528392D01*
X160996682Y-107767367D02*
X162867649Y-105896400D01*
X162867649Y-105896400D02*
X164007000Y-105896400D01*
X160044600Y-107120800D02*
X159636584Y-107120800D01*
X159636584Y-107120800D02*
X159017134Y-107740250D01*
X160044600Y-107120800D02*
X159620800Y-107120800D01*
X159620800Y-107120800D02*
X159000000Y-106500000D01*
X160044600Y-107120800D02*
X160379200Y-107120800D01*
X160379200Y-107120800D02*
X161000000Y-106500000D01*
X160044600Y-107120800D02*
X160350115Y-107120800D01*
X160350115Y-107120800D02*
X160996682Y-107767367D01*
X159017134Y-107740250D02*
X160969565Y-107740250D01*
X160969565Y-107740250D02*
X160996682Y-107767367D01*
X136252294Y-107770603D02*
X133420003Y-107770603D01*
X133420003Y-107770603D02*
X133222200Y-107572800D01*
X137311600Y-107064800D02*
X136743361Y-107064800D01*
X136743361Y-107064800D02*
X136201579Y-106523018D01*
X137311600Y-107064800D02*
X137764846Y-107064800D01*
X137764846Y-107064800D02*
X138339436Y-106490210D01*
X137311600Y-107064800D02*
X137627171Y-107064800D01*
X137627171Y-107064800D02*
X138313041Y-107750670D01*
X137311600Y-107064800D02*
X136958097Y-107064800D01*
X136958097Y-107064800D02*
X136252294Y-107770603D01*
X136252294Y-107770603D02*
X138293108Y-107770603D01*
X138293108Y-107770603D02*
X138313041Y-107750670D01*
D16*
%TO.N,N$10*%
X176046600Y-105591600D02*
X165586749Y-105591600D01*
X165586749Y-105591600D02*
X163995149Y-104000000D01*
X163995149Y-104000000D02*
X157418873Y-104000000D01*
X156106673Y-105312200D02*
X148563800Y-105312200D01*
X157418873Y-104000000D02*
X156106673Y-105312200D01*
D17*
%TO.N,N$3*%
X183514200Y-104982000D02*
X182803000Y-104270800D01*
X165539927Y-104270800D02*
X164269127Y-103000000D01*
X157403800Y-103000000D02*
X155929800Y-104474000D01*
X182803000Y-104270800D02*
X165539927Y-104270800D01*
X164269127Y-103000000D02*
X157403800Y-103000000D01*
%TO.N,N$4*%
X167715400Y-103356400D02*
X166356400Y-103356400D01*
X166356400Y-103356400D02*
X164832400Y-101832400D01*
X164832400Y-101832400D02*
X163549800Y-101832400D01*
X148005000Y-101832400D02*
X163549800Y-101832400D01*
X145465000Y-104372400D02*
X148005000Y-101832400D01*
D16*
%TO.N,PWM1*%
X152026800Y-104000000D02*
X147082000Y-104000000D01*
X147082000Y-104000000D02*
X145642800Y-105439200D01*
D17*
%TO.N,GND*%
X155915300Y-111000000D02*
X153440600Y-108525300D01*
X152856400Y-106429800D02*
X144042600Y-106429800D01*
X135328600Y-109679200D02*
X133222200Y-107572800D01*
D16*
X190098200Y-101197200D02*
X190098200Y-101401800D01*
D17*
X153440600Y-107014000D02*
X152856400Y-106429800D01*
X144042600Y-106429800D02*
X142899600Y-106429800D01*
X153440600Y-108525300D02*
X153440600Y-107014000D01*
X162205400Y-111000000D02*
X155915300Y-111000000D01*
D16*
X108697200Y-101197200D02*
X107111000Y-101197200D01*
D17*
X139701000Y-109679200D02*
X135328600Y-109679200D01*
X164007000Y-109198400D02*
X164007000Y-105896400D01*
X164007000Y-109198400D02*
X162205400Y-111000000D01*
D16*
X133222200Y-107572800D02*
X115072800Y-107572800D01*
D17*
X142925000Y-106455200D02*
X139701000Y-109679200D01*
X144042600Y-106429800D02*
X142975800Y-105363000D01*
D16*
X115072800Y-107572800D02*
X108697200Y-101197200D01*
D18*
X142899600Y-106429800D02*
X142925000Y-106455200D01*
D16*
X182301600Y-109198400D02*
X164007000Y-109198400D01*
D17*
%TO.N,N$4*%
X134058600Y-111000000D02*
X141313900Y-111000000D01*
X141313900Y-111000000D02*
X143788600Y-108525300D01*
X132206200Y-109147600D02*
X134058600Y-111000000D01*
%TO.N,N$7*%
X135802156Y-104000000D02*
X133270756Y-106531400D01*
X138818800Y-104000000D02*
X135802156Y-104000000D01*
X141426400Y-106607600D02*
X138818800Y-104000000D01*
X133270756Y-106531400D02*
X129590000Y-106531400D01*
%TO.N,N$9*%
X114324600Y-105286800D02*
X133222200Y-105286800D01*
X114019800Y-104982000D02*
X114324600Y-105286800D01*
X139850800Y-103000000D02*
X135509000Y-103000000D01*
X135509000Y-103000000D02*
X133222200Y-105286800D01*
X141502600Y-104651800D02*
X139850800Y-103000000D01*
D16*
%TO.N,PWM1*%
X133359400Y-102000000D02*
X131977600Y-103381800D01*
D18*
X154278800Y-106252000D02*
X154329600Y-106252000D01*
D16*
X141441600Y-102000000D02*
X133359400Y-102000000D01*
X155421800Y-107344200D02*
X155421800Y-108233200D01*
X155421800Y-107344200D02*
X154329600Y-106252000D01*
X144880800Y-105439200D02*
X141441600Y-102000000D01*
X145642800Y-105439200D02*
X144880800Y-105439200D01*
D18*
%TO.N,N$10*%
X150138600Y-108525300D02*
X150138600Y-108360200D01*
D16*
X106373800Y-103000000D02*
X104571000Y-101197200D01*
X150138600Y-108360200D02*
X148894000Y-107115600D01*
X143276524Y-107115600D02*
X140052524Y-110339600D01*
X134332146Y-110339600D02*
X132479746Y-108487200D01*
X132479746Y-108487200D02*
X114487200Y-108487200D01*
X114487200Y-108487200D02*
X109000000Y-103000000D01*
X140052524Y-110339600D02*
X134332146Y-110339600D01*
X109000000Y-103000000D02*
X106373800Y-103000000D01*
X148894000Y-107115600D02*
X143276524Y-107115600D01*
%TD*%
%TA.AperFunction,Conductor*%
%TO.N,GND*%
G36*
X198437697Y-98083248D02*
G01*
X198472335Y-98097624D01*
X198486663Y-98132282D01*
X198486662Y-98132534D01*
X198464532Y-101927586D01*
X198449979Y-101962150D01*
X198415533Y-101976300D01*
X196479038Y-101976300D01*
X195464100Y-102991236D01*
X195464100Y-102991237D01*
X195464100Y-102991238D01*
X195464100Y-106991237D01*
X195464100Y-107012363D01*
X196471573Y-108019835D01*
X196478907Y-108027245D01*
X196478908Y-108027246D01*
X196479037Y-108027299D01*
X196479038Y-108027300D01*
X196489511Y-108027300D01*
X196489763Y-108027300D01*
X198431527Y-108037316D01*
X198466099Y-108051846D01*
X198480273Y-108086332D01*
X198478925Y-111943505D01*
X198464561Y-111978148D01*
X198429917Y-111992488D01*
X98564092Y-111976310D01*
X98529446Y-111961953D01*
X98515100Y-111927310D01*
X98515100Y-108076300D01*
X98529452Y-108041652D01*
X98564100Y-108027300D01*
X100500162Y-108027300D01*
X100500163Y-108027300D01*
X101515100Y-107012362D01*
X101515100Y-106991237D01*
X101515100Y-102991238D01*
X101500162Y-102976300D01*
X100500163Y-101976300D01*
X98564282Y-101976300D01*
X98529634Y-101961948D01*
X98515282Y-101927300D01*
X98515282Y-101927180D01*
X98515744Y-101737930D01*
X98517781Y-100903905D01*
X103710100Y-100903905D01*
X103710100Y-101490499D01*
X103721732Y-101548978D01*
X103721732Y-101548979D01*
X103754855Y-101598552D01*
X104169643Y-102013340D01*
X104169647Y-102013343D01*
X104219220Y-102046466D01*
X104219222Y-102046467D01*
X104277705Y-102058100D01*
X104277708Y-102058100D01*
X104864298Y-102058100D01*
X104864299Y-102058100D01*
X104922779Y-102046468D01*
X104922779Y-102046467D01*
X104925728Y-102045881D01*
X104962511Y-102053197D01*
X104969936Y-102059291D01*
X106111735Y-103201090D01*
X106172710Y-103262065D01*
X106172713Y-103262066D01*
X106172716Y-103262069D01*
X106247388Y-103305180D01*
X106247390Y-103305181D01*
X106286044Y-103315538D01*
X106330682Y-103327500D01*
X106330684Y-103327500D01*
X108844049Y-103327500D01*
X108878697Y-103341852D01*
X114286110Y-108749265D01*
X114286113Y-108749266D01*
X114286116Y-108749269D01*
X114360788Y-108792380D01*
X114360790Y-108792381D01*
X114399444Y-108802738D01*
X114444082Y-108814700D01*
X114444084Y-108814700D01*
X114530316Y-108814700D01*
X131642070Y-108814700D01*
X131676718Y-108829052D01*
X131691070Y-108863700D01*
X131684506Y-108888199D01*
X131664328Y-108923149D01*
X131664326Y-108923153D01*
X131649656Y-108977900D01*
X131647598Y-108983964D01*
X131642397Y-108996522D01*
X131642393Y-108996536D01*
X131640621Y-109009997D01*
X131639372Y-109016279D01*
X131624699Y-109071043D01*
X131624699Y-109127729D01*
X131624280Y-109134124D01*
X131622506Y-109147599D01*
X131624280Y-109161074D01*
X131624699Y-109167470D01*
X131624699Y-109224159D01*
X131639370Y-109278911D01*
X131640620Y-109285195D01*
X131642393Y-109298663D01*
X131642397Y-109298677D01*
X131647596Y-109311229D01*
X131649655Y-109317295D01*
X131664327Y-109372049D01*
X131664328Y-109372053D01*
X131692668Y-109421138D01*
X131695502Y-109426885D01*
X131700704Y-109439444D01*
X131700706Y-109439447D01*
X131708985Y-109450237D01*
X131712545Y-109455565D01*
X131740880Y-109504643D01*
X131740882Y-109504645D01*
X131740884Y-109504649D01*
X131740887Y-109504652D01*
X131780958Y-109544723D01*
X131785184Y-109549542D01*
X131793462Y-109560330D01*
X131793464Y-109560331D01*
X131793466Y-109560334D01*
X131804262Y-109568618D01*
X131809072Y-109572837D01*
X133591568Y-111355333D01*
X133591573Y-111355339D01*
X133593284Y-111357050D01*
X133701550Y-111465316D01*
X133750082Y-111493336D01*
X133834146Y-111541871D01*
X133834148Y-111541871D01*
X133834149Y-111541872D01*
X133950790Y-111573125D01*
X133982040Y-111581499D01*
X133982041Y-111581500D01*
X133982044Y-111581500D01*
X134135155Y-111581500D01*
X141234331Y-111581500D01*
X141234347Y-111581501D01*
X141237344Y-111581501D01*
X141390458Y-111581501D01*
X141442060Y-111567673D01*
X141538351Y-111541872D01*
X141670950Y-111465316D01*
X141779216Y-111357050D01*
X141779216Y-111357048D01*
X141783245Y-111353020D01*
X141783248Y-111353015D01*
X143316614Y-109819652D01*
X143351262Y-109805300D01*
X144255493Y-109805300D01*
X144255496Y-109805300D01*
X144313976Y-109793668D01*
X144363552Y-109760542D01*
X145023840Y-109100254D01*
X145056967Y-109050675D01*
X145068600Y-108992192D01*
X145068600Y-108058404D01*
X145056968Y-107999924D01*
X145041183Y-107976300D01*
X145023844Y-107950350D01*
X144600242Y-107526748D01*
X144585890Y-107492100D01*
X144600242Y-107457452D01*
X144634890Y-107443100D01*
X146117310Y-107443100D01*
X146151958Y-107457452D01*
X146166310Y-107492100D01*
X146151958Y-107526748D01*
X145728359Y-107950346D01*
X145728356Y-107950350D01*
X145695233Y-107999923D01*
X145695233Y-107999925D01*
X145683600Y-108058408D01*
X145683600Y-108992196D01*
X145691776Y-109033300D01*
X145695232Y-109050676D01*
X145728355Y-109100249D01*
X146388646Y-109760540D01*
X146388650Y-109760543D01*
X146438223Y-109793666D01*
X146438225Y-109793667D01*
X146496708Y-109805300D01*
X146496711Y-109805300D01*
X147430493Y-109805300D01*
X147430496Y-109805300D01*
X147488976Y-109793668D01*
X147538552Y-109760542D01*
X148198840Y-109100254D01*
X148231967Y-109050675D01*
X148243600Y-108992192D01*
X148243600Y-108058404D01*
X148231968Y-107999924D01*
X148216183Y-107976300D01*
X148198844Y-107950350D01*
X147775242Y-107526748D01*
X147760890Y-107492100D01*
X147775242Y-107457452D01*
X147809890Y-107443100D01*
X148738049Y-107443100D01*
X148772697Y-107457452D01*
X149049827Y-107734582D01*
X149064179Y-107769230D01*
X149049827Y-107803878D01*
X148903358Y-107950347D01*
X148870233Y-107999923D01*
X148870233Y-107999925D01*
X148858600Y-108058408D01*
X148858600Y-108992196D01*
X148866776Y-109033300D01*
X148870232Y-109050676D01*
X148903355Y-109100249D01*
X149563646Y-109760540D01*
X149563650Y-109760543D01*
X149613223Y-109793666D01*
X149613225Y-109793667D01*
X149671708Y-109805300D01*
X149671711Y-109805300D01*
X150605493Y-109805300D01*
X150605496Y-109805300D01*
X150663976Y-109793668D01*
X150713552Y-109760542D01*
X151373840Y-109100254D01*
X151406967Y-109050675D01*
X151418600Y-108992192D01*
X151418600Y-108058404D01*
X151406968Y-107999924D01*
X151391183Y-107976300D01*
X151373844Y-107950350D01*
X150713553Y-107290059D01*
X150713549Y-107290056D01*
X150663976Y-107256933D01*
X150649354Y-107254024D01*
X150605492Y-107245300D01*
X149671704Y-107245300D01*
X149627844Y-107254024D01*
X149613223Y-107256932D01*
X149577880Y-107280548D01*
X149541097Y-107287864D01*
X149516009Y-107274454D01*
X149095092Y-106853537D01*
X149095090Y-106853535D01*
X149095087Y-106853533D01*
X149095083Y-106853530D01*
X149020411Y-106810419D01*
X148937118Y-106788100D01*
X148937116Y-106788100D01*
X143319640Y-106788100D01*
X143233408Y-106788100D01*
X143233406Y-106788100D01*
X143150113Y-106810419D01*
X143150111Y-106810419D01*
X143075440Y-106853530D01*
X143075431Y-106853537D01*
X139931221Y-109997748D01*
X139896573Y-110012100D01*
X134488097Y-110012100D01*
X134453449Y-109997748D01*
X132680838Y-108225137D01*
X132680836Y-108225135D01*
X132680833Y-108225133D01*
X132680829Y-108225130D01*
X132606157Y-108182019D01*
X132522864Y-108159700D01*
X132522862Y-108159700D01*
X114643151Y-108159700D01*
X114608503Y-108145348D01*
X111445155Y-104982000D01*
X113436106Y-104982000D01*
X113437880Y-104995474D01*
X113438299Y-105001870D01*
X113438299Y-105058559D01*
X113452970Y-105113311D01*
X113454220Y-105119595D01*
X113455993Y-105133063D01*
X113455997Y-105133077D01*
X113461196Y-105145629D01*
X113463255Y-105151695D01*
X113477927Y-105206449D01*
X113477928Y-105206453D01*
X113506268Y-105255538D01*
X113509102Y-105261285D01*
X113514304Y-105273844D01*
X113514305Y-105273846D01*
X113522587Y-105284640D01*
X113526143Y-105289962D01*
X113554484Y-105339049D01*
X113554485Y-105339050D01*
X113554486Y-105339051D01*
X113594563Y-105379130D01*
X113598787Y-105383946D01*
X113607062Y-105394730D01*
X113607066Y-105394734D01*
X113617378Y-105402646D01*
X113617857Y-105403014D01*
X113622672Y-105407237D01*
X113967550Y-105752116D01*
X114016082Y-105780136D01*
X114100146Y-105828671D01*
X114100148Y-105828671D01*
X114100149Y-105828672D01*
X114139687Y-105839266D01*
X114248040Y-105868299D01*
X114248041Y-105868300D01*
X114248044Y-105868300D01*
X114401155Y-105868300D01*
X129445549Y-105868300D01*
X129480197Y-105882652D01*
X129494549Y-105917300D01*
X129480197Y-105951948D01*
X129451945Y-105965881D01*
X129438931Y-105967594D01*
X129438923Y-105967596D01*
X129426363Y-105972798D01*
X129420299Y-105974856D01*
X129365553Y-105989526D01*
X129365549Y-105989528D01*
X129316464Y-106017866D01*
X129310721Y-106020698D01*
X129298156Y-106025903D01*
X129298150Y-106025907D01*
X129287364Y-106034183D01*
X129282038Y-106037742D01*
X129232947Y-106066086D01*
X129192864Y-106106167D01*
X129188051Y-106110389D01*
X129177266Y-106118666D01*
X129168989Y-106129451D01*
X129164767Y-106134264D01*
X129124686Y-106174347D01*
X129096342Y-106223438D01*
X129092783Y-106228764D01*
X129084507Y-106239550D01*
X129084503Y-106239556D01*
X129079298Y-106252121D01*
X129076466Y-106257864D01*
X129048128Y-106306949D01*
X129048126Y-106306953D01*
X129033456Y-106361699D01*
X129031398Y-106367763D01*
X129026196Y-106380323D01*
X129026194Y-106380330D01*
X129024419Y-106393815D01*
X129023168Y-106400099D01*
X129008500Y-106454840D01*
X129008500Y-106511521D01*
X129008081Y-106517916D01*
X129006306Y-106531399D01*
X129008081Y-106544881D01*
X129008500Y-106551277D01*
X129008500Y-106607959D01*
X129023168Y-106662700D01*
X129024419Y-106668985D01*
X129026194Y-106682466D01*
X129026195Y-106682472D01*
X129031399Y-106695036D01*
X129033458Y-106701103D01*
X129048126Y-106755847D01*
X129048128Y-106755853D01*
X129076467Y-106804935D01*
X129079302Y-106810684D01*
X129084504Y-106823243D01*
X129084506Y-106823247D01*
X129092783Y-106834033D01*
X129096344Y-106839363D01*
X129124684Y-106888450D01*
X129164761Y-106928527D01*
X129168987Y-106933345D01*
X129177263Y-106944131D01*
X129177264Y-106944132D01*
X129177266Y-106944134D01*
X129188058Y-106952415D01*
X129192868Y-106956634D01*
X129232950Y-106996716D01*
X129282046Y-107025061D01*
X129287361Y-107028612D01*
X129298153Y-107036894D01*
X129310129Y-107041854D01*
X129310715Y-107042097D01*
X129316453Y-107044926D01*
X129365549Y-107073272D01*
X129420315Y-107087946D01*
X129426350Y-107089994D01*
X129438929Y-107095205D01*
X129452410Y-107096979D01*
X129458682Y-107098226D01*
X129502005Y-107109834D01*
X129513443Y-107112900D01*
X129513444Y-107112900D01*
X129570122Y-107112900D01*
X129576517Y-107113319D01*
X129577511Y-107113449D01*
X129590000Y-107115094D01*
X129602488Y-107113449D01*
X129603483Y-107113319D01*
X129609878Y-107112900D01*
X133191187Y-107112900D01*
X133191203Y-107112901D01*
X133194200Y-107112901D01*
X133347314Y-107112901D01*
X133413353Y-107095205D01*
X133495207Y-107073272D01*
X133555600Y-107038404D01*
X133627806Y-106996716D01*
X133736072Y-106888450D01*
X133736072Y-106888448D01*
X133740101Y-106884420D01*
X133740104Y-106884415D01*
X136028669Y-104595852D01*
X136063317Y-104581500D01*
X138557639Y-104581500D01*
X138592287Y-104595852D01*
X141001161Y-107004727D01*
X141005387Y-107009545D01*
X141013663Y-107020331D01*
X141013664Y-107020332D01*
X141013666Y-107020334D01*
X141024458Y-107028615D01*
X141029268Y-107032834D01*
X141069350Y-107072916D01*
X141069351Y-107072917D01*
X141069353Y-107072918D01*
X141078893Y-107078425D01*
X141118446Y-107101261D01*
X141123761Y-107104812D01*
X141134553Y-107113094D01*
X141146529Y-107118054D01*
X141147115Y-107118297D01*
X141152853Y-107121126D01*
X141201949Y-107149472D01*
X141256715Y-107164146D01*
X141262750Y-107166194D01*
X141275329Y-107171405D01*
X141288810Y-107173179D01*
X141295082Y-107174426D01*
X141338405Y-107186034D01*
X141349843Y-107189100D01*
X141349844Y-107189100D01*
X141406522Y-107189100D01*
X141412917Y-107189519D01*
X141413911Y-107189649D01*
X141426400Y-107191294D01*
X141438888Y-107189649D01*
X141439883Y-107189519D01*
X141446278Y-107189100D01*
X141502956Y-107189100D01*
X141514266Y-107186068D01*
X141557715Y-107174426D01*
X141563974Y-107173180D01*
X141577471Y-107171405D01*
X141590039Y-107166198D01*
X141596088Y-107164144D01*
X141650850Y-107149472D01*
X141699942Y-107121127D01*
X141705679Y-107118298D01*
X141718247Y-107113094D01*
X141729048Y-107104804D01*
X141734348Y-107101263D01*
X141783449Y-107072916D01*
X141823535Y-107032828D01*
X141828340Y-107028616D01*
X141839134Y-107020334D01*
X141847417Y-107009538D01*
X141851628Y-107004735D01*
X141891716Y-106964649D01*
X141920063Y-106915548D01*
X141923604Y-106910248D01*
X141931894Y-106899447D01*
X141937098Y-106886879D01*
X141939927Y-106881142D01*
X141968272Y-106832050D01*
X141982944Y-106777288D01*
X141984998Y-106771239D01*
X141990205Y-106758671D01*
X141991980Y-106745174D01*
X141993226Y-106738915D01*
X142007900Y-106684155D01*
X142007900Y-106627477D01*
X142008319Y-106621081D01*
X142010094Y-106607600D01*
X142008319Y-106594116D01*
X142007900Y-106587721D01*
X142007900Y-106531043D01*
X142003530Y-106514735D01*
X141993226Y-106476282D01*
X141991978Y-106470004D01*
X141990205Y-106456529D01*
X141984994Y-106443950D01*
X141982946Y-106437915D01*
X141968272Y-106383149D01*
X141966644Y-106380330D01*
X141959389Y-106367763D01*
X141939926Y-106334053D01*
X141937097Y-106328315D01*
X141936854Y-106327729D01*
X141931894Y-106315753D01*
X141923612Y-106304961D01*
X141920061Y-106299646D01*
X141891716Y-106250550D01*
X141851634Y-106210468D01*
X141847415Y-106205658D01*
X141839134Y-106194866D01*
X141839132Y-106194864D01*
X141839131Y-106194863D01*
X141828345Y-106186587D01*
X141823527Y-106182361D01*
X140566501Y-104925335D01*
X139306312Y-103665147D01*
X139291961Y-103630500D01*
X139306313Y-103595852D01*
X139340961Y-103581500D01*
X139589639Y-103581500D01*
X139624287Y-103595852D01*
X141077358Y-105048923D01*
X141081584Y-105053742D01*
X141089862Y-105064530D01*
X141089864Y-105064531D01*
X141089866Y-105064534D01*
X141100662Y-105072818D01*
X141105472Y-105077037D01*
X141145551Y-105117116D01*
X141173186Y-105133071D01*
X141194637Y-105145456D01*
X141199956Y-105149009D01*
X141210753Y-105157294D01*
X141223326Y-105162502D01*
X141229049Y-105165324D01*
X141273077Y-105190743D01*
X141278145Y-105193670D01*
X141278149Y-105193672D01*
X141332913Y-105208345D01*
X141338968Y-105210402D01*
X141338973Y-105210404D01*
X141351529Y-105215605D01*
X141365006Y-105217379D01*
X141371286Y-105218628D01*
X141398575Y-105225940D01*
X141426042Y-105233301D01*
X141426044Y-105233301D01*
X141482730Y-105233301D01*
X141489125Y-105233719D01*
X141502600Y-105235494D01*
X141516074Y-105233719D01*
X141522470Y-105233301D01*
X141579158Y-105233301D01*
X141633907Y-105218630D01*
X141640196Y-105217379D01*
X141644949Y-105216753D01*
X141653671Y-105215605D01*
X141666238Y-105210398D01*
X141672280Y-105208347D01*
X141727051Y-105193672D01*
X141727053Y-105193670D01*
X141727055Y-105193670D01*
X141752697Y-105178865D01*
X141776144Y-105165327D01*
X141781877Y-105162500D01*
X141794447Y-105157294D01*
X141805236Y-105149014D01*
X141810565Y-105145454D01*
X141859649Y-105117116D01*
X141899727Y-105077036D01*
X141904538Y-105072817D01*
X141915334Y-105064534D01*
X141923617Y-105053738D01*
X141927837Y-105048927D01*
X141967913Y-105008852D01*
X141967913Y-105008851D01*
X141967916Y-105008849D01*
X141996255Y-104959762D01*
X141999816Y-104954434D01*
X142008094Y-104943647D01*
X142013300Y-104931077D01*
X142016127Y-104925344D01*
X142040520Y-104883096D01*
X142044470Y-104876255D01*
X142044470Y-104876253D01*
X142044472Y-104876251D01*
X142059147Y-104821480D01*
X142061198Y-104815438D01*
X142066405Y-104802871D01*
X142068179Y-104789396D01*
X142069430Y-104783107D01*
X142084101Y-104728357D01*
X142084101Y-104671670D01*
X142084520Y-104665274D01*
X142084656Y-104664244D01*
X142086294Y-104651800D01*
X142084520Y-104638324D01*
X142084101Y-104631929D01*
X142084101Y-104575242D01*
X142076740Y-104547775D01*
X142069428Y-104520486D01*
X142068179Y-104514205D01*
X142067206Y-104506812D01*
X142066405Y-104500729D01*
X142061202Y-104488168D01*
X142059145Y-104482113D01*
X142044472Y-104427349D01*
X142043378Y-104425455D01*
X142037920Y-104416001D01*
X142016124Y-104378249D01*
X142013302Y-104372526D01*
X142008094Y-104359953D01*
X141999809Y-104349156D01*
X141996256Y-104343837D01*
X141984185Y-104322929D01*
X141967916Y-104294751D01*
X141927837Y-104254672D01*
X141923618Y-104249862D01*
X141915334Y-104239066D01*
X141915331Y-104239064D01*
X141915330Y-104239062D01*
X141904542Y-104230784D01*
X141899723Y-104226558D01*
X140318911Y-102645746D01*
X140318909Y-102645743D01*
X140207850Y-102534684D01*
X140075252Y-102458128D01*
X139947253Y-102423830D01*
X139917501Y-102401000D01*
X139912606Y-102363817D01*
X139935436Y-102334065D01*
X139959936Y-102327500D01*
X141285649Y-102327500D01*
X141320297Y-102341852D01*
X144618735Y-105640290D01*
X144679710Y-105701265D01*
X144679713Y-105701266D01*
X144679716Y-105701269D01*
X144736357Y-105733970D01*
X144754390Y-105744381D01*
X144783257Y-105752116D01*
X144837682Y-105766700D01*
X144837684Y-105766700D01*
X145140500Y-105766700D01*
X145175148Y-105781052D01*
X145179374Y-105785871D01*
X145230065Y-105851933D01*
X145230066Y-105851934D01*
X145350953Y-105944694D01*
X145350955Y-105944694D01*
X145350957Y-105944696D01*
X145459192Y-105989528D01*
X145491729Y-106003005D01*
X145642800Y-106022894D01*
X145793871Y-106003005D01*
X145934647Y-105944694D01*
X146055534Y-105851934D01*
X146148294Y-105731047D01*
X146206605Y-105590271D01*
X146226494Y-105439200D01*
X146215624Y-105356639D01*
X146225330Y-105320415D01*
X146229549Y-105315604D01*
X147203303Y-104341852D01*
X147237951Y-104327500D01*
X151524500Y-104327500D01*
X151559148Y-104341852D01*
X151563374Y-104346671D01*
X151602995Y-104398306D01*
X151614066Y-104412734D01*
X151734953Y-104505494D01*
X151734955Y-104505494D01*
X151734957Y-104505496D01*
X151808671Y-104536029D01*
X151875729Y-104563805D01*
X152026800Y-104583694D01*
X152177871Y-104563805D01*
X152318647Y-104505494D01*
X152439534Y-104412734D01*
X152532294Y-104291847D01*
X152590605Y-104151071D01*
X152610494Y-104000000D01*
X152590605Y-103848929D01*
X152568074Y-103794533D01*
X152532296Y-103708157D01*
X152532293Y-103708152D01*
X152517827Y-103689300D01*
X152439534Y-103587266D01*
X152355778Y-103522998D01*
X152318647Y-103494506D01*
X152318642Y-103494503D01*
X152177870Y-103436194D01*
X152026800Y-103416306D01*
X151875729Y-103436194D01*
X151734957Y-103494503D01*
X151734952Y-103494506D01*
X151614066Y-103587265D01*
X151614065Y-103587266D01*
X151563374Y-103653329D01*
X151530896Y-103672081D01*
X151524500Y-103672500D01*
X147105561Y-103672500D01*
X147070913Y-103658148D01*
X147056561Y-103623500D01*
X147070913Y-103588852D01*
X147608547Y-103051219D01*
X148231514Y-102428252D01*
X148266162Y-102413900D01*
X157073084Y-102413900D01*
X157107732Y-102428252D01*
X157122084Y-102462900D01*
X157107732Y-102497548D01*
X157097584Y-102505335D01*
X157046749Y-102534684D01*
X157046749Y-102534685D01*
X156938482Y-102642952D01*
X155532673Y-104048760D01*
X155527858Y-104052983D01*
X155517067Y-104061264D01*
X155517064Y-104061267D01*
X155508786Y-104072054D01*
X155504564Y-104076868D01*
X155464488Y-104116946D01*
X155464478Y-104116959D01*
X155436140Y-104166039D01*
X155432584Y-104171363D01*
X155424305Y-104182154D01*
X155419101Y-104194715D01*
X155416269Y-104200458D01*
X155387928Y-104249549D01*
X155387926Y-104249553D01*
X155373256Y-104304300D01*
X155371198Y-104310364D01*
X155365997Y-104322922D01*
X155365993Y-104322936D01*
X155364221Y-104336397D01*
X155362972Y-104342679D01*
X155348299Y-104397443D01*
X155348299Y-104454129D01*
X155347880Y-104460524D01*
X155346106Y-104473999D01*
X155347880Y-104487474D01*
X155348299Y-104493870D01*
X155348299Y-104550559D01*
X155362970Y-104605311D01*
X155364220Y-104611595D01*
X155365993Y-104625063D01*
X155365997Y-104625077D01*
X155371196Y-104637629D01*
X155373255Y-104643695D01*
X155387927Y-104698449D01*
X155387928Y-104698453D01*
X155416268Y-104747538D01*
X155419102Y-104753285D01*
X155424304Y-104765844D01*
X155424306Y-104765847D01*
X155432585Y-104776637D01*
X155436143Y-104781962D01*
X155438597Y-104786212D01*
X155464480Y-104831043D01*
X155464482Y-104831045D01*
X155464484Y-104831049D01*
X155464487Y-104831052D01*
X155504558Y-104871123D01*
X155508784Y-104875942D01*
X155517062Y-104886730D01*
X155517064Y-104886731D01*
X155517066Y-104886734D01*
X155527862Y-104895018D01*
X155532672Y-104899237D01*
X155534487Y-104901052D01*
X155548839Y-104935700D01*
X155534487Y-104970348D01*
X155499839Y-104984700D01*
X149066100Y-104984700D01*
X149031452Y-104970348D01*
X149027226Y-104965529D01*
X148976534Y-104899466D01*
X148976533Y-104899465D01*
X148855647Y-104806706D01*
X148855642Y-104806703D01*
X148714870Y-104748394D01*
X148563800Y-104728506D01*
X148412729Y-104748394D01*
X148271957Y-104806703D01*
X148271952Y-104806706D01*
X148151066Y-104899465D01*
X148151065Y-104899466D01*
X148058306Y-105020352D01*
X148058303Y-105020357D01*
X147999994Y-105161129D01*
X147980106Y-105312200D01*
X147999994Y-105463270D01*
X148058303Y-105604042D01*
X148058306Y-105604047D01*
X148137651Y-105707452D01*
X148151066Y-105724934D01*
X148271953Y-105817694D01*
X148271955Y-105817694D01*
X148271957Y-105817696D01*
X148354616Y-105851934D01*
X148412729Y-105876005D01*
X148563800Y-105895894D01*
X148714871Y-105876005D01*
X148855647Y-105817694D01*
X148976534Y-105724934D01*
X149027226Y-105658871D01*
X149059704Y-105640119D01*
X149066100Y-105639700D01*
X153998466Y-105639700D01*
X154033114Y-105654052D01*
X154047466Y-105688700D01*
X154033114Y-105723348D01*
X154017217Y-105733970D01*
X153986957Y-105746503D01*
X153986952Y-105746506D01*
X153866066Y-105839265D01*
X153866065Y-105839266D01*
X153773306Y-105960152D01*
X153773303Y-105960157D01*
X153714994Y-106100929D01*
X153695106Y-106252000D01*
X153714994Y-106403070D01*
X153773303Y-106543842D01*
X153773306Y-106543847D01*
X153837477Y-106627477D01*
X153866066Y-106664734D01*
X153986953Y-106757494D01*
X153986955Y-106757494D01*
X153986957Y-106757496D01*
X154114726Y-106810419D01*
X154127729Y-106815805D01*
X154278800Y-106835694D01*
X154406250Y-106818914D01*
X154442473Y-106828620D01*
X154447292Y-106832847D01*
X155079948Y-107465503D01*
X155094300Y-107500151D01*
X155094300Y-107730899D01*
X155079948Y-107765547D01*
X155075130Y-107769773D01*
X155009064Y-107820467D01*
X154916306Y-107941352D01*
X154916303Y-107941357D01*
X154864121Y-108067339D01*
X154837603Y-108093858D01*
X154800100Y-108093858D01*
X154773581Y-108067340D01*
X154770707Y-108055866D01*
X154770571Y-108055894D01*
X154755595Y-107980612D01*
X154714287Y-107918789D01*
X154047110Y-107251614D01*
X153985287Y-107210304D01*
X153985285Y-107210303D01*
X153912373Y-107195800D01*
X153912367Y-107195799D01*
X153565600Y-107195799D01*
X153565600Y-108032873D01*
X153507480Y-108017300D01*
X153373720Y-108017300D01*
X153315600Y-108032873D01*
X153315600Y-107195799D01*
X152968829Y-107195799D01*
X152895912Y-107210304D01*
X152834089Y-107251612D01*
X152166914Y-107918789D01*
X152125604Y-107980612D01*
X152125603Y-107980614D01*
X152111100Y-108053526D01*
X152111100Y-108400300D01*
X152948173Y-108400300D01*
X152932600Y-108458420D01*
X152932600Y-108592180D01*
X152948173Y-108650300D01*
X152111099Y-108650300D01*
X152111099Y-108997070D01*
X152125604Y-109069987D01*
X152166912Y-109131810D01*
X152834089Y-109798985D01*
X152895912Y-109840295D01*
X152895914Y-109840296D01*
X152968826Y-109854799D01*
X152968832Y-109854800D01*
X153315600Y-109854800D01*
X153315600Y-109017726D01*
X153373720Y-109033300D01*
X153507480Y-109033300D01*
X153565600Y-109017726D01*
X153565600Y-109854800D01*
X153912370Y-109854800D01*
X153985287Y-109840295D01*
X154047110Y-109798987D01*
X154714285Y-109131810D01*
X154755595Y-109069987D01*
X154755596Y-109069985D01*
X154770099Y-108997073D01*
X154770100Y-108997068D01*
X154770100Y-108650300D01*
X153933027Y-108650300D01*
X153948600Y-108592180D01*
X153948600Y-108458420D01*
X153933027Y-108400300D01*
X154770101Y-108400300D01*
X154782910Y-108387490D01*
X154784453Y-108383767D01*
X154819101Y-108369415D01*
X154853749Y-108383767D01*
X154864371Y-108399664D01*
X154916303Y-108525042D01*
X154916306Y-108525047D01*
X155009066Y-108645934D01*
X155129953Y-108738694D01*
X155129955Y-108738694D01*
X155129957Y-108738696D01*
X155155483Y-108749269D01*
X155270729Y-108797005D01*
X155421800Y-108816894D01*
X155572871Y-108797005D01*
X155713647Y-108738694D01*
X155834534Y-108645934D01*
X155927294Y-108525047D01*
X155985605Y-108384271D01*
X156005494Y-108233200D01*
X155985605Y-108082129D01*
X155975781Y-108058411D01*
X155927296Y-107941357D01*
X155927293Y-107941352D01*
X155834535Y-107820467D01*
X155768470Y-107769773D01*
X155749719Y-107737294D01*
X155749300Y-107730899D01*
X155749300Y-107301082D01*
X155739866Y-107265877D01*
X155726981Y-107217790D01*
X155726980Y-107217788D01*
X155726980Y-107217787D01*
X155683869Y-107143116D01*
X155683866Y-107143113D01*
X155683865Y-107143110D01*
X155622890Y-107082135D01*
X154871467Y-106330712D01*
X154857115Y-106296064D01*
X154857534Y-106289667D01*
X154862494Y-106252000D01*
X154842605Y-106100929D01*
X154841017Y-106097096D01*
X154784296Y-105960157D01*
X154784293Y-105960152D01*
X154776426Y-105949900D01*
X154691534Y-105839266D01*
X154677726Y-105828671D01*
X154570647Y-105746506D01*
X154570642Y-105746503D01*
X154540383Y-105733970D01*
X154513864Y-105707452D01*
X154513864Y-105669949D01*
X154540382Y-105643430D01*
X154559134Y-105639700D01*
X156149791Y-105639700D01*
X156178853Y-105631912D01*
X156233083Y-105617381D01*
X156256179Y-105604047D01*
X156307756Y-105574269D01*
X156307755Y-105574269D01*
X156307763Y-105574265D01*
X157540176Y-104341852D01*
X157574824Y-104327500D01*
X163839198Y-104327500D01*
X163873846Y-104341852D01*
X165385659Y-105853665D01*
X165385662Y-105853666D01*
X165385665Y-105853669D01*
X165460337Y-105896780D01*
X165460339Y-105896781D01*
X165498993Y-105907138D01*
X165543631Y-105919100D01*
X165543633Y-105919100D01*
X165629865Y-105919100D01*
X175544300Y-105919100D01*
X175578948Y-105933452D01*
X175583174Y-105938271D01*
X175610610Y-105974026D01*
X175633866Y-106004334D01*
X175754753Y-106097094D01*
X175754755Y-106097094D01*
X175754757Y-106097096D01*
X175832870Y-106129451D01*
X175895529Y-106155405D01*
X176046600Y-106175294D01*
X176197671Y-106155405D01*
X176338447Y-106097094D01*
X176459334Y-106004334D01*
X176552094Y-105883447D01*
X176610405Y-105742671D01*
X176630294Y-105591600D01*
X176610405Y-105440529D01*
X176596615Y-105407237D01*
X176552096Y-105299757D01*
X176552093Y-105299752D01*
X176532215Y-105273847D01*
X176459334Y-105178866D01*
X176423929Y-105151699D01*
X176338447Y-105086106D01*
X176338442Y-105086103D01*
X176197670Y-105027794D01*
X176046600Y-105007906D01*
X175895529Y-105027794D01*
X175754757Y-105086103D01*
X175754752Y-105086106D01*
X175633866Y-105178865D01*
X175633865Y-105178866D01*
X175583174Y-105244929D01*
X175550696Y-105263681D01*
X175544300Y-105264100D01*
X165742700Y-105264100D01*
X165708052Y-105249748D01*
X165383997Y-104925693D01*
X165369645Y-104891045D01*
X165383997Y-104856397D01*
X165418645Y-104842045D01*
X165431328Y-104843715D01*
X165463370Y-104852301D01*
X165463372Y-104852301D01*
X165619480Y-104852301D01*
X165619496Y-104852300D01*
X182541839Y-104852300D01*
X182576487Y-104866652D01*
X183088958Y-105379123D01*
X183093184Y-105383942D01*
X183101462Y-105394730D01*
X183101464Y-105394731D01*
X183101466Y-105394734D01*
X183112262Y-105403018D01*
X183117072Y-105407237D01*
X183157151Y-105447316D01*
X183206243Y-105475659D01*
X183211558Y-105479211D01*
X183222353Y-105487494D01*
X183234930Y-105492703D01*
X183240650Y-105495524D01*
X183289750Y-105523872D01*
X183344493Y-105538540D01*
X183350563Y-105540600D01*
X183359466Y-105544287D01*
X183363129Y-105545805D01*
X183373497Y-105547169D01*
X183376605Y-105547579D01*
X183382894Y-105548830D01*
X183437643Y-105563501D01*
X183437645Y-105563501D01*
X183494330Y-105563501D01*
X183500725Y-105563919D01*
X183514200Y-105565694D01*
X183527674Y-105563919D01*
X183534070Y-105563501D01*
X183590758Y-105563501D01*
X183645507Y-105548830D01*
X183651796Y-105547579D01*
X183656549Y-105546953D01*
X183665271Y-105545805D01*
X183677838Y-105540598D01*
X183683880Y-105538547D01*
X183738651Y-105523872D01*
X183787745Y-105495526D01*
X183793489Y-105492694D01*
X183806047Y-105487494D01*
X183816833Y-105479217D01*
X183822159Y-105475657D01*
X183871250Y-105447316D01*
X183911339Y-105407225D01*
X183916151Y-105403007D01*
X183926934Y-105394734D01*
X183935207Y-105383951D01*
X183939425Y-105379139D01*
X183979516Y-105339050D01*
X184007857Y-105289959D01*
X184011417Y-105284633D01*
X184019694Y-105273847D01*
X184024893Y-105261293D01*
X184027726Y-105255545D01*
X184056072Y-105206451D01*
X184070747Y-105151680D01*
X184072798Y-105145638D01*
X184078005Y-105133071D01*
X184079779Y-105119595D01*
X184081030Y-105113307D01*
X184095701Y-105058557D01*
X184095701Y-105001870D01*
X184096120Y-104995474D01*
X184097894Y-104982000D01*
X184096120Y-104968524D01*
X184095701Y-104962129D01*
X184095701Y-104905443D01*
X184081030Y-104850694D01*
X184079779Y-104844405D01*
X184078021Y-104831052D01*
X184078005Y-104830929D01*
X184074099Y-104821499D01*
X184072800Y-104818363D01*
X184070740Y-104812293D01*
X184056072Y-104757551D01*
X184056072Y-104757550D01*
X184027724Y-104708450D01*
X184024903Y-104702730D01*
X184019694Y-104690153D01*
X184011411Y-104679358D01*
X184007859Y-104674043D01*
X183979589Y-104625077D01*
X183979518Y-104624954D01*
X183979513Y-104624948D01*
X183939437Y-104584872D01*
X183935214Y-104580057D01*
X183926934Y-104569266D01*
X183926931Y-104569264D01*
X183926930Y-104569262D01*
X183916142Y-104560984D01*
X183911323Y-104556758D01*
X183271111Y-103916546D01*
X183271109Y-103916543D01*
X183160050Y-103805484D01*
X183027452Y-103728928D01*
X182879558Y-103689299D01*
X182879556Y-103689299D01*
X182726444Y-103689299D01*
X182723447Y-103689299D01*
X182723431Y-103689300D01*
X168279529Y-103689300D01*
X168244881Y-103674948D01*
X168230529Y-103640300D01*
X168237094Y-103615800D01*
X168257270Y-103580854D01*
X168257269Y-103580854D01*
X168257272Y-103580851D01*
X168271945Y-103526088D01*
X168274003Y-103520028D01*
X168279205Y-103507471D01*
X168280979Y-103493988D01*
X168282226Y-103487716D01*
X168296900Y-103432956D01*
X168296900Y-103376277D01*
X168297319Y-103369881D01*
X168299094Y-103356400D01*
X168297319Y-103342916D01*
X168296900Y-103336521D01*
X168296900Y-103279843D01*
X168293834Y-103268405D01*
X168282226Y-103225082D01*
X168280978Y-103218804D01*
X168279205Y-103205329D01*
X168273994Y-103192750D01*
X168271946Y-103186715D01*
X168257272Y-103131949D01*
X168228926Y-103082853D01*
X168226097Y-103077115D01*
X168225854Y-103076529D01*
X168220894Y-103064553D01*
X168212612Y-103053761D01*
X168209061Y-103048446D01*
X168180716Y-102999350D01*
X168140634Y-102959268D01*
X168136415Y-102954458D01*
X168128134Y-102943666D01*
X168128132Y-102943664D01*
X168128131Y-102943663D01*
X168117345Y-102935387D01*
X168112527Y-102931161D01*
X168072450Y-102891084D01*
X168023360Y-102862742D01*
X168018037Y-102859185D01*
X168007247Y-102850906D01*
X168007243Y-102850904D01*
X167994684Y-102845702D01*
X167988939Y-102842869D01*
X167977695Y-102836377D01*
X167939853Y-102814528D01*
X167939847Y-102814526D01*
X167885103Y-102799858D01*
X167879036Y-102797799D01*
X167866472Y-102792595D01*
X167866466Y-102792594D01*
X167852985Y-102790819D01*
X167846700Y-102789568D01*
X167791959Y-102774900D01*
X167791956Y-102774900D01*
X167735278Y-102774900D01*
X167728883Y-102774481D01*
X167715400Y-102772706D01*
X167701917Y-102774481D01*
X167695522Y-102774900D01*
X166617562Y-102774900D01*
X166582914Y-102760548D01*
X165300511Y-101478146D01*
X165300509Y-101478143D01*
X165189450Y-101367084D01*
X165111709Y-101322200D01*
X189187799Y-101322200D01*
X189187799Y-101495373D01*
X189202304Y-101568290D01*
X189243612Y-101630113D01*
X189665286Y-102051785D01*
X189727109Y-102093095D01*
X189727111Y-102093096D01*
X189800023Y-102107599D01*
X189800029Y-102107600D01*
X189973200Y-102107600D01*
X189973200Y-101584443D01*
X190044696Y-101603600D01*
X190151704Y-101603600D01*
X190223200Y-101584443D01*
X190223200Y-102107600D01*
X190396373Y-102107600D01*
X190469290Y-102093095D01*
X190531113Y-102051787D01*
X190952785Y-101630113D01*
X190994095Y-101568290D01*
X190994096Y-101568288D01*
X191008599Y-101495376D01*
X191008600Y-101495371D01*
X191008600Y-101322200D01*
X190485443Y-101322200D01*
X190504600Y-101250704D01*
X190504600Y-101143696D01*
X190485443Y-101072200D01*
X191008601Y-101072200D01*
X191008601Y-100903905D01*
X191777300Y-100903905D01*
X191777300Y-101490499D01*
X191788932Y-101548978D01*
X191788932Y-101548979D01*
X191822055Y-101598552D01*
X192236843Y-102013340D01*
X192236847Y-102013343D01*
X192286420Y-102046466D01*
X192286422Y-102046467D01*
X192344905Y-102058100D01*
X192344908Y-102058100D01*
X192931496Y-102058100D01*
X192931499Y-102058100D01*
X192989979Y-102046468D01*
X193039555Y-102013342D01*
X193454340Y-101598557D01*
X193487467Y-101548978D01*
X193499100Y-101490495D01*
X193499100Y-100903901D01*
X193487468Y-100845421D01*
X193474564Y-100826109D01*
X193454344Y-100795847D01*
X193039556Y-100381059D01*
X193039552Y-100381056D01*
X192989979Y-100347933D01*
X192975357Y-100345024D01*
X192931495Y-100336300D01*
X192344901Y-100336300D01*
X192301041Y-100345024D01*
X192286420Y-100347932D01*
X192236847Y-100381055D01*
X191822059Y-100795843D01*
X191822056Y-100795847D01*
X191788933Y-100845420D01*
X191788933Y-100845422D01*
X191777300Y-100903905D01*
X191008601Y-100903905D01*
X191008601Y-100899030D01*
X191008600Y-100899026D01*
X190994095Y-100826109D01*
X190952787Y-100764286D01*
X190531113Y-100342614D01*
X190469290Y-100301304D01*
X190469288Y-100301303D01*
X190396376Y-100286800D01*
X190396370Y-100286799D01*
X190223200Y-100286799D01*
X190223200Y-100809956D01*
X190151704Y-100790800D01*
X190044696Y-100790800D01*
X189973200Y-100809956D01*
X189973200Y-100286799D01*
X189800026Y-100286799D01*
X189727109Y-100301304D01*
X189665286Y-100342612D01*
X189243614Y-100764286D01*
X189202304Y-100826109D01*
X189202303Y-100826111D01*
X189187800Y-100899023D01*
X189187800Y-101072200D01*
X189710957Y-101072200D01*
X189691800Y-101143696D01*
X189691800Y-101250704D01*
X189710957Y-101322200D01*
X189187799Y-101322200D01*
X165111709Y-101322200D01*
X165056852Y-101290528D01*
X164908958Y-101250899D01*
X164908956Y-101250899D01*
X164755844Y-101250899D01*
X164752847Y-101250899D01*
X164752831Y-101250900D01*
X163569678Y-101250900D01*
X163563283Y-101250481D01*
X163549800Y-101248706D01*
X163536317Y-101250481D01*
X163529922Y-101250900D01*
X147928441Y-101250900D01*
X147780550Y-101290527D01*
X147780546Y-101290528D01*
X147647949Y-101367084D01*
X145067873Y-103947160D01*
X145063058Y-103951383D01*
X145052267Y-103959664D01*
X145052264Y-103959667D01*
X145043986Y-103970454D01*
X145039764Y-103975268D01*
X144999688Y-104015346D01*
X144999678Y-104015359D01*
X144971340Y-104064439D01*
X144967784Y-104069763D01*
X144959505Y-104080554D01*
X144954301Y-104093115D01*
X144951469Y-104098858D01*
X144923128Y-104147949D01*
X144923126Y-104147953D01*
X144908456Y-104202700D01*
X144906398Y-104208764D01*
X144901197Y-104221322D01*
X144901193Y-104221336D01*
X144899421Y-104234797D01*
X144898172Y-104241079D01*
X144883499Y-104295843D01*
X144883499Y-104352529D01*
X144883080Y-104358924D01*
X144881306Y-104372399D01*
X144883080Y-104385874D01*
X144883499Y-104392270D01*
X144883499Y-104448959D01*
X144898170Y-104503711D01*
X144899420Y-104509995D01*
X144901193Y-104523463D01*
X144901197Y-104523477D01*
X144906396Y-104536029D01*
X144908455Y-104542095D01*
X144923127Y-104596849D01*
X144923128Y-104596853D01*
X144951468Y-104645938D01*
X144954302Y-104651685D01*
X144959504Y-104664244D01*
X144959506Y-104664247D01*
X144967785Y-104675037D01*
X144971345Y-104680365D01*
X144999680Y-104729443D01*
X144999682Y-104729445D01*
X144999684Y-104729449D01*
X144999687Y-104729452D01*
X145039758Y-104769523D01*
X145043984Y-104774342D01*
X145052262Y-104785130D01*
X145052264Y-104785131D01*
X145052266Y-104785134D01*
X145063062Y-104793418D01*
X145067872Y-104797637D01*
X145107951Y-104837716D01*
X145133211Y-104852300D01*
X145157037Y-104866056D01*
X145162356Y-104869609D01*
X145173153Y-104877894D01*
X145185726Y-104883102D01*
X145191449Y-104885924D01*
X145240549Y-104914272D01*
X145245173Y-104915511D01*
X145274926Y-104938340D01*
X145279822Y-104975522D01*
X145262321Y-105001715D01*
X145230064Y-105026467D01*
X145179374Y-105092529D01*
X145146896Y-105111281D01*
X145140500Y-105111700D01*
X145036751Y-105111700D01*
X145002103Y-105097348D01*
X141642692Y-101737937D01*
X141642690Y-101737935D01*
X141642687Y-101737933D01*
X141642683Y-101737930D01*
X141568011Y-101694819D01*
X141484718Y-101672500D01*
X141484716Y-101672500D01*
X133402516Y-101672500D01*
X133316284Y-101672500D01*
X133316282Y-101672500D01*
X133232989Y-101694819D01*
X133232987Y-101694819D01*
X133158316Y-101737930D01*
X133158307Y-101737937D01*
X132101201Y-102795042D01*
X132066553Y-102809394D01*
X132060159Y-102808975D01*
X131977600Y-102798106D01*
X131977599Y-102798106D01*
X131826529Y-102817994D01*
X131685757Y-102876303D01*
X131685752Y-102876306D01*
X131564866Y-102969065D01*
X131564865Y-102969066D01*
X131472106Y-103089952D01*
X131472103Y-103089957D01*
X131413794Y-103230729D01*
X131393906Y-103381800D01*
X131413794Y-103532870D01*
X131472103Y-103673642D01*
X131472106Y-103673647D01*
X131509337Y-103722168D01*
X131564866Y-103794534D01*
X131685753Y-103887294D01*
X131685755Y-103887294D01*
X131685757Y-103887296D01*
X131756374Y-103916546D01*
X131826529Y-103945605D01*
X131977600Y-103965494D01*
X132128671Y-103945605D01*
X132269447Y-103887294D01*
X132390334Y-103794534D01*
X132483094Y-103673647D01*
X132541405Y-103532871D01*
X132561294Y-103381800D01*
X132550424Y-103299239D01*
X132560130Y-103263015D01*
X132564349Y-103258204D01*
X133480703Y-102341852D01*
X133515351Y-102327500D01*
X135399865Y-102327500D01*
X135434513Y-102341852D01*
X135448865Y-102376500D01*
X135434513Y-102411148D01*
X135412547Y-102423830D01*
X135324178Y-102447509D01*
X135284552Y-102458126D01*
X135284546Y-102458128D01*
X135151949Y-102534684D01*
X135151949Y-102534685D01*
X135043684Y-102642950D01*
X135043682Y-102642952D01*
X134012988Y-103673647D01*
X132995687Y-104690948D01*
X132961039Y-104705300D01*
X114585761Y-104705300D01*
X114551113Y-104690948D01*
X114445040Y-104584875D01*
X114440814Y-104580057D01*
X114437119Y-104575242D01*
X114432534Y-104569266D01*
X114432532Y-104569265D01*
X114432532Y-104569264D01*
X114421746Y-104560987D01*
X114416930Y-104556763D01*
X114376851Y-104516686D01*
X114376849Y-104516684D01*
X114327762Y-104488343D01*
X114322440Y-104484787D01*
X114311646Y-104476505D01*
X114311644Y-104476504D01*
X114299085Y-104471302D01*
X114293338Y-104468468D01*
X114244253Y-104440128D01*
X114244249Y-104440127D01*
X114189495Y-104425455D01*
X114183429Y-104423396D01*
X114170877Y-104418197D01*
X114170873Y-104418195D01*
X114170871Y-104418195D01*
X114170869Y-104418194D01*
X114170863Y-104418193D01*
X114157395Y-104416420D01*
X114151111Y-104415170D01*
X114096359Y-104400499D01*
X114096356Y-104400499D01*
X114039670Y-104400499D01*
X114033274Y-104400080D01*
X114019800Y-104398306D01*
X114006326Y-104400080D01*
X113999930Y-104400499D01*
X113943243Y-104400499D01*
X113888479Y-104415172D01*
X113882197Y-104416421D01*
X113868736Y-104418193D01*
X113868722Y-104418197D01*
X113856164Y-104423398D01*
X113850100Y-104425456D01*
X113795353Y-104440126D01*
X113795349Y-104440128D01*
X113746258Y-104468469D01*
X113740515Y-104471301D01*
X113727954Y-104476505D01*
X113717163Y-104484784D01*
X113711839Y-104488340D01*
X113662759Y-104516678D01*
X113662746Y-104516688D01*
X113622668Y-104556764D01*
X113617854Y-104560986D01*
X113607067Y-104569264D01*
X113607064Y-104569267D01*
X113598786Y-104580054D01*
X113594564Y-104584868D01*
X113554488Y-104624946D01*
X113554478Y-104624959D01*
X113526140Y-104674039D01*
X113522584Y-104679363D01*
X113514305Y-104690154D01*
X113509101Y-104702715D01*
X113506269Y-104708458D01*
X113477928Y-104757549D01*
X113477926Y-104757553D01*
X113463256Y-104812300D01*
X113461198Y-104818364D01*
X113455997Y-104830922D01*
X113455993Y-104830936D01*
X113454221Y-104844397D01*
X113452972Y-104850679D01*
X113438299Y-104905443D01*
X113438299Y-104962129D01*
X113437880Y-104968524D01*
X113436106Y-104982000D01*
X111445155Y-104982000D01*
X109201092Y-102737937D01*
X109201090Y-102737935D01*
X109201087Y-102737933D01*
X109201083Y-102737930D01*
X109126411Y-102694819D01*
X109043118Y-102672500D01*
X109043116Y-102672500D01*
X106529751Y-102672500D01*
X106495103Y-102658148D01*
X105433090Y-101596135D01*
X105418738Y-101561487D01*
X105419680Y-101551927D01*
X105430929Y-101495376D01*
X105431900Y-101490495D01*
X105431900Y-101322200D01*
X106200599Y-101322200D01*
X106200599Y-101495373D01*
X106215104Y-101568290D01*
X106256412Y-101630113D01*
X106678086Y-102051785D01*
X106739909Y-102093095D01*
X106739911Y-102093096D01*
X106812823Y-102107599D01*
X106812829Y-102107600D01*
X106986000Y-102107600D01*
X106986000Y-101584443D01*
X107057496Y-101603600D01*
X107164504Y-101603600D01*
X107236000Y-101584443D01*
X107236000Y-102107600D01*
X107409173Y-102107600D01*
X107482090Y-102093095D01*
X107543913Y-102051787D01*
X107965585Y-101630113D01*
X108006895Y-101568290D01*
X108006896Y-101568288D01*
X108021399Y-101495376D01*
X108021400Y-101495371D01*
X108021400Y-101322200D01*
X107498243Y-101322200D01*
X107517400Y-101250704D01*
X107517400Y-101143696D01*
X107498243Y-101072200D01*
X108021401Y-101072200D01*
X108021401Y-100899030D01*
X108021400Y-100899026D01*
X108006895Y-100826109D01*
X107965587Y-100764286D01*
X107543913Y-100342614D01*
X107482090Y-100301304D01*
X107482088Y-100301303D01*
X107409176Y-100286800D01*
X107409170Y-100286799D01*
X107236000Y-100286799D01*
X107236000Y-100809956D01*
X107164504Y-100790800D01*
X107057496Y-100790800D01*
X106986000Y-100809956D01*
X106986000Y-100286799D01*
X106812826Y-100286799D01*
X106739909Y-100301304D01*
X106678086Y-100342612D01*
X106256414Y-100764286D01*
X106215104Y-100826109D01*
X106215103Y-100826111D01*
X106200600Y-100899023D01*
X106200600Y-101072200D01*
X106723757Y-101072200D01*
X106704600Y-101143696D01*
X106704600Y-101250704D01*
X106723757Y-101322200D01*
X106200599Y-101322200D01*
X105431900Y-101322200D01*
X105431900Y-100903901D01*
X105420268Y-100845421D01*
X105407364Y-100826109D01*
X105387144Y-100795847D01*
X104972356Y-100381059D01*
X104972352Y-100381056D01*
X104922779Y-100347933D01*
X104908157Y-100345024D01*
X104864295Y-100336300D01*
X104277701Y-100336300D01*
X104233841Y-100345024D01*
X104219220Y-100347932D01*
X104169647Y-100381055D01*
X103754859Y-100795843D01*
X103754856Y-100795847D01*
X103721733Y-100845420D01*
X103721733Y-100845422D01*
X103710100Y-100903905D01*
X98517781Y-100903905D01*
X98524718Y-98063628D01*
X98539154Y-98029017D01*
X98573750Y-98014750D01*
X198437697Y-98083248D01*
G37*
%TD.AperFunction*%
%TD*%
M02*
