%TF.GenerationSoftware,KiCad,Pcbnew,8.0.6*%
%TF.CreationDate,2025-03-12T20:05:18-06:00*%
%TF.ProjectId,Lightbar,4c696768-7462-4617-922e-6b696361645f,rev?*%
%TF.SameCoordinates,Original*%
%TF.FileFunction,Copper,L2,Bot*%
%TF.FilePolarity,Positive*%
%FSLAX46Y46*%
G04 Gerber Fmt 4.6, Leading zero omitted, Abs format (unit mm)*
G04 Created by KiCad (PCBNEW 8.0.6) date 2025-03-12 20:05:18*
%MOMM*%
%LPD*%
G01*
G04 APERTURE LIST*
G04 Aperture macros list*
%AMOutline5P*
0 Free polygon, 5 corners , with rotation*
0 The origin of the aperture is its center*
0 number of corners: always 5*
0 $1 to $10 corner X, Y*
0 $11 Rotation angle, in degrees counterclockwise*
0 create outline with 5 corners*
4,1,5,$1,$2,$3,$4,$5,$6,$7,$8,$9,$10,$1,$2,$11*%
%AMOutline6P*
0 Free polygon, 6 corners , with rotation*
0 The origin of the aperture is its center*
0 number of corners: always 6*
0 $1 to $12 corner X, Y*
0 $13 Rotation angle, in degrees counterclockwise*
0 create outline with 6 corners*
4,1,6,$1,$2,$3,$4,$5,$6,$7,$8,$9,$10,$11,$12,$1,$2,$13*%
%AMOutline7P*
0 Free polygon, 7 corners , with rotation*
0 The origin of the aperture is its center*
0 number of corners: always 7*
0 $1 to $14 corner X, Y*
0 $15 Rotation angle, in degrees counterclockwise*
0 create outline with 7 corners*
4,1,7,$1,$2,$3,$4,$5,$6,$7,$8,$9,$10,$11,$12,$13,$14,$1,$2,$15*%
%AMOutline8P*
0 Free polygon, 8 corners , with rotation*
0 The origin of the aperture is its center*
0 number of corners: always 8*
0 $1 to $16 corner X, Y*
0 $17 Rotation angle, in degrees counterclockwise*
0 create outline with 8 corners*
4,1,8,$1,$2,$3,$4,$5,$6,$7,$8,$9,$10,$11,$12,$13,$14,$15,$16,$1,$2,$17*%
G04 Aperture macros list end*
%TA.AperFunction,ComponentPad*%
%ADD10Outline8P,-0.660400X0.273547X-0.273547X0.660400X0.273547X0.660400X0.660400X0.273547X0.660400X-0.273547X0.273547X-0.660400X-0.273547X-0.660400X-0.660400X-0.273547X0.000000*%
%TD*%
%TA.AperFunction,ComponentPad*%
%ADD11O,1.700000X1.700000*%
%TD*%
%TA.AperFunction,ComponentPad*%
%ADD12R,1.700000X1.700000*%
%TD*%
%TA.AperFunction,ComponentPad*%
%ADD13Outline8P,-0.660400X0.273547X-0.273547X0.660400X0.273547X0.660400X0.660400X0.273547X0.660400X-0.273547X0.273547X-0.660400X-0.273547X-0.660400X-0.660400X-0.273547X180.000000*%
%TD*%
%TA.AperFunction,ViaPad*%
%ADD14C,0.600000*%
%TD*%
%TA.AperFunction,ViaPad*%
%ADD15C,0.756400*%
%TD*%
%TA.AperFunction,Conductor*%
%ADD16C,0.200000*%
%TD*%
%TA.AperFunction,Conductor*%
%ADD17C,0.762000*%
%TD*%
%TA.AperFunction,Conductor*%
%ADD18C,0.254000*%
%TD*%
%TA.AperFunction,Conductor*%
%ADD19C,0.152400*%
%TD*%
G04 APERTURE END LIST*
D10*
%TO.P,LSR2,A*%
%TO.N,Net-(LASER2-PadA)*%
X104571000Y-101197200D03*
%TO.P,LSR2,K*%
%TO.N,GND*%
X107111000Y-101197200D03*
%TD*%
D11*
%TO.P,J1,4,Pin_4*%
%TO.N,GND*%
X152500000Y-109500000D03*
%TO.P,J1,3,Pin_3*%
%TO.N,Net-(Q1-E)*%
X149960000Y-109500000D03*
%TO.P,J1,2,Pin_2*%
%TO.N,PWM1*%
X147420000Y-109500000D03*
D12*
%TO.P,J1,1,Pin_1*%
%TO.N,N$4*%
X144880000Y-109500000D03*
%TD*%
D13*
%TO.P,LSR1,A*%
%TO.N,Net-(LASER1-PadA)*%
X192638200Y-101197200D03*
%TO.P,LSR1,K*%
%TO.N,GND*%
X190098200Y-101197200D03*
%TD*%
D14*
%TO.N,Net-(Q1-E)*%
X148500000Y-106500000D03*
X151500000Y-105500000D03*
%TO.N,GND*%
X106409799Y-105945565D03*
X192500000Y-105500000D03*
X192500000Y-107500000D03*
X159000000Y-106500000D03*
X104708262Y-107783832D03*
D15*
X133222200Y-107572800D03*
D14*
X190808600Y-106556800D03*
X138339436Y-106490210D03*
X159017134Y-107740250D03*
X190789882Y-107528392D03*
X107944220Y-106841910D03*
X104753839Y-105839219D03*
X106400600Y-106810800D03*
X136201579Y-106523018D03*
X160044600Y-107120800D03*
X138313041Y-107750670D03*
X161000000Y-106500000D03*
X160996682Y-107767367D03*
X107944220Y-107753447D03*
X106409799Y-107738255D03*
X104738647Y-106811525D03*
D15*
X164007000Y-105896400D03*
D14*
X189000000Y-107500000D03*
D15*
X142975800Y-105363000D03*
D14*
X189000000Y-106500000D03*
X190796784Y-105513019D03*
X189000000Y-105500000D03*
X136252294Y-107770603D03*
X137311600Y-107064800D03*
X107929027Y-105960757D03*
X192500000Y-106500000D03*
D15*
%TO.N,N$3*%
X155929800Y-104474000D03*
X183514200Y-104982000D03*
%TO.N,N$4*%
X167715400Y-103356400D03*
X163549800Y-101832400D03*
X132206200Y-109147600D03*
X145465000Y-104372400D03*
X147993803Y-101852400D03*
%TO.N,N$7*%
X129590000Y-106531400D03*
X141426400Y-106607600D03*
%TO.N,N$9*%
X141502600Y-104651800D03*
X114019800Y-104982000D03*
X133222200Y-105286800D03*
%TO.N,PWM1*%
X154278800Y-106252000D03*
X148063299Y-103063299D03*
X155421800Y-108233200D03*
X131977600Y-103381800D03*
X145642800Y-105439200D03*
%TD*%
D16*
%TO.N,Net-(Q1-E)*%
X149500000Y-105500000D02*
X151500000Y-105500000D01*
X148500000Y-106500000D02*
X149500000Y-105500000D01*
D17*
%TO.N,GND*%
X152500000Y-109500000D02*
X152500000Y-108500000D01*
X152500000Y-108500000D02*
X151500000Y-107500000D01*
X151500000Y-107500000D02*
X145112800Y-107500000D01*
X145112800Y-107500000D02*
X144042600Y-106429800D01*
D18*
X187500000Y-104000000D02*
X182301600Y-109198400D01*
X182301600Y-109198400D02*
X164007000Y-109198400D01*
D16*
X189000000Y-105500000D02*
X187500000Y-104000000D01*
X160996682Y-107767367D02*
X161232633Y-107767367D01*
X161232633Y-107767367D02*
X163103600Y-105896400D01*
X163103600Y-105896400D02*
X164007000Y-105896400D01*
D18*
%TO.N,PWM1*%
X155421800Y-108233200D02*
X155421800Y-106883000D01*
X155421800Y-106883000D02*
X154790800Y-106252000D01*
X154790800Y-106252000D02*
X154329600Y-106252000D01*
X148063299Y-103063299D02*
X148063299Y-103500000D01*
X146124099Y-105439200D02*
X145642800Y-105439200D01*
X148063299Y-103500000D02*
X146124099Y-105439200D01*
D17*
%TO.N,GND*%
X144042600Y-106429800D02*
X142950400Y-106429800D01*
X142950400Y-106429800D02*
X142925000Y-106455200D01*
X144042600Y-106429800D02*
X144000000Y-106429800D01*
X144000000Y-106429800D02*
X142975800Y-105405600D01*
X142975800Y-105405600D02*
X142975800Y-105363000D01*
D16*
X136958097Y-107064800D02*
X136252294Y-107770603D01*
X107944220Y-107753447D02*
X106424991Y-107753447D01*
X190808600Y-106556800D02*
X190808600Y-107509674D01*
X137311600Y-107064800D02*
X137627171Y-107064800D01*
X106500000Y-107000000D02*
X106400600Y-106900600D01*
X106400600Y-106900600D02*
X106400600Y-106810800D01*
X104738647Y-105854411D02*
X104753839Y-105839219D01*
X192500000Y-106500000D02*
X192500000Y-105500000D01*
X137764846Y-107064800D02*
X138339436Y-106490210D01*
X107944220Y-106841910D02*
X106431710Y-106841910D01*
X192500000Y-107500000D02*
X190818274Y-107500000D01*
X190818274Y-107500000D02*
X190789882Y-107528392D01*
X190789882Y-107528392D02*
X190761490Y-107500000D01*
X133420003Y-107770603D02*
X133222200Y-107572800D01*
D17*
X135328600Y-109679200D02*
X133222200Y-107572800D01*
D16*
X190796784Y-105513019D02*
X189013019Y-105513019D01*
X106424991Y-105960757D02*
X106409799Y-105945565D01*
X160044600Y-107120800D02*
X160350115Y-107120800D01*
X159620800Y-107120800D02*
X159000000Y-106500000D01*
X104708262Y-107783832D02*
X104708262Y-106841910D01*
X159636584Y-107120800D02*
X159017134Y-107740250D01*
X107944220Y-107753447D02*
X107944220Y-106841910D01*
X189013019Y-105513019D02*
X189000000Y-105500000D01*
X189000000Y-107500000D02*
X189000000Y-106500000D01*
D18*
X190098200Y-101197200D02*
X190098200Y-101401800D01*
D17*
X155915300Y-111000000D02*
X154415300Y-109500000D01*
D16*
X107929027Y-105960757D02*
X106424991Y-105960757D01*
X159017134Y-107740250D02*
X160969565Y-107740250D01*
D17*
X162205400Y-111000000D02*
X155915300Y-111000000D01*
D16*
X137627171Y-107064800D02*
X138313041Y-107750670D01*
X104708262Y-106841910D02*
X104738647Y-106811525D01*
X106409799Y-107738255D02*
X104753839Y-107738255D01*
X160350115Y-107120800D02*
X160996682Y-107767367D01*
X137311600Y-107064800D02*
X136743361Y-107064800D01*
X192500000Y-105500000D02*
X190809803Y-105500000D01*
X106409799Y-105945565D02*
X104860185Y-105945565D01*
X106431710Y-106841910D02*
X106400600Y-106810800D01*
X106424991Y-107753447D02*
X106409799Y-107738255D01*
X160379200Y-107120800D02*
X161000000Y-106500000D01*
X107944220Y-106055780D02*
X108000000Y-106000000D01*
X136252294Y-107770603D02*
X138293108Y-107770603D01*
X160044600Y-107120800D02*
X159620800Y-107120800D01*
X137311600Y-107064800D02*
X136958097Y-107064800D01*
X106409799Y-107090201D02*
X106500000Y-107000000D01*
X160044600Y-107120800D02*
X160379200Y-107120800D01*
X107944220Y-106841910D02*
X107944220Y-106055780D01*
X107968270Y-106000000D02*
X107929027Y-105960757D01*
X138293108Y-107770603D02*
X138313041Y-107750670D01*
X189000000Y-106500000D02*
X189000000Y-105500000D01*
X192500000Y-107500000D02*
X192500000Y-106500000D01*
X160969565Y-107740250D02*
X160996682Y-107767367D01*
X106400600Y-106810800D02*
X106400600Y-105954764D01*
X192443200Y-106556800D02*
X192500000Y-106500000D01*
X136252294Y-107770603D02*
X133420003Y-107770603D01*
X136743361Y-107064800D02*
X136201579Y-106523018D01*
D18*
X190098200Y-101401800D02*
X187500000Y-104000000D01*
D17*
X139701000Y-109679200D02*
X135328600Y-109679200D01*
D16*
X190809803Y-105500000D02*
X190796784Y-105513019D01*
D17*
X164007000Y-109198400D02*
X164007000Y-105896400D01*
X154415300Y-109500000D02*
X152500000Y-109500000D01*
D16*
X190808600Y-106556800D02*
X190808600Y-105524835D01*
X190761490Y-107500000D02*
X189000000Y-107500000D01*
X106399875Y-106811525D02*
X106400600Y-106810800D01*
X104738647Y-106811525D02*
X106399875Y-106811525D01*
X190808600Y-107509674D02*
X190789882Y-107528392D01*
X190808600Y-105524835D02*
X190796784Y-105513019D01*
X189000000Y-106500000D02*
X190751800Y-106500000D01*
X104753839Y-107738255D02*
X104708262Y-107783832D01*
X160044600Y-107120800D02*
X159636584Y-107120800D01*
X108000000Y-106000000D02*
X107968270Y-106000000D01*
X106409799Y-107738255D02*
X106409799Y-107090201D01*
X190808600Y-106556800D02*
X192443200Y-106556800D01*
X104860185Y-105945565D02*
X104753839Y-105839219D01*
X106400600Y-105954764D02*
X106409799Y-105945565D01*
X137311600Y-107064800D02*
X137764846Y-107064800D01*
D17*
X142925000Y-106455200D02*
X139701000Y-109679200D01*
D16*
X190751800Y-106500000D02*
X190808600Y-106556800D01*
D17*
X164007000Y-109198400D02*
X162205400Y-111000000D01*
D16*
X104738647Y-106811525D02*
X104738647Y-105854411D01*
D17*
%TO.N,N$3*%
X164269127Y-103000000D02*
X157403800Y-103000000D01*
X157403800Y-103000000D02*
X155929800Y-104474000D01*
X165539927Y-104270800D02*
X164269127Y-103000000D01*
X182803000Y-104270800D02*
X165539927Y-104270800D01*
X183514200Y-104982000D02*
X182803000Y-104270800D01*
%TO.N,N$4*%
X164832400Y-101832400D02*
X163549800Y-101832400D01*
X132206200Y-109147600D02*
X134058600Y-111000000D01*
X148013803Y-101832400D02*
X163549800Y-101832400D01*
X147985000Y-101852400D02*
X145465000Y-104372400D01*
X167715400Y-103356400D02*
X166356400Y-103356400D01*
X134058600Y-111000000D02*
X140500000Y-111000000D01*
X147993803Y-101852400D02*
X147985000Y-101852400D01*
X142000000Y-109500000D02*
X144880000Y-109500000D01*
X166356400Y-103356400D02*
X164832400Y-101832400D01*
X147993803Y-101852400D02*
X148013803Y-101832400D01*
X140500000Y-111000000D02*
X142000000Y-109500000D01*
%TO.N,N$7*%
X135802156Y-104000000D02*
X133270756Y-106531400D01*
X138818800Y-104000000D02*
X135802156Y-104000000D01*
X141426400Y-106607600D02*
X138818800Y-104000000D01*
X133270756Y-106531400D02*
X129590000Y-106531400D01*
%TO.N,N$9*%
X114324600Y-105286800D02*
X133222200Y-105286800D01*
X114019800Y-104982000D02*
X114324600Y-105286800D01*
X139850800Y-103000000D02*
X135509000Y-103000000D01*
X135509000Y-103000000D02*
X133222200Y-105286800D01*
X141502600Y-104651800D02*
X139850800Y-103000000D01*
D18*
%TO.N,PWM1*%
X133359400Y-102000000D02*
X131977600Y-103381800D01*
D19*
X154278800Y-106252000D02*
X154329600Y-106252000D01*
D18*
X141441600Y-102000000D02*
X133359400Y-102000000D01*
X144880800Y-105439200D02*
X141441600Y-102000000D01*
X145642800Y-105439200D02*
X144880800Y-105439200D01*
D16*
%TO.N,GND*%
X107111000Y-103482058D02*
X107111000Y-101197200D01*
X104753839Y-105839219D02*
X107111000Y-103482058D01*
D18*
X107697200Y-101197200D02*
X107111000Y-101197200D01*
X114072800Y-107572800D02*
X107697200Y-101197200D01*
X133222200Y-107572800D02*
X114072800Y-107572800D01*
%TD*%
%TA.AperFunction,Conductor*%
%TO.N,GND*%
G36*
X198437697Y-98083248D02*
G01*
X198472335Y-98097624D01*
X198486663Y-98132282D01*
X198486662Y-98132534D01*
X198464532Y-101927586D01*
X198449979Y-101962150D01*
X198415533Y-101976300D01*
X196479038Y-101976300D01*
X195464100Y-102991236D01*
X195464100Y-102991237D01*
X195464100Y-102991238D01*
X195464100Y-106991237D01*
X195464100Y-107012363D01*
X196471573Y-108019835D01*
X196478907Y-108027245D01*
X196478908Y-108027246D01*
X196479037Y-108027299D01*
X196479038Y-108027300D01*
X196489511Y-108027300D01*
X196489763Y-108027300D01*
X198431527Y-108037316D01*
X198466099Y-108051846D01*
X198480273Y-108086332D01*
X198478925Y-111943505D01*
X198464561Y-111978148D01*
X198429917Y-111992488D01*
X98564092Y-111976310D01*
X98529446Y-111961953D01*
X98515100Y-111927310D01*
X98515100Y-109147599D01*
X131622506Y-109147599D01*
X131624280Y-109161074D01*
X131624699Y-109167470D01*
X131624699Y-109224159D01*
X131639370Y-109278911D01*
X131640620Y-109285195D01*
X131642393Y-109298663D01*
X131642397Y-109298677D01*
X131647596Y-109311229D01*
X131649655Y-109317295D01*
X131664327Y-109372049D01*
X131664328Y-109372053D01*
X131692668Y-109421138D01*
X131695502Y-109426885D01*
X131700704Y-109439444D01*
X131700706Y-109439447D01*
X131708985Y-109450237D01*
X131712545Y-109455565D01*
X131740880Y-109504643D01*
X131740882Y-109504645D01*
X131740884Y-109504649D01*
X131740887Y-109504652D01*
X131780958Y-109544723D01*
X131785184Y-109549542D01*
X131793462Y-109560330D01*
X131793464Y-109560331D01*
X131793466Y-109560334D01*
X131804262Y-109568618D01*
X131809072Y-109572837D01*
X133591568Y-111355333D01*
X133591573Y-111355339D01*
X133593284Y-111357050D01*
X133701550Y-111465316D01*
X133750082Y-111493336D01*
X133834146Y-111541871D01*
X133834148Y-111541871D01*
X133834149Y-111541872D01*
X133950790Y-111573125D01*
X133982040Y-111581499D01*
X133982041Y-111581500D01*
X133982044Y-111581500D01*
X140420431Y-111581500D01*
X140420447Y-111581501D01*
X140423444Y-111581501D01*
X140576558Y-111581501D01*
X140628160Y-111567673D01*
X140724451Y-111541872D01*
X140857050Y-111465316D01*
X140965316Y-111357050D01*
X140965316Y-111357048D01*
X140969345Y-111353020D01*
X140969348Y-111353015D01*
X142226514Y-110095852D01*
X142261162Y-110081500D01*
X143780500Y-110081500D01*
X143815148Y-110095852D01*
X143829500Y-110130500D01*
X143829500Y-110369748D01*
X143841133Y-110428231D01*
X143858882Y-110454795D01*
X143885447Y-110494552D01*
X143912012Y-110512301D01*
X143951769Y-110538867D01*
X144010252Y-110550500D01*
X144010255Y-110550500D01*
X145749745Y-110550500D01*
X145749748Y-110550500D01*
X145808231Y-110538867D01*
X145874552Y-110494552D01*
X145918867Y-110428231D01*
X145930500Y-110369748D01*
X145930500Y-109500000D01*
X146364417Y-109500000D01*
X146384700Y-109705934D01*
X146444768Y-109903954D01*
X146542315Y-110086450D01*
X146673590Y-110246410D01*
X146833550Y-110377685D01*
X147016046Y-110475232D01*
X147214066Y-110535300D01*
X147420000Y-110555583D01*
X147625934Y-110535300D01*
X147823954Y-110475232D01*
X148006450Y-110377685D01*
X148166410Y-110246410D01*
X148297685Y-110086450D01*
X148395232Y-109903954D01*
X148455300Y-109705934D01*
X148475583Y-109500000D01*
X148904417Y-109500000D01*
X148924700Y-109705934D01*
X148984768Y-109903954D01*
X149082315Y-110086450D01*
X149213590Y-110246410D01*
X149373550Y-110377685D01*
X149556046Y-110475232D01*
X149754066Y-110535300D01*
X149960000Y-110555583D01*
X150165934Y-110535300D01*
X150363954Y-110475232D01*
X150546450Y-110377685D01*
X150706410Y-110246410D01*
X150837685Y-110086450D01*
X150935232Y-109903954D01*
X150995300Y-109705934D01*
X151015583Y-109500000D01*
X151003271Y-109374999D01*
X151406870Y-109374999D01*
X151406870Y-109375000D01*
X152015856Y-109375000D01*
X152000000Y-109434174D01*
X152000000Y-109565826D01*
X152015856Y-109625000D01*
X151406870Y-109625000D01*
X151414096Y-109702986D01*
X151414098Y-109702995D01*
X151469883Y-109899063D01*
X151469884Y-109899064D01*
X151560752Y-110081553D01*
X151560755Y-110081557D01*
X151683604Y-110244237D01*
X151683607Y-110244240D01*
X151834257Y-110381576D01*
X152007590Y-110488900D01*
X152197674Y-110562538D01*
X152375000Y-110595686D01*
X152375000Y-109984144D01*
X152434174Y-110000000D01*
X152565826Y-110000000D01*
X152625000Y-109984144D01*
X152625000Y-110595685D01*
X152802325Y-110562538D01*
X152992409Y-110488900D01*
X153165742Y-110381576D01*
X153316392Y-110244240D01*
X153316395Y-110244237D01*
X153439244Y-110081557D01*
X153439247Y-110081553D01*
X153530115Y-109899064D01*
X153530116Y-109899063D01*
X153585901Y-109702995D01*
X153585903Y-109702986D01*
X153593129Y-109625000D01*
X152984144Y-109625000D01*
X153000000Y-109565826D01*
X153000000Y-109434174D01*
X152984144Y-109375000D01*
X153593130Y-109375000D01*
X153593129Y-109374999D01*
X153585903Y-109297013D01*
X153585901Y-109297004D01*
X153530116Y-109100936D01*
X153530115Y-109100935D01*
X153439247Y-108918446D01*
X153439244Y-108918442D01*
X153316395Y-108755762D01*
X153316392Y-108755759D01*
X153165742Y-108618423D01*
X152992409Y-108511099D01*
X152802324Y-108437460D01*
X152625000Y-108404312D01*
X152625000Y-109015855D01*
X152565826Y-109000000D01*
X152434174Y-109000000D01*
X152375000Y-109015855D01*
X152375000Y-108404312D01*
X152197675Y-108437460D01*
X152007590Y-108511099D01*
X151834257Y-108618423D01*
X151683607Y-108755759D01*
X151683604Y-108755762D01*
X151560755Y-108918442D01*
X151560752Y-108918446D01*
X151469884Y-109100935D01*
X151469883Y-109100936D01*
X151414098Y-109297004D01*
X151414096Y-109297013D01*
X151406870Y-109374999D01*
X151003271Y-109374999D01*
X150995300Y-109294066D01*
X150935232Y-109096046D01*
X150837685Y-108913550D01*
X150706410Y-108753590D01*
X150546450Y-108622315D01*
X150363954Y-108524768D01*
X150165934Y-108464700D01*
X149960000Y-108444417D01*
X149754065Y-108464700D01*
X149754064Y-108464700D01*
X149556043Y-108524769D01*
X149373548Y-108622316D01*
X149213590Y-108753590D01*
X149082316Y-108913548D01*
X148984769Y-109096043D01*
X148924700Y-109294064D01*
X148924700Y-109294065D01*
X148908794Y-109455565D01*
X148904417Y-109500000D01*
X148475583Y-109500000D01*
X148455300Y-109294066D01*
X148395232Y-109096046D01*
X148297685Y-108913550D01*
X148166410Y-108753590D01*
X148006450Y-108622315D01*
X147823954Y-108524768D01*
X147625934Y-108464700D01*
X147420000Y-108444417D01*
X147214065Y-108464700D01*
X147214064Y-108464700D01*
X147016043Y-108524769D01*
X146833548Y-108622316D01*
X146673590Y-108753590D01*
X146542316Y-108913548D01*
X146444769Y-109096043D01*
X146384700Y-109294064D01*
X146384700Y-109294065D01*
X146368794Y-109455565D01*
X146364417Y-109500000D01*
X145930500Y-109500000D01*
X145930500Y-108630252D01*
X145918867Y-108571769D01*
X145887462Y-108524769D01*
X145874552Y-108505447D01*
X145813569Y-108464700D01*
X145808231Y-108461133D01*
X145749748Y-108449500D01*
X144010252Y-108449500D01*
X143951769Y-108461133D01*
X143885447Y-108505447D01*
X143841133Y-108571769D01*
X143829500Y-108630252D01*
X143829500Y-108630255D01*
X143829500Y-108869500D01*
X143815148Y-108904148D01*
X143780500Y-108918500D01*
X141923441Y-108918500D01*
X141775550Y-108958127D01*
X141775546Y-108958128D01*
X141642949Y-109034684D01*
X140273487Y-110404148D01*
X140238839Y-110418500D01*
X134319761Y-110418500D01*
X134285113Y-110404148D01*
X132631437Y-108750472D01*
X132627218Y-108745662D01*
X132618934Y-108734866D01*
X132618931Y-108734864D01*
X132618930Y-108734862D01*
X132608142Y-108726584D01*
X132603323Y-108722358D01*
X132563252Y-108682287D01*
X132563249Y-108682284D01*
X132563245Y-108682282D01*
X132563243Y-108682280D01*
X132514165Y-108653945D01*
X132508837Y-108650385D01*
X132498047Y-108642106D01*
X132498044Y-108642104D01*
X132485485Y-108636902D01*
X132479738Y-108634068D01*
X132430653Y-108605728D01*
X132430649Y-108605727D01*
X132375895Y-108591055D01*
X132369829Y-108588996D01*
X132357277Y-108583797D01*
X132357273Y-108583795D01*
X132357271Y-108583795D01*
X132357269Y-108583794D01*
X132357263Y-108583793D01*
X132343795Y-108582020D01*
X132337511Y-108580770D01*
X132282759Y-108566099D01*
X132282756Y-108566099D01*
X132226070Y-108566099D01*
X132219674Y-108565680D01*
X132206200Y-108563906D01*
X132192726Y-108565680D01*
X132186330Y-108566099D01*
X132129643Y-108566099D01*
X132074879Y-108580772D01*
X132068597Y-108582021D01*
X132055136Y-108583793D01*
X132055122Y-108583797D01*
X132042564Y-108588998D01*
X132036500Y-108591056D01*
X131981753Y-108605726D01*
X131981749Y-108605728D01*
X131932658Y-108634069D01*
X131926915Y-108636901D01*
X131914354Y-108642105D01*
X131903563Y-108650384D01*
X131898239Y-108653940D01*
X131849159Y-108682278D01*
X131849146Y-108682288D01*
X131809068Y-108722364D01*
X131804254Y-108726586D01*
X131793467Y-108734864D01*
X131793464Y-108734867D01*
X131785186Y-108745654D01*
X131780964Y-108750468D01*
X131740888Y-108790546D01*
X131740878Y-108790559D01*
X131712540Y-108839639D01*
X131708984Y-108844963D01*
X131700705Y-108855754D01*
X131695501Y-108868315D01*
X131692669Y-108874058D01*
X131664328Y-108923149D01*
X131664326Y-108923153D01*
X131649656Y-108977900D01*
X131647598Y-108983964D01*
X131642397Y-108996522D01*
X131642393Y-108996536D01*
X131640621Y-109009997D01*
X131639372Y-109016279D01*
X131624699Y-109071043D01*
X131624699Y-109127729D01*
X131624280Y-109134124D01*
X131622506Y-109147599D01*
X98515100Y-109147599D01*
X98515100Y-108076300D01*
X98529452Y-108041652D01*
X98564100Y-108027300D01*
X100500162Y-108027300D01*
X100500163Y-108027300D01*
X101515100Y-107012362D01*
X101515100Y-106991237D01*
X101515100Y-104981999D01*
X113436106Y-104981999D01*
X113437880Y-104995474D01*
X113438299Y-105001870D01*
X113438299Y-105058559D01*
X113452970Y-105113311D01*
X113454220Y-105119595D01*
X113455993Y-105133063D01*
X113455997Y-105133077D01*
X113461196Y-105145629D01*
X113463255Y-105151695D01*
X113477927Y-105206449D01*
X113477928Y-105206453D01*
X113506268Y-105255538D01*
X113509102Y-105261285D01*
X113514304Y-105273844D01*
X113514305Y-105273846D01*
X113522587Y-105284640D01*
X113526143Y-105289962D01*
X113554484Y-105339049D01*
X113554485Y-105339050D01*
X113554486Y-105339051D01*
X113594563Y-105379130D01*
X113598787Y-105383946D01*
X113607062Y-105394730D01*
X113607066Y-105394734D01*
X113617378Y-105402646D01*
X113617857Y-105403014D01*
X113622672Y-105407237D01*
X113967550Y-105752116D01*
X114016082Y-105780136D01*
X114100146Y-105828671D01*
X114100148Y-105828671D01*
X114100149Y-105828672D01*
X114139687Y-105839266D01*
X114248040Y-105868299D01*
X114248041Y-105868300D01*
X114248044Y-105868300D01*
X114401155Y-105868300D01*
X129445549Y-105868300D01*
X129480197Y-105882652D01*
X129494549Y-105917300D01*
X129480197Y-105951948D01*
X129451945Y-105965881D01*
X129438931Y-105967594D01*
X129438923Y-105967596D01*
X129426363Y-105972798D01*
X129420299Y-105974856D01*
X129365553Y-105989526D01*
X129365549Y-105989528D01*
X129316464Y-106017866D01*
X129310721Y-106020698D01*
X129298156Y-106025903D01*
X129298150Y-106025907D01*
X129287364Y-106034183D01*
X129282038Y-106037742D01*
X129232947Y-106066086D01*
X129192864Y-106106167D01*
X129188051Y-106110389D01*
X129177266Y-106118666D01*
X129168989Y-106129451D01*
X129164767Y-106134264D01*
X129124686Y-106174347D01*
X129096342Y-106223438D01*
X129092783Y-106228764D01*
X129084507Y-106239550D01*
X129084503Y-106239556D01*
X129079298Y-106252121D01*
X129076466Y-106257864D01*
X129048128Y-106306949D01*
X129048126Y-106306953D01*
X129033456Y-106361699D01*
X129031398Y-106367763D01*
X129026196Y-106380323D01*
X129026194Y-106380330D01*
X129024419Y-106393815D01*
X129023168Y-106400099D01*
X129008500Y-106454840D01*
X129008500Y-106511521D01*
X129008081Y-106517916D01*
X129006306Y-106531399D01*
X129008081Y-106544881D01*
X129008500Y-106551277D01*
X129008500Y-106607959D01*
X129023168Y-106662700D01*
X129024419Y-106668985D01*
X129026194Y-106682466D01*
X129026195Y-106682472D01*
X129031399Y-106695036D01*
X129033458Y-106701103D01*
X129048126Y-106755847D01*
X129048128Y-106755853D01*
X129076467Y-106804935D01*
X129079302Y-106810684D01*
X129084504Y-106823243D01*
X129084506Y-106823247D01*
X129092783Y-106834033D01*
X129096342Y-106839360D01*
X129096645Y-106839884D01*
X129124684Y-106888450D01*
X129164761Y-106928527D01*
X129168987Y-106933345D01*
X129177263Y-106944131D01*
X129177264Y-106944132D01*
X129177266Y-106944134D01*
X129188058Y-106952415D01*
X129192868Y-106956634D01*
X129232950Y-106996716D01*
X129282046Y-107025061D01*
X129287361Y-107028612D01*
X129298153Y-107036894D01*
X129310129Y-107041854D01*
X129310715Y-107042097D01*
X129316453Y-107044926D01*
X129365549Y-107073272D01*
X129420315Y-107087946D01*
X129426350Y-107089994D01*
X129438929Y-107095205D01*
X129452410Y-107096979D01*
X129458682Y-107098226D01*
X129502005Y-107109834D01*
X129513443Y-107112900D01*
X129513444Y-107112900D01*
X129570122Y-107112900D01*
X129576517Y-107113319D01*
X129577511Y-107113449D01*
X129590000Y-107115094D01*
X129602488Y-107113449D01*
X129603483Y-107113319D01*
X129609878Y-107112900D01*
X133191187Y-107112900D01*
X133191203Y-107112901D01*
X133194200Y-107112901D01*
X133347314Y-107112901D01*
X133413353Y-107095205D01*
X133495207Y-107073272D01*
X133555600Y-107038404D01*
X133627806Y-106996716D01*
X133736072Y-106888450D01*
X133736072Y-106888448D01*
X133740101Y-106884420D01*
X133740104Y-106884415D01*
X136028669Y-104595852D01*
X136063317Y-104581500D01*
X138557639Y-104581500D01*
X138592287Y-104595852D01*
X141001161Y-107004727D01*
X141005387Y-107009545D01*
X141013663Y-107020331D01*
X141013664Y-107020332D01*
X141013666Y-107020334D01*
X141024458Y-107028615D01*
X141029268Y-107032834D01*
X141069350Y-107072916D01*
X141069351Y-107072917D01*
X141069353Y-107072918D01*
X141078893Y-107078425D01*
X141118446Y-107101261D01*
X141123761Y-107104812D01*
X141134553Y-107113094D01*
X141146529Y-107118054D01*
X141147115Y-107118297D01*
X141152853Y-107121126D01*
X141201949Y-107149472D01*
X141256715Y-107164146D01*
X141262750Y-107166194D01*
X141275329Y-107171405D01*
X141288810Y-107173179D01*
X141295082Y-107174426D01*
X141338405Y-107186034D01*
X141349843Y-107189100D01*
X141349844Y-107189100D01*
X141406522Y-107189100D01*
X141412917Y-107189519D01*
X141413911Y-107189649D01*
X141426400Y-107191294D01*
X141438888Y-107189649D01*
X141439883Y-107189519D01*
X141446278Y-107189100D01*
X141502956Y-107189100D01*
X141514266Y-107186068D01*
X141557715Y-107174426D01*
X141563974Y-107173180D01*
X141577471Y-107171405D01*
X141590039Y-107166198D01*
X141596088Y-107164144D01*
X141650850Y-107149472D01*
X141699942Y-107121127D01*
X141705679Y-107118298D01*
X141718247Y-107113094D01*
X141729048Y-107104804D01*
X141734348Y-107101263D01*
X141783449Y-107072916D01*
X141823535Y-107032828D01*
X141828340Y-107028616D01*
X141839134Y-107020334D01*
X141847417Y-107009538D01*
X141851628Y-107004735D01*
X141891716Y-106964649D01*
X141920063Y-106915548D01*
X141923604Y-106910248D01*
X141931894Y-106899447D01*
X141937098Y-106886879D01*
X141939927Y-106881142D01*
X141968272Y-106832050D01*
X141982944Y-106777288D01*
X141984998Y-106771239D01*
X141990205Y-106758671D01*
X141991980Y-106745174D01*
X141993226Y-106738915D01*
X142007900Y-106684155D01*
X142007900Y-106627477D01*
X142008319Y-106621081D01*
X142008338Y-106620935D01*
X142010094Y-106607600D01*
X142008319Y-106594116D01*
X142007900Y-106587721D01*
X142007900Y-106531043D01*
X142003530Y-106514735D01*
X141999581Y-106499997D01*
X147994353Y-106499997D01*
X147994353Y-106500002D01*
X148014833Y-106642454D01*
X148033109Y-106682471D01*
X148074623Y-106773373D01*
X148074624Y-106773374D01*
X148074625Y-106773376D01*
X148168871Y-106882142D01*
X148168872Y-106882143D01*
X148289947Y-106959953D01*
X148366785Y-106982514D01*
X148428034Y-107000499D01*
X148428037Y-107000499D01*
X148428039Y-107000500D01*
X148428040Y-107000500D01*
X148571960Y-107000500D01*
X148571961Y-107000500D01*
X148571963Y-107000499D01*
X148571965Y-107000499D01*
X148603508Y-106991237D01*
X148710053Y-106959953D01*
X148831128Y-106882143D01*
X148925377Y-106773373D01*
X148985165Y-106642457D01*
X148985165Y-106642455D01*
X148985166Y-106642454D01*
X149005647Y-106500001D01*
X149005647Y-106500000D01*
X149005647Y-106499997D01*
X148998995Y-106453741D01*
X149008269Y-106417406D01*
X149012841Y-106412128D01*
X149172970Y-106252000D01*
X153695106Y-106252000D01*
X153714994Y-106403070D01*
X153773303Y-106543842D01*
X153773306Y-106543847D01*
X153844858Y-106637096D01*
X153866066Y-106664734D01*
X153986953Y-106757494D01*
X153986955Y-106757494D01*
X153986957Y-106757496D01*
X154115366Y-106810684D01*
X154127729Y-106815805D01*
X154278800Y-106835694D01*
X154429871Y-106815805D01*
X154570647Y-106757494D01*
X154685080Y-106669685D01*
X154721305Y-106659979D01*
X154749557Y-106673912D01*
X155079948Y-107004303D01*
X155094300Y-107038951D01*
X155094300Y-107730899D01*
X155079948Y-107765547D01*
X155075130Y-107769773D01*
X155009064Y-107820467D01*
X154916306Y-107941352D01*
X154916303Y-107941357D01*
X154857994Y-108082129D01*
X154838106Y-108233200D01*
X154857994Y-108384270D01*
X154916303Y-108525042D01*
X154916306Y-108525047D01*
X155006128Y-108642106D01*
X155009066Y-108645934D01*
X155129953Y-108738694D01*
X155129955Y-108738694D01*
X155129957Y-108738696D01*
X155255167Y-108790559D01*
X155270729Y-108797005D01*
X155421800Y-108816894D01*
X155572871Y-108797005D01*
X155713647Y-108738694D01*
X155834534Y-108645934D01*
X155927294Y-108525047D01*
X155985605Y-108384271D01*
X156005494Y-108233200D01*
X155985605Y-108082129D01*
X155983191Y-108076300D01*
X155927296Y-107941357D01*
X155927293Y-107941352D01*
X155834535Y-107820467D01*
X155768470Y-107769773D01*
X155749719Y-107737294D01*
X155749300Y-107730899D01*
X155749300Y-106839882D01*
X155739866Y-106804677D01*
X155726981Y-106756590D01*
X155726980Y-106756588D01*
X155726980Y-106756587D01*
X155683869Y-106681916D01*
X155683866Y-106681913D01*
X155683865Y-106681910D01*
X155622890Y-106620935D01*
X154991890Y-105989935D01*
X154991887Y-105989933D01*
X154991883Y-105989930D01*
X154917211Y-105946819D01*
X154833918Y-105924500D01*
X154833916Y-105924500D01*
X154781100Y-105924500D01*
X154746452Y-105910148D01*
X154742226Y-105905329D01*
X154691534Y-105839266D01*
X154691533Y-105839265D01*
X154570647Y-105746506D01*
X154570642Y-105746503D01*
X154429870Y-105688194D01*
X154278800Y-105668306D01*
X154127729Y-105688194D01*
X153986957Y-105746503D01*
X153986952Y-105746506D01*
X153866066Y-105839265D01*
X153866065Y-105839266D01*
X153773306Y-105960152D01*
X153773303Y-105960157D01*
X153714994Y-106100929D01*
X153695106Y-106252000D01*
X149172970Y-106252000D01*
X149610119Y-105814852D01*
X149644767Y-105800500D01*
X151075750Y-105800500D01*
X151110398Y-105814852D01*
X151112782Y-105817412D01*
X151168872Y-105882143D01*
X151289947Y-105959953D01*
X151340703Y-105974856D01*
X151428034Y-106000499D01*
X151428037Y-106000499D01*
X151428039Y-106000500D01*
X151428040Y-106000500D01*
X151571960Y-106000500D01*
X151571961Y-106000500D01*
X151571963Y-106000499D01*
X151571965Y-106000499D01*
X151594795Y-105993795D01*
X151710053Y-105959953D01*
X151831128Y-105882143D01*
X151925377Y-105773373D01*
X151985165Y-105642457D01*
X151985165Y-105642455D01*
X151985166Y-105642454D01*
X152005647Y-105500002D01*
X152005647Y-105499997D01*
X151985166Y-105357545D01*
X151954303Y-105289966D01*
X151925377Y-105226627D01*
X151915826Y-105215605D01*
X151831128Y-105117857D01*
X151821547Y-105111700D01*
X151710053Y-105040047D01*
X151710050Y-105040046D01*
X151571965Y-104999500D01*
X151571961Y-104999500D01*
X151428039Y-104999500D01*
X151428034Y-104999500D01*
X151289949Y-105040046D01*
X151289947Y-105040046D01*
X151289947Y-105040047D01*
X151272597Y-105051197D01*
X151168871Y-105117857D01*
X151112782Y-105182588D01*
X151079246Y-105199375D01*
X151075750Y-105199500D01*
X149460435Y-105199500D01*
X149384013Y-105219977D01*
X149384010Y-105219978D01*
X149315488Y-105259540D01*
X148589880Y-105985148D01*
X148555232Y-105999500D01*
X148428034Y-105999500D01*
X148289949Y-106040046D01*
X148168871Y-106117857D01*
X148074625Y-106226623D01*
X148074624Y-106226625D01*
X148014833Y-106357545D01*
X147994353Y-106499997D01*
X141999581Y-106499997D01*
X141993226Y-106476282D01*
X141991978Y-106470004D01*
X141990205Y-106456529D01*
X141984994Y-106443950D01*
X141982946Y-106437915D01*
X141968272Y-106383149D01*
X141966644Y-106380330D01*
X141959389Y-106367763D01*
X141939926Y-106334053D01*
X141937097Y-106328315D01*
X141936854Y-106327729D01*
X141931894Y-106315753D01*
X141923612Y-106304961D01*
X141920061Y-106299646D01*
X141891716Y-106250550D01*
X141851634Y-106210468D01*
X141847415Y-106205658D01*
X141839134Y-106194866D01*
X141839132Y-106194864D01*
X141839131Y-106194863D01*
X141828345Y-106186587D01*
X141823527Y-106182361D01*
X140566501Y-104925335D01*
X139306312Y-103665147D01*
X139291961Y-103630500D01*
X139306313Y-103595852D01*
X139340961Y-103581500D01*
X139589639Y-103581500D01*
X139624287Y-103595852D01*
X141077358Y-105048923D01*
X141081584Y-105053742D01*
X141089862Y-105064530D01*
X141089864Y-105064531D01*
X141089866Y-105064534D01*
X141100662Y-105072818D01*
X141105472Y-105077037D01*
X141145551Y-105117116D01*
X141173186Y-105133071D01*
X141194637Y-105145456D01*
X141199956Y-105149009D01*
X141210753Y-105157294D01*
X141223326Y-105162502D01*
X141229049Y-105165324D01*
X141273077Y-105190743D01*
X141278145Y-105193670D01*
X141278149Y-105193672D01*
X141332913Y-105208345D01*
X141338968Y-105210402D01*
X141338973Y-105210404D01*
X141351529Y-105215605D01*
X141365006Y-105217379D01*
X141371286Y-105218628D01*
X141398575Y-105225940D01*
X141426042Y-105233301D01*
X141426044Y-105233301D01*
X141482730Y-105233301D01*
X141489125Y-105233719D01*
X141502600Y-105235494D01*
X141516074Y-105233719D01*
X141522470Y-105233301D01*
X141579158Y-105233301D01*
X141633907Y-105218630D01*
X141640196Y-105217379D01*
X141644949Y-105216753D01*
X141653671Y-105215605D01*
X141666238Y-105210398D01*
X141672280Y-105208347D01*
X141727051Y-105193672D01*
X141727053Y-105193670D01*
X141727055Y-105193670D01*
X141740786Y-105185741D01*
X141776144Y-105165327D01*
X141781877Y-105162500D01*
X141794447Y-105157294D01*
X141805236Y-105149014D01*
X141810565Y-105145454D01*
X141859649Y-105117116D01*
X141899727Y-105077036D01*
X141904538Y-105072817D01*
X141915334Y-105064534D01*
X141923617Y-105053738D01*
X141927837Y-105048927D01*
X141967913Y-105008852D01*
X141967913Y-105008851D01*
X141967916Y-105008849D01*
X141996255Y-104959762D01*
X141999816Y-104954434D01*
X142008094Y-104943647D01*
X142013300Y-104931077D01*
X142016127Y-104925344D01*
X142040520Y-104883096D01*
X142044470Y-104876255D01*
X142044470Y-104876253D01*
X142044472Y-104876251D01*
X142059147Y-104821480D01*
X142061198Y-104815438D01*
X142066405Y-104802871D01*
X142068179Y-104789396D01*
X142069430Y-104783107D01*
X142084101Y-104728357D01*
X142084101Y-104671670D01*
X142084520Y-104665274D01*
X142084656Y-104664244D01*
X142086294Y-104651800D01*
X142084520Y-104638324D01*
X142084101Y-104631929D01*
X142084101Y-104575242D01*
X142076740Y-104547775D01*
X142069428Y-104520486D01*
X142068179Y-104514205D01*
X142067206Y-104506812D01*
X142066405Y-104500729D01*
X142061202Y-104488168D01*
X142059145Y-104482113D01*
X142044472Y-104427349D01*
X142043378Y-104425455D01*
X142037920Y-104416001D01*
X142016124Y-104378249D01*
X142013302Y-104372526D01*
X142008094Y-104359953D01*
X141999809Y-104349156D01*
X141996256Y-104343837D01*
X141984185Y-104322929D01*
X141967916Y-104294751D01*
X141927837Y-104254672D01*
X141923618Y-104249862D01*
X141915334Y-104239066D01*
X141915331Y-104239064D01*
X141915330Y-104239062D01*
X141904542Y-104230784D01*
X141899723Y-104226558D01*
X140318911Y-102645746D01*
X140318909Y-102645743D01*
X140207850Y-102534684D01*
X140075252Y-102458128D01*
X139947253Y-102423830D01*
X139917501Y-102401000D01*
X139912606Y-102363817D01*
X139935436Y-102334065D01*
X139959936Y-102327500D01*
X141285649Y-102327500D01*
X141320297Y-102341852D01*
X144618735Y-105640290D01*
X144679710Y-105701265D01*
X144679713Y-105701266D01*
X144679716Y-105701269D01*
X144754388Y-105744380D01*
X144754390Y-105744381D01*
X144783257Y-105752116D01*
X144837682Y-105766700D01*
X144837684Y-105766700D01*
X145140500Y-105766700D01*
X145175148Y-105781052D01*
X145179374Y-105785871D01*
X145230065Y-105851933D01*
X145230066Y-105851934D01*
X145350953Y-105944694D01*
X145350955Y-105944694D01*
X145350957Y-105944696D01*
X145459192Y-105989528D01*
X145491729Y-106003005D01*
X145642800Y-106022894D01*
X145793871Y-106003005D01*
X145934647Y-105944694D01*
X146055534Y-105851934D01*
X146090431Y-105806455D01*
X146106226Y-105785871D01*
X146138704Y-105767119D01*
X146145100Y-105766700D01*
X146167217Y-105766700D01*
X146196279Y-105758912D01*
X146250509Y-105744381D01*
X146325189Y-105701265D01*
X148325364Y-103701090D01*
X148368480Y-103626410D01*
X148387061Y-103557064D01*
X148404558Y-103530876D01*
X148476033Y-103476033D01*
X148568793Y-103355146D01*
X148627104Y-103214370D01*
X148646993Y-103063299D01*
X148627104Y-102912228D01*
X148612225Y-102876306D01*
X148568795Y-102771456D01*
X148568792Y-102771451D01*
X148476033Y-102650565D01*
X148476032Y-102650564D01*
X148355146Y-102557805D01*
X148355141Y-102557802D01*
X148243867Y-102511712D01*
X148217348Y-102485194D01*
X148217348Y-102447691D01*
X148227973Y-102431791D01*
X148231518Y-102428247D01*
X148266161Y-102413900D01*
X157073084Y-102413900D01*
X157107732Y-102428252D01*
X157122084Y-102462900D01*
X157107732Y-102497548D01*
X157097584Y-102505335D01*
X157046749Y-102534684D01*
X157046749Y-102534685D01*
X156938482Y-102642952D01*
X155532673Y-104048760D01*
X155527858Y-104052983D01*
X155517067Y-104061264D01*
X155517064Y-104061267D01*
X155508786Y-104072054D01*
X155504564Y-104076868D01*
X155464488Y-104116946D01*
X155464478Y-104116959D01*
X155436140Y-104166039D01*
X155432584Y-104171363D01*
X155424305Y-104182154D01*
X155419101Y-104194715D01*
X155416269Y-104200458D01*
X155387928Y-104249549D01*
X155387926Y-104249553D01*
X155373256Y-104304300D01*
X155371198Y-104310364D01*
X155365997Y-104322922D01*
X155365993Y-104322936D01*
X155364221Y-104336397D01*
X155362972Y-104342679D01*
X155348299Y-104397443D01*
X155348299Y-104454129D01*
X155347880Y-104460524D01*
X155346106Y-104473999D01*
X155347880Y-104487474D01*
X155348299Y-104493870D01*
X155348299Y-104550559D01*
X155362970Y-104605311D01*
X155364220Y-104611595D01*
X155365993Y-104625063D01*
X155365997Y-104625077D01*
X155371196Y-104637629D01*
X155373255Y-104643695D01*
X155387927Y-104698449D01*
X155387928Y-104698453D01*
X155416268Y-104747538D01*
X155419102Y-104753285D01*
X155424304Y-104765844D01*
X155424306Y-104765847D01*
X155432585Y-104776637D01*
X155436143Y-104781962D01*
X155438597Y-104786212D01*
X155464480Y-104831043D01*
X155464482Y-104831045D01*
X155464484Y-104831049D01*
X155464487Y-104831052D01*
X155504558Y-104871123D01*
X155508784Y-104875942D01*
X155517062Y-104886730D01*
X155517064Y-104886731D01*
X155517066Y-104886734D01*
X155527862Y-104895018D01*
X155532672Y-104899237D01*
X155572751Y-104939316D01*
X155598936Y-104954434D01*
X155621837Y-104967656D01*
X155627156Y-104971209D01*
X155637953Y-104979494D01*
X155650526Y-104984702D01*
X155656249Y-104987524D01*
X155693185Y-105008849D01*
X155705345Y-105015870D01*
X155705349Y-105015872D01*
X155760113Y-105030545D01*
X155766168Y-105032602D01*
X155778724Y-105037803D01*
X155778729Y-105037805D01*
X155792206Y-105039579D01*
X155798486Y-105040828D01*
X155825775Y-105048140D01*
X155853242Y-105055501D01*
X155853244Y-105055501D01*
X155909930Y-105055501D01*
X155916325Y-105055919D01*
X155929800Y-105057694D01*
X155943274Y-105055919D01*
X155949670Y-105055501D01*
X156006358Y-105055501D01*
X156061107Y-105040830D01*
X156067396Y-105039579D01*
X156072149Y-105038953D01*
X156080871Y-105037805D01*
X156093438Y-105032598D01*
X156099480Y-105030547D01*
X156154251Y-105015872D01*
X156154253Y-105015870D01*
X156154255Y-105015870D01*
X156174888Y-105003957D01*
X156203344Y-104987527D01*
X156209077Y-104984700D01*
X156221647Y-104979494D01*
X156232436Y-104971214D01*
X156237765Y-104967654D01*
X156286849Y-104939316D01*
X156326927Y-104899236D01*
X156331738Y-104895017D01*
X156342534Y-104886734D01*
X156350820Y-104875933D01*
X156355031Y-104871132D01*
X157630313Y-103595852D01*
X157664961Y-103581500D01*
X164007966Y-103581500D01*
X164042614Y-103595852D01*
X165072895Y-104626133D01*
X165072900Y-104626139D01*
X165074611Y-104627850D01*
X165182877Y-104736116D01*
X165202661Y-104747538D01*
X165315473Y-104812671D01*
X165315476Y-104812672D01*
X165348363Y-104821484D01*
X165383586Y-104830922D01*
X165463370Y-104852301D01*
X165463372Y-104852301D01*
X165619480Y-104852301D01*
X165619496Y-104852300D01*
X182541839Y-104852300D01*
X182576487Y-104866652D01*
X183088958Y-105379123D01*
X183093184Y-105383942D01*
X183101462Y-105394730D01*
X183101464Y-105394731D01*
X183101466Y-105394734D01*
X183112262Y-105403018D01*
X183117072Y-105407237D01*
X183157151Y-105447316D01*
X183206243Y-105475659D01*
X183211558Y-105479211D01*
X183222353Y-105487494D01*
X183234930Y-105492703D01*
X183240650Y-105495524D01*
X183289750Y-105523872D01*
X183344493Y-105538540D01*
X183350563Y-105540600D01*
X183359466Y-105544287D01*
X183363129Y-105545805D01*
X183373497Y-105547169D01*
X183376605Y-105547579D01*
X183382894Y-105548830D01*
X183437643Y-105563501D01*
X183437645Y-105563501D01*
X183494330Y-105563501D01*
X183500725Y-105563919D01*
X183514200Y-105565694D01*
X183527674Y-105563919D01*
X183534070Y-105563501D01*
X183590758Y-105563501D01*
X183645507Y-105548830D01*
X183651796Y-105547579D01*
X183656549Y-105546953D01*
X183665271Y-105545805D01*
X183677838Y-105540598D01*
X183683880Y-105538547D01*
X183738651Y-105523872D01*
X183787745Y-105495526D01*
X183793489Y-105492694D01*
X183806047Y-105487494D01*
X183816833Y-105479217D01*
X183822159Y-105475657D01*
X183871250Y-105447316D01*
X183911339Y-105407225D01*
X183916151Y-105403007D01*
X183926934Y-105394734D01*
X183935207Y-105383951D01*
X183939425Y-105379139D01*
X183979516Y-105339050D01*
X184007857Y-105289959D01*
X184011417Y-105284633D01*
X184019694Y-105273847D01*
X184024893Y-105261293D01*
X184027726Y-105255545D01*
X184056072Y-105206451D01*
X184070747Y-105151680D01*
X184072798Y-105145638D01*
X184078005Y-105133071D01*
X184079779Y-105119595D01*
X184081030Y-105113307D01*
X184095701Y-105058557D01*
X184095701Y-105001870D01*
X184096120Y-104995474D01*
X184097894Y-104982000D01*
X184096120Y-104968524D01*
X184095701Y-104962129D01*
X184095701Y-104905443D01*
X184081030Y-104850694D01*
X184079779Y-104844405D01*
X184078898Y-104837715D01*
X184078005Y-104830929D01*
X184074099Y-104821499D01*
X184072800Y-104818363D01*
X184070740Y-104812293D01*
X184061186Y-104776637D01*
X184056072Y-104757550D01*
X184027724Y-104708450D01*
X184024903Y-104702730D01*
X184019694Y-104690153D01*
X184011411Y-104679358D01*
X184007859Y-104674043D01*
X183980202Y-104626139D01*
X183979518Y-104624954D01*
X183979513Y-104624948D01*
X183939437Y-104584872D01*
X183935214Y-104580057D01*
X183926934Y-104569266D01*
X183926931Y-104569264D01*
X183926930Y-104569262D01*
X183916142Y-104560984D01*
X183911323Y-104556758D01*
X183271111Y-103916546D01*
X183271109Y-103916543D01*
X183160050Y-103805484D01*
X183027452Y-103728928D01*
X182879558Y-103689299D01*
X182879556Y-103689299D01*
X182726444Y-103689299D01*
X182723447Y-103689299D01*
X182723431Y-103689300D01*
X168279529Y-103689300D01*
X168244881Y-103674948D01*
X168230529Y-103640300D01*
X168237094Y-103615800D01*
X168257270Y-103580854D01*
X168257269Y-103580854D01*
X168257272Y-103580851D01*
X168271945Y-103526088D01*
X168274003Y-103520028D01*
X168279205Y-103507471D01*
X168280979Y-103493988D01*
X168282226Y-103487716D01*
X168296900Y-103432956D01*
X168296900Y-103376277D01*
X168297319Y-103369881D01*
X168299094Y-103356400D01*
X168297319Y-103342916D01*
X168296900Y-103336521D01*
X168296900Y-103279843D01*
X168293834Y-103268405D01*
X168282226Y-103225082D01*
X168280978Y-103218804D01*
X168279205Y-103205329D01*
X168273994Y-103192750D01*
X168271946Y-103186715D01*
X168257272Y-103131949D01*
X168228926Y-103082853D01*
X168226097Y-103077115D01*
X168225854Y-103076529D01*
X168220894Y-103064553D01*
X168212612Y-103053761D01*
X168209061Y-103048446D01*
X168180716Y-102999350D01*
X168140634Y-102959268D01*
X168136415Y-102954458D01*
X168128134Y-102943666D01*
X168128132Y-102943664D01*
X168128131Y-102943663D01*
X168117345Y-102935387D01*
X168112527Y-102931161D01*
X168072450Y-102891084D01*
X168023360Y-102862742D01*
X168018037Y-102859185D01*
X168007247Y-102850906D01*
X168007243Y-102850904D01*
X167994684Y-102845702D01*
X167988939Y-102842869D01*
X167977695Y-102836377D01*
X167939853Y-102814528D01*
X167939847Y-102814526D01*
X167885103Y-102799858D01*
X167879036Y-102797799D01*
X167866472Y-102792595D01*
X167866466Y-102792594D01*
X167852985Y-102790819D01*
X167846700Y-102789568D01*
X167791959Y-102774900D01*
X167791956Y-102774900D01*
X167735278Y-102774900D01*
X167728883Y-102774481D01*
X167715400Y-102772706D01*
X167701917Y-102774481D01*
X167695522Y-102774900D01*
X166617562Y-102774900D01*
X166582914Y-102760548D01*
X165300511Y-101478146D01*
X165300509Y-101478143D01*
X165189450Y-101367084D01*
X165111709Y-101322200D01*
X189187799Y-101322200D01*
X189187799Y-101495373D01*
X189202304Y-101568290D01*
X189243612Y-101630113D01*
X189665286Y-102051785D01*
X189727109Y-102093095D01*
X189727111Y-102093096D01*
X189800023Y-102107599D01*
X189800029Y-102107600D01*
X189973200Y-102107600D01*
X189973200Y-101584443D01*
X190044696Y-101603600D01*
X190151704Y-101603600D01*
X190223200Y-101584443D01*
X190223200Y-102107600D01*
X190396373Y-102107600D01*
X190469290Y-102093095D01*
X190531113Y-102051787D01*
X190952785Y-101630113D01*
X190994095Y-101568290D01*
X190994096Y-101568288D01*
X191008599Y-101495376D01*
X191008600Y-101495371D01*
X191008600Y-101322200D01*
X190485443Y-101322200D01*
X190504600Y-101250704D01*
X190504600Y-101143696D01*
X190485443Y-101072200D01*
X191008601Y-101072200D01*
X191008601Y-100903905D01*
X191777300Y-100903905D01*
X191777300Y-101490499D01*
X191788932Y-101548978D01*
X191788932Y-101548979D01*
X191822055Y-101598552D01*
X192236843Y-102013340D01*
X192236847Y-102013343D01*
X192286420Y-102046466D01*
X192286422Y-102046467D01*
X192344905Y-102058100D01*
X192344908Y-102058100D01*
X192931496Y-102058100D01*
X192931499Y-102058100D01*
X192989979Y-102046468D01*
X193039555Y-102013342D01*
X193454340Y-101598557D01*
X193487467Y-101548978D01*
X193499100Y-101490495D01*
X193499100Y-100903901D01*
X193487468Y-100845421D01*
X193474564Y-100826109D01*
X193454344Y-100795847D01*
X193039556Y-100381059D01*
X193039552Y-100381056D01*
X192989979Y-100347933D01*
X192975357Y-100345024D01*
X192931495Y-100336300D01*
X192344901Y-100336300D01*
X192301041Y-100345024D01*
X192286420Y-100347932D01*
X192236847Y-100381055D01*
X191822059Y-100795843D01*
X191822056Y-100795847D01*
X191788933Y-100845420D01*
X191788933Y-100845422D01*
X191777300Y-100903905D01*
X191008601Y-100903905D01*
X191008601Y-100899030D01*
X191008600Y-100899026D01*
X190994095Y-100826109D01*
X190952787Y-100764286D01*
X190531113Y-100342614D01*
X190469290Y-100301304D01*
X190469288Y-100301303D01*
X190396376Y-100286800D01*
X190396370Y-100286799D01*
X190223200Y-100286799D01*
X190223200Y-100809956D01*
X190151704Y-100790800D01*
X190044696Y-100790800D01*
X189973200Y-100809956D01*
X189973200Y-100286799D01*
X189800026Y-100286799D01*
X189727109Y-100301304D01*
X189665286Y-100342612D01*
X189243614Y-100764286D01*
X189202304Y-100826109D01*
X189202303Y-100826111D01*
X189187800Y-100899023D01*
X189187800Y-101072200D01*
X189710957Y-101072200D01*
X189691800Y-101143696D01*
X189691800Y-101250704D01*
X189710957Y-101322200D01*
X189187799Y-101322200D01*
X165111709Y-101322200D01*
X165056854Y-101290529D01*
X165056851Y-101290528D01*
X165049637Y-101288595D01*
X165002743Y-101276029D01*
X164908958Y-101250899D01*
X164908956Y-101250899D01*
X164755844Y-101250899D01*
X164752847Y-101250899D01*
X164752831Y-101250900D01*
X163569678Y-101250900D01*
X163563283Y-101250481D01*
X163549800Y-101248706D01*
X163536317Y-101250481D01*
X163529922Y-101250900D01*
X147937244Y-101250900D01*
X147789353Y-101290527D01*
X147789349Y-101290528D01*
X147656752Y-101367083D01*
X147653333Y-101370502D01*
X147643194Y-101378282D01*
X147627946Y-101387086D01*
X147519684Y-101495350D01*
X147519682Y-101495352D01*
X145067873Y-103947160D01*
X145063058Y-103951383D01*
X145052267Y-103959664D01*
X145052264Y-103959667D01*
X145043986Y-103970454D01*
X145039764Y-103975268D01*
X144999688Y-104015346D01*
X144999678Y-104015359D01*
X144971340Y-104064439D01*
X144967784Y-104069763D01*
X144959505Y-104080554D01*
X144954301Y-104093115D01*
X144951469Y-104098858D01*
X144923128Y-104147949D01*
X144923126Y-104147953D01*
X144908456Y-104202700D01*
X144906398Y-104208764D01*
X144901197Y-104221322D01*
X144901193Y-104221336D01*
X144899421Y-104234797D01*
X144898172Y-104241079D01*
X144883499Y-104295843D01*
X144883499Y-104352529D01*
X144883080Y-104358924D01*
X144881306Y-104372399D01*
X144883080Y-104385874D01*
X144883499Y-104392270D01*
X144883499Y-104448959D01*
X144898170Y-104503711D01*
X144899420Y-104509995D01*
X144901193Y-104523463D01*
X144901197Y-104523477D01*
X144906396Y-104536029D01*
X144908455Y-104542095D01*
X144923127Y-104596849D01*
X144923128Y-104596853D01*
X144951468Y-104645938D01*
X144954302Y-104651685D01*
X144959504Y-104664244D01*
X144959506Y-104664247D01*
X144967785Y-104675037D01*
X144971345Y-104680365D01*
X144999680Y-104729443D01*
X144999682Y-104729445D01*
X144999684Y-104729449D01*
X144999687Y-104729452D01*
X145039758Y-104769523D01*
X145043984Y-104774342D01*
X145052262Y-104785130D01*
X145052264Y-104785131D01*
X145052266Y-104785134D01*
X145063062Y-104793418D01*
X145067871Y-104797636D01*
X145107951Y-104837716D01*
X145133211Y-104852300D01*
X145157037Y-104866056D01*
X145162356Y-104869609D01*
X145173153Y-104877894D01*
X145185726Y-104883102D01*
X145191449Y-104885924D01*
X145240549Y-104914272D01*
X145245173Y-104915511D01*
X145274926Y-104938340D01*
X145279822Y-104975522D01*
X145262321Y-105001715D01*
X145230064Y-105026467D01*
X145179374Y-105092529D01*
X145146896Y-105111281D01*
X145140500Y-105111700D01*
X145036751Y-105111700D01*
X145002103Y-105097348D01*
X141642692Y-101737937D01*
X141642690Y-101737935D01*
X141642687Y-101737933D01*
X141642683Y-101737930D01*
X141568011Y-101694819D01*
X141484718Y-101672500D01*
X141484716Y-101672500D01*
X133402516Y-101672500D01*
X133316284Y-101672500D01*
X133316282Y-101672500D01*
X133232989Y-101694819D01*
X133232987Y-101694819D01*
X133158316Y-101737930D01*
X133158307Y-101737937D01*
X132101201Y-102795042D01*
X132066553Y-102809394D01*
X132060159Y-102808975D01*
X131977600Y-102798106D01*
X131977599Y-102798106D01*
X131826529Y-102817994D01*
X131685757Y-102876303D01*
X131685752Y-102876306D01*
X131564866Y-102969065D01*
X131564865Y-102969066D01*
X131472106Y-103089952D01*
X131472103Y-103089957D01*
X131413794Y-103230729D01*
X131393906Y-103381800D01*
X131413794Y-103532870D01*
X131472103Y-103673642D01*
X131472106Y-103673647D01*
X131564866Y-103794534D01*
X131685753Y-103887294D01*
X131685755Y-103887294D01*
X131685757Y-103887296D01*
X131756374Y-103916546D01*
X131826529Y-103945605D01*
X131977600Y-103965494D01*
X132128671Y-103945605D01*
X132269447Y-103887294D01*
X132390334Y-103794534D01*
X132483094Y-103673647D01*
X132541405Y-103532871D01*
X132561294Y-103381800D01*
X132550424Y-103299239D01*
X132560130Y-103263015D01*
X132564349Y-103258204D01*
X133480703Y-102341852D01*
X133515351Y-102327500D01*
X135399865Y-102327500D01*
X135434513Y-102341852D01*
X135448865Y-102376500D01*
X135434513Y-102411148D01*
X135412547Y-102423830D01*
X135324178Y-102447509D01*
X135284552Y-102458126D01*
X135284546Y-102458128D01*
X135151949Y-102534684D01*
X135151949Y-102534685D01*
X135043684Y-102642950D01*
X135043682Y-102642952D01*
X134012988Y-103673647D01*
X132995687Y-104690948D01*
X132961039Y-104705300D01*
X114585761Y-104705300D01*
X114551113Y-104690948D01*
X114445040Y-104584875D01*
X114440814Y-104580057D01*
X114437119Y-104575242D01*
X114432534Y-104569266D01*
X114432532Y-104569265D01*
X114432532Y-104569264D01*
X114421746Y-104560987D01*
X114416930Y-104556763D01*
X114376851Y-104516686D01*
X114376849Y-104516684D01*
X114327762Y-104488343D01*
X114322440Y-104484787D01*
X114311646Y-104476505D01*
X114311644Y-104476504D01*
X114299085Y-104471302D01*
X114293338Y-104468468D01*
X114244253Y-104440128D01*
X114244249Y-104440127D01*
X114189495Y-104425455D01*
X114183429Y-104423396D01*
X114170877Y-104418197D01*
X114170873Y-104418195D01*
X114170871Y-104418195D01*
X114170869Y-104418194D01*
X114170863Y-104418193D01*
X114157395Y-104416420D01*
X114151111Y-104415170D01*
X114096359Y-104400499D01*
X114096356Y-104400499D01*
X114039670Y-104400499D01*
X114033274Y-104400080D01*
X114019800Y-104398306D01*
X114006326Y-104400080D01*
X113999930Y-104400499D01*
X113943243Y-104400499D01*
X113888479Y-104415172D01*
X113882197Y-104416421D01*
X113868736Y-104418193D01*
X113868722Y-104418197D01*
X113856164Y-104423398D01*
X113850100Y-104425456D01*
X113795353Y-104440126D01*
X113795349Y-104440128D01*
X113746258Y-104468469D01*
X113740515Y-104471301D01*
X113727954Y-104476505D01*
X113717163Y-104484784D01*
X113711839Y-104488340D01*
X113662759Y-104516678D01*
X113662746Y-104516688D01*
X113622668Y-104556764D01*
X113617854Y-104560986D01*
X113607067Y-104569264D01*
X113607064Y-104569267D01*
X113598786Y-104580054D01*
X113594564Y-104584868D01*
X113554488Y-104624946D01*
X113554478Y-104624959D01*
X113526140Y-104674039D01*
X113522584Y-104679363D01*
X113514305Y-104690154D01*
X113509101Y-104702715D01*
X113506269Y-104708458D01*
X113477928Y-104757549D01*
X113477926Y-104757553D01*
X113463256Y-104812300D01*
X113461198Y-104818364D01*
X113455997Y-104830922D01*
X113455993Y-104830936D01*
X113454221Y-104844397D01*
X113452972Y-104850679D01*
X113438299Y-104905443D01*
X113438299Y-104962129D01*
X113437880Y-104968524D01*
X113436106Y-104981999D01*
X101515100Y-104981999D01*
X101515100Y-102991238D01*
X101500162Y-102976300D01*
X100500163Y-101976300D01*
X98564282Y-101976300D01*
X98529634Y-101961948D01*
X98515282Y-101927300D01*
X98515282Y-101927180D01*
X98515744Y-101737930D01*
X98517781Y-100903905D01*
X103710100Y-100903905D01*
X103710100Y-101490499D01*
X103721732Y-101548978D01*
X103721732Y-101548979D01*
X103754855Y-101598552D01*
X104169643Y-102013340D01*
X104169647Y-102013343D01*
X104219220Y-102046466D01*
X104219222Y-102046467D01*
X104277705Y-102058100D01*
X104277708Y-102058100D01*
X104864296Y-102058100D01*
X104864299Y-102058100D01*
X104922779Y-102046468D01*
X104972355Y-102013342D01*
X105387140Y-101598557D01*
X105420267Y-101548978D01*
X105431900Y-101490495D01*
X105431900Y-101322200D01*
X106200599Y-101322200D01*
X106200599Y-101495373D01*
X106215104Y-101568290D01*
X106256412Y-101630113D01*
X106678086Y-102051785D01*
X106739909Y-102093095D01*
X106739911Y-102093096D01*
X106812823Y-102107599D01*
X106812829Y-102107600D01*
X106986000Y-102107600D01*
X106986000Y-101584443D01*
X107057496Y-101603600D01*
X107164504Y-101603600D01*
X107236000Y-101584443D01*
X107236000Y-102107600D01*
X107409173Y-102107600D01*
X107482090Y-102093095D01*
X107543913Y-102051787D01*
X107965585Y-101630113D01*
X108006895Y-101568290D01*
X108006896Y-101568288D01*
X108021399Y-101495376D01*
X108021400Y-101495371D01*
X108021400Y-101322200D01*
X107498243Y-101322200D01*
X107517400Y-101250704D01*
X107517400Y-101143696D01*
X107498243Y-101072200D01*
X108021401Y-101072200D01*
X108021401Y-100899030D01*
X108021400Y-100899026D01*
X108006895Y-100826109D01*
X107965587Y-100764286D01*
X107543913Y-100342614D01*
X107482090Y-100301304D01*
X107482088Y-100301303D01*
X107409176Y-100286800D01*
X107409170Y-100286799D01*
X107236000Y-100286799D01*
X107236000Y-100809956D01*
X107164504Y-100790800D01*
X107057496Y-100790800D01*
X106986000Y-100809956D01*
X106986000Y-100286799D01*
X106812826Y-100286799D01*
X106739909Y-100301304D01*
X106678086Y-100342612D01*
X106256414Y-100764286D01*
X106215104Y-100826109D01*
X106215103Y-100826111D01*
X106200600Y-100899023D01*
X106200600Y-101072200D01*
X106723757Y-101072200D01*
X106704600Y-101143696D01*
X106704600Y-101250704D01*
X106723757Y-101322200D01*
X106200599Y-101322200D01*
X105431900Y-101322200D01*
X105431900Y-100903901D01*
X105420268Y-100845421D01*
X105407364Y-100826109D01*
X105387144Y-100795847D01*
X104972356Y-100381059D01*
X104972352Y-100381056D01*
X104922779Y-100347933D01*
X104908157Y-100345024D01*
X104864295Y-100336300D01*
X104277701Y-100336300D01*
X104233841Y-100345024D01*
X104219220Y-100347932D01*
X104169647Y-100381055D01*
X103754859Y-100795843D01*
X103754856Y-100795847D01*
X103721733Y-100845420D01*
X103721733Y-100845422D01*
X103710100Y-100903905D01*
X98517781Y-100903905D01*
X98524718Y-98063628D01*
X98539154Y-98029017D01*
X98573750Y-98014750D01*
X198437697Y-98083248D01*
G37*
%TD.AperFunction*%
%TD*%
M02*
